CommissionerFlair-ExtraLight.ufo
<glyph name="numbersign" format="2">
  <advance width="674.6210526315789"/>
  <unicode hex="0023"/>
  <outline>
    <contour>
      <point x="19.157894736842106" y="163.18947368421053" type="line"/>
      <point x="78.58947368421053" y="165.61052631578949"/>
      <point x="134.93684210526317" y="165.69473684210527"/>
      <point x="183.2" y="165.69473684210527" type="curve"/>
      <point x="431.85263157894735" y="165.69473684210527" type="line"/>
      <point x="480.11578947368423" y="165.69473684210527"/>
      <point x="536.4631578947368" y="165.61052631578949"/>
      <point x="595.8947368421053" y="163.18947368421053" type="curve"/>
      <point x="595.8947368421053" y="207.31578947368422" type="line"/>
      <point x="536.4631578947368" y="204.89473684210526"/>
      <point x="480.11578947368423" y="204.81052631578947"/>
      <point x="431.85263157894735" y="204.81052631578947" type="curve"/>
      <point x="183.2" y="204.81052631578947" type="line"/>
      <point x="134.93684210526317" y="204.81052631578947"/>
      <point x="78.58947368421053" y="204.89473684210526"/>
      <point x="19.157894736842106" y="207.31578947368422" type="curve"/>
    </contour>
    <contour>
      <point x="123.62105263157895" y="0.0" type="curve"/>
      <point x="172.0105263157895" y="0.0" type="line"/>
      <point x="183.57894736842104" y="68.08421052631579"/>
      <point x="195.41052631578947" y="125.7578947368421"/>
      <point x="213.07368421052632" y="209.8421052631579" type="curve"/>
      <point x="261.06315789473683" y="435.4315789473684" type="line"/>
      <point x="279.6421052631579" y="524.6842105263158"/>
      <point x="292.38947368421054" y="583.4315789473684"/>
      <point x="310.06315789473683" y="654.6842105263158" type="curve"/>
      <point x="261.84210526315786" y="654.6842105263158" type="line"/>
      <point x="249.18947368421053" y="583.0947368421052"/>
      <point x="237.61052631578949" y="524.4315789473684"/>
      <point x="219.03157894736842" y="437.2631578947368" type="curve"/>
      <point x="171.0421052631579" y="209.8421052631579" type="line"/>
      <point x="153.37894736842105" y="125.58947368421053"/>
      <point x="139.37894736842105" y="67.74736842105263"/>
    </contour>
    <contour>
      <point x="78.72631578947369" y="444.3684210526316" type="line"/>
      <point x="138.1578947368421" y="446.7894736842105"/>
      <point x="194.50526315789475" y="446.87368421052633"/>
      <point x="242.76842105263157" y="446.87368421052633" type="curve"/>
      <point x="491.42105263157896" y="446.87368421052633" type="line"/>
      <point x="539.6842105263158" y="446.87368421052633"/>
      <point x="596.0315789473684" y="446.7894736842105"/>
      <point x="655.4631578947368" y="444.3684210526316" type="curve"/>
      <point x="655.4631578947368" y="488.4947368421052" type="line"/>
      <point x="596.0315789473684" y="486.0736842105263"/>
      <point x="539.6842105263158" y="485.9894736842105"/>
      <point x="491.42105263157896" y="485.9894736842105" type="curve"/>
      <point x="242.76842105263157" y="485.9894736842105" type="line"/>
      <point x="194.50526315789475" y="485.9894736842105"/>
      <point x="138.1578947368421" y="486.0736842105263"/>
      <point x="78.72631578947369" y="488.4947368421052" type="curve"/>
    </contour>
    <contour>
      <point x="356.14736842105265" y="0.0" type="curve"/>
      <point x="404.5368421052632" y="0.0" type="line"/>
      <point x="416.10526315789474" y="68.08421052631579"/>
      <point x="427.93684210526317" y="125.7578947368421"/>
      <point x="445.6" y="209.8421052631579" type="curve"/>
      <point x="493.58947368421053" y="435.4315789473684" type="line"/>
      <point x="512.1684210526316" y="524.6842105263158"/>
      <point x="524.9157894736842" y="583.4315789473684"/>
      <point x="542.5894736842105" y="654.6842105263158" type="curve"/>
      <point x="494.36842105263156" y="654.6842105263158" type="line"/>
      <point x="481.7157894736842" y="583.0947368421052"/>
      <point x="470.13684210526316" y="524.4315789473684"/>
      <point x="451.5578947368421" y="437.2631578947368" type="curve"/>
      <point x="403.5684210526316" y="209.8421052631579" type="line"/>
      <point x="385.90526315789475" y="125.58947368421053"/>
      <point x="371.9052631578947" y="67.74736842105263"/>
    </contour>
  </outline>
</glyph>
<glyph name="dollar" format="2">
  <advance width="555.0315789473684"/>
  <unicode hex="0024"/>
  <outline>
    <contour>
      <point x="289.2421052631579" y="-9.505263157894737" type="curve" smooth="yes"/>
      <point x="441.70526315789476" y="-9.505263157894737"/>
      <point x="509.4736842105263" y="75.98947368421052"/>
      <point x="509.4736842105263" y="179.52631578947367" type="curve" smooth="yes"/>
      <point x="509.4736842105263" y="270.5578947368421"/>
      <point x="458.30526315789473" y="318.7263157894737"/>
      <point x="294.5578947368421" y="372.88421052631577" type="curve" smooth="yes"/>
      <point x="164.68421052631578" y="416.11578947368423"/>
      <point x="109.28421052631579" y="443.8421052631579"/>
      <point x="109.28421052631579" y="519.2947368421053" type="curve" smooth="yes"/>
      <point x="109.28421052631579" y="612.8947368421053"/>
      <point x="188.9157894736842" y="649.621052631579"/>
      <point x="275.29473684210524" y="651.4526315789474" type="curve"/>
      <point x="310.1263157894737" y="651.4526315789474"/>
      <point x="379.8" y="634.2842105263159"/>
      <point x="460.22105263157897" y="594.621052631579" type="curve"/>
      <point x="467.89473684210526" y="644.6" type="line"/>
      <point x="417.7263157894737" y="664.7578947368421"/>
      <point x="339.4421052631579" y="696.3368421052631"/>
      <point x="274.6736842105263" y="696.3368421052631" type="curve" smooth="yes"/>
      <point x="136.96842105263158" y="696.3368421052631"/>
      <point x="62.54736842105263" y="618.4105263157895"/>
      <point x="62.54736842105263" y="519.2105263157895" type="curve" smooth="yes"/>
      <point x="62.54736842105263" y="418.2631578947368"/>
      <point x="137.9578947368421" y="376.5052631578947"/>
      <point x="270.61052631578946" y="333.5157894736842" type="curve" smooth="yes"/>
      <point x="390.1684210526316" y="294.77894736842103"/>
      <point x="462.82105263157894" y="263.22105263157897"/>
      <point x="462.82105263157894" y="180.10526315789474" type="curve" smooth="yes"/>
      <point x="462.82105263157894" y="73.76842105263158"/>
      <point x="385.11578947368423" y="36.873684210526314"/>
      <point x="288.4" y="35.04210526315789" type="curve"/>
      <point x="224.98947368421054" y="35.04210526315789"/>
      <point x="151.22105263157897" y="58.294736842105266"/>
      <point x="76.81052631578947" y="92.9578947368421" type="curve"/>
      <point x="70.88421052631578" y="41.72631578947368" type="line"/>
      <point x="121.88421052631578" y="22.652631578947368"/>
      <point x="200.13684210526316" y="-9.505263157894737"/>
    </contour>
    <contour>
      <point x="259.4526315789473" y="-137.0" type="curve"/>
      <point x="306.0842105263158" y="-137.0" type="line"/>
      <point x="303.3263157894737" y="-19.0"/>
      <point x="303.2421052631579" y="84.0"/>
      <point x="303.2421052631579" y="192.0" type="curve"/>
      <point x="303.2421052631579" y="474.0" type="line"/>
      <point x="303.2421052631579" y="582.0"/>
      <point x="303.3263157894737" y="685.0"/>
      <point x="306.0842105263158" y="803.0" type="curve"/>
      <point x="259.4526315789473" y="803.0" type="line"/>
      <point x="262.2105263157894" y="685.0"/>
      <point x="262.29473684210524" y="582.0"/>
      <point x="262.29473684210524" y="474.0" type="curve"/>
      <point x="262.29473684210524" y="192.0" type="line"/>
      <point x="262.29473684210524" y="84.0"/>
      <point x="262.2105263157894" y="-19.0"/>
    </contour>
  </outline>
</glyph>
<glyph name="quotesingle" format="2">
  <advance width="188.81052631578947"/>
  <unicode hex="0027"/>
  <outline>
    <contour>
      <point x="63.14736842105263" y="456.9894736842105" type="curve"/>
      <point x="100.43157894736842" y="457.9894736842105" type="line"/>
      <point x="101.02105263157895" y="554.1052631578947"/>
      <point x="106.27368421052631" y="650.0526315789474"/>
      <point x="115.11578947368422" y="744.0842105263158" type="curve"/>
      <point x="48.37894736842105" y="742.7473684210527" type="line"/>
      <point x="57.22105263157895" y="648.8"/>
      <point x="62.5578947368421" y="553.8526315789474"/>
    </contour>
  </outline>
</glyph>
<glyph name="parenleft" format="2">
  <advance width="370.4842105263158"/>
  <unicode hex="0028"/>
  <outline>
    <contour>
      <point x="279.56842105263155" y="-114.77894736842106" type="curve"/>
      <point x="325.1894736842105" y="-95.82105263157895" type="line"/>
      <point x="208.62105263157895" y="14.43157894736842"/>
      <point x="114.8" y="141.25263157894736"/>
      <point x="114.8" y="323.9157894736842" type="curve" smooth="yes"/>
      <point x="114.8" y="507.4947368421052"/>
      <point x="208.62105263157895" y="633.4"/>
      <point x="325.1894736842105" y="743.6526315789474" type="curve"/>
      <point x="279.56842105263155" y="762.6105263157895" type="line"/>
      <point x="166.25263157894736" y="648.5578947368421"/>
      <point x="66.63157894736842" y="515.5263157894738"/>
      <point x="66.63157894736842" y="323.9157894736842" type="curve" smooth="yes"/>
      <point x="66.63157894736842" y="133.22105263157894"/>
      <point x="166.25263157894736" y="-0.7263157894736834"/>
    </contour>
  </outline>
</glyph>
<glyph name="asterisk" format="2">
  <advance width="462.63157894736844"/>
  <unicode hex="002A"/>
  <outline>
    <contour>
      <point x="411.09473684210525" y="380.70526315789476" type="curve"/>
      <point x="434.6421052631579" y="418.87368421052633" type="line"/>
      <point x="368.8" y="455.0315789473684"/>
      <point x="303.2105263157895" y="492.3578947368421"/>
      <point x="239.45263157894738" y="530.6842105263158" type="curve"/>
      <point x="175.45263157894738" y="572.1894736842105"/>
      <point x="113.45263157894738" y="613.7789473684211"/>
      <point x="51.536842105263155" y="656.5368421052631" type="curve"/>
      <point x="27.989473684210527" y="618.3684210526316" type="line"/>
      <point x="93.83157894736843" y="582.2105263157895"/>
      <point x="159.50526315789475" y="544.8842105263158"/>
      <point x="224.17894736842106" y="505.5578947368421" type="curve"/>
      <point x="287.17894736842106" y="465.05263157894734"/>
      <point x="349.17894736842106" y="423.37894736842105"/>
    </contour>
    <contour>
      <point x="51.62105263157895" y="380.70526315789476" type="line"/>
      <point x="113.45263157894738" y="423.4631578947368"/>
      <point x="175.53684210526316" y="465.05263157894734"/>
      <point x="239.45263157894738" y="506.55789473684206" type="curve"/>
      <point x="303.2105263157895" y="544.8842105263158"/>
      <point x="368.8842105263158" y="582.2105263157895"/>
      <point x="434.6421052631579" y="618.4526315789473" type="curve"/>
      <point x="411.09473684210525" y="656.5368421052631" type="line"/>
      <point x="349.17894736842106" y="613.7789473684211"/>
      <point x="287.17894736842106" y="572.1894736842105"/>
      <point x="224.17894736842106" y="531.6" type="curve"/>
      <point x="159.42105263157896" y="492.3578947368421"/>
      <point x="93.83157894736843" y="455.0315789473684"/>
      <point x="27.989473684210527" y="418.87368421052633" type="curve"/>
    </contour>
    <contour>
      <point x="208.6421052631579" y="292.90526315789475" type="curve"/>
      <point x="253.9894736842105" y="292.90526315789475" type="line"/>
      <point x="250.06315789473683" y="368.1578947368421"/>
      <point x="247.38947368421051" y="443.41052631578947"/>
      <point x="245.6315789473684" y="519.578947368421" type="curve"/>
      <point x="247.38947368421051" y="593.9157894736842"/>
      <point x="250.06315789473683" y="669.1684210526316"/>
      <point x="253.90526315789472" y="744.421052631579" type="curve"/>
      <point x="208.6421052631579" y="744.421052631579" type="line"/>
      <point x="212.56842105263158" y="669.1684210526316"/>
      <point x="215.2421052631579" y="593.9157894736842"/>
      <point x="217.0" y="519.578947368421" type="curve"/>
      <point x="215.2421052631579" y="443.41052631578947"/>
      <point x="212.56842105263158" y="368.1578947368421"/>
    </contour>
  </outline>
</glyph>
<glyph name="plus" format="2">
  <advance width="582.5263157894736"/>
  <unicode hex="002B"/>
  <outline>
    <contour>
      <point x="266.7684210526316" y="63.23157894736842" type="curve"/>
      <point x="315.7578947368421" y="63.23157894736842" type="line"/>
      <point x="313.3368421052632" y="122.66315789473684"/>
      <point x="313.2526315789474" y="179.01052631578946"/>
      <point x="313.2526315789474" y="227.2736842105263" type="curve"/>
      <point x="313.2526315789474" y="365.0842105263158" type="line"/>
      <point x="313.2526315789474" y="413.34736842105264"/>
      <point x="313.3368421052632" y="469.69473684210527"/>
      <point x="315.7578947368421" y="529.1263157894737" type="curve"/>
      <point x="266.7684210526316" y="529.1263157894737" type="line"/>
      <point x="269.1894736842105" y="469.69473684210527"/>
      <point x="269.2736842105263" y="413.34736842105264"/>
      <point x="269.2736842105263" y="365.0842105263158" type="curve"/>
      <point x="269.2736842105263" y="227.2736842105263" type="line"/>
      <point x="269.2736842105263" y="179.01052631578946"/>
      <point x="269.1894736842105" y="122.66315789473684"/>
    </contour>
    <contour>
      <point x="67.47368421052632" y="271.93684210526317" type="line"/>
      <point x="126.90526315789474" y="274.35789473684207"/>
      <point x="183.25263157894736" y="274.4421052631579"/>
      <point x="231.5157894736842" y="274.4421052631579" type="curve"/>
      <point x="351.0105263157895" y="274.4421052631579" type="line"/>
      <point x="399.2736842105263" y="274.4421052631579"/>
      <point x="455.62105263157895" y="274.35789473684207"/>
      <point x="515.0526315789474" y="271.93684210526317" type="curve"/>
      <point x="515.0526315789474" y="320.4210526315789" type="line"/>
      <point x="455.62105263157895" y="318.0"/>
      <point x="399.2736842105263" y="317.9157894736842"/>
      <point x="351.0105263157895" y="317.9157894736842" type="curve"/>
      <point x="231.5157894736842" y="317.9157894736842" type="line"/>
      <point x="183.25263157894736" y="317.9157894736842"/>
      <point x="126.90526315789474" y="318.0"/>
      <point x="67.47368421052632" y="320.4210526315789" type="curve"/>
    </contour>
  </outline>
</glyph>
<glyph name="comma" format="2">
  <advance width="218.8842105263158"/>
  <unicode hex="002C"/>
  <outline>
    <contour>
      <point x="40.705263157894734" y="-157.0" type="curve"/>
      <point x="75.27368421052633" y="-155.9157894736842" type="line"/>
      <point x="111.2" y="-107.42105263157895"/>
      <point x="159.0842105263158" y="-16.736842105263158"/>
      <point x="159.0842105263158" y="47.62105263157895" type="curve" smooth="yes"/>
      <point x="159.0842105263158" y="75.41052631578947"/>
      <point x="147.31578947368422" y="95.52631578947368"/>
      <point x="120.85263157894737" y="97.28421052631579" type="curve"/>
      <point x="87.3578947368421" y="95.61052631578947" type="line"/>
      <point x="91.28421052631579" y="69.0"/>
      <point x="92.70526315789473" y="42.38947368421053"/>
      <point x="92.70526315789473" y="16.28421052631579" type="curve"/>
      <point x="92.70526315789473" y="-41.22105263157894"/>
      <point x="78.4421052631579" y="-98.08421052631579"/>
    </contour>
  </outline>
</glyph>
<glyph name="hyphen" format="2">
  <advance width="420.8421052631579"/>
  <unicode hex="002D"/>
  <outline>
    <contour>
      <point x="67.47368421052632" y="271.5157894736842" type="line"/>
      <point x="119.48421052631579" y="273.9368421052631"/>
      <point x="168.49473684210525" y="274.0210526315789"/>
      <point x="210.42105263157896" y="274.0210526315789" type="curve"/>
      <point x="252.34736842105264" y="274.0210526315789"/>
      <point x="301.3578947368421" y="273.9368421052631"/>
      <point x="353.36842105263156" y="271.5157894736842" type="curve"/>
      <point x="353.36842105263156" y="320.0" type="line"/>
      <point x="301.3578947368421" y="317.5789473684211"/>
      <point x="252.34736842105264" y="317.4947368421053"/>
      <point x="210.42105263157896" y="317.4947368421053" type="curve"/>
      <point x="168.49473684210525" y="317.4947368421053"/>
      <point x="119.48421052631579" y="317.5789473684211"/>
      <point x="67.47368421052632" y="320.0" type="curve"/>
    </contour>
  </outline>
</glyph>
<glyph name="slash" format="2">
  <advance width="441.95789473684215"/>
  <unicode hex="002F"/>
  <outline>
    <contour>
      <point x="34.463157894736845" y="0.0" type="curve"/>
      <point x="88.89473684210526" y="0.0" type="line"/>
      <point x="119.21052631578947" y="74.0"/>
      <point x="146.53684210526316" y="137.0"/>
      <point x="187.69473684210524" y="228.0" type="curve"/>
      <point x="297.5052631578947" y="474.0" type="line"/>
      <point x="340.66315789473686" y="571.0"/>
      <point x="370.15789473684214" y="636.0"/>
      <point x="407.4947368421052" y="713.0" type="curve"/>
      <point x="353.1473684210526" y="713.0" type="line"/>
      <point x="320.91578947368424" y="636.0"/>
      <point x="292.58947368421053" y="570.9157894736842"/>
      <point x="250.43157894736842" y="476.0" type="curve"/>
      <point x="139.62105263157895" y="228.0" type="line"/>
      <point x="98.46315789473685" y="137.0"/>
      <point x="68.96842105263158" y="74.0"/>
    </contour>
  </outline>
</glyph>
<glyph name="zero" format="2">
  <advance width="645.9473684210526"/>
  <unicode hex="0030"/>
  <outline>
    <contour>
      <point x="325.5157894736842" y="-9.505263157894737" type="curve" smooth="yes"/>
      <point x="489.89473684210526" y="-9.505263157894737"/>
      <point x="583.8947368421053" y="126.42105263157895"/>
      <point x="583.8947368421053" y="344.0842105263158" type="curve" smooth="yes"/>
      <point x="583.8947368421053" y="555.7473684210527"/>
      <point x="493.9789473684211" y="696.8421052631579"/>
      <point x="323.2631578947368" y="696.8421052631579" type="curve" smooth="yes"/>
      <point x="155.37894736842105" y="696.8421052631579"/>
      <point x="62.05263157894737" y="557.578947368421"/>
      <point x="62.05263157894737" y="344.0" type="curve" smooth="yes"/>
      <point x="62.05263157894737" y="137.92631578947368"/>
      <point x="146.7157894736842" y="-9.505263157894737"/>
    </contour>
    <contour>
      <point x="323.5157894736842" y="35.54736842105263" type="curve"/>
      <point x="172.44210526315788" y="38.88421052631579"/>
      <point x="111.3157894736842" y="165.32631578947368"/>
      <point x="111.3157894736842" y="344.0842105263158" type="curve" smooth="yes"/>
      <point x="111.3157894736842" y="521.3473684210526"/>
      <point x="175.44210526315788" y="648.3684210526316"/>
      <point x="323.5157894736842" y="651.7052631578947" type="curve"/>
      <point x="467.7578947368421" y="648.3684210526316"/>
      <point x="534.7157894736843" y="531.3368421052631"/>
      <point x="534.7157894736843" y="344.0842105263158" type="curve" smooth="yes"/>
      <point x="534.7157894736843" y="168.07368421052632"/>
      <point x="474.42105263157896" y="38.88421052631579"/>
    </contour>
  </outline>
</glyph>
<glyph name="one" format="2">
  <advance width="414.90526315789475"/>
  <unicode hex="0031"/>
  <outline>
    <contour>
      <point x="51.43157894736842" y="510.5368421052632" type="line"/>
      <point x="123.6842105263158" y="554.957894736842"/>
      <point x="196.2736842105263" y="597.3684210526316"/>
      <point x="269.86315789473684" y="638.7789473684211" type="curve"/>
      <point x="270.62105263157895" y="686.8421052631579" type="line"/>
      <point x="192.6" y="642.8421052631579"/>
      <point x="115.41052631578948" y="599.7578947368421"/>
      <point x="36.22105263157895" y="559.6" type="curve"/>
    </contour>
    <contour>
      <point x="244.34736842105264" y="0.0" type="curve"/>
      <point x="298.79999999999995" y="0.0" type="line"/>
      <point x="295.04210526315785" y="74.49473684210527"/>
      <point x="294.53684210526313" y="139.07368421052632"/>
      <point x="294.53684210526313" y="220.32631578947368" type="curve"/>
      <point x="294.53684210526313" y="447.1684210526316" type="line"/>
      <point x="294.53684210526313" y="531.6631578947369"/>
      <point x="295.7894736842105" y="611.578947368421"/>
      <point x="298.79999999999995" y="684.5052631578948" type="curve"/>
      <point x="270.62105263157895" y="686.8421052631579" type="line"/>
      <point x="245.93684210526317" y="662.021052631579" type="line"/>
      <point x="246.61052631578949" y="588.6947368421053"/>
      <point x="247.69473684210527" y="515.4526315789474"/>
      <point x="247.69473684210527" y="443.0421052631579" type="curve"/>
      <point x="247.69473684210527" y="220.32631578947368" type="line"/>
      <point x="247.69473684210527" y="139.07368421052632"/>
      <point x="247.10526315789474" y="74.49473684210527"/>
    </contour>
  </outline>
</glyph>
<glyph name="two" format="2">
  <advance width="546.5368421052632"/>
  <unicode hex="0032"/>
  <outline>
    <contour>
      <point x="51.65263157894737" y="0.0" type="line"/>
      <point x="488.6421052631579" y="0.0" type="line"/>
      <point x="488.6421052631579" y="48.410526315789475" type="line"/>
      <point x="408.57894736842104" y="44.89473684210526"/>
      <point x="327.6" y="43.810526315789474"/>
      <point x="247.53684210526316" y="43.810526315789474" type="curve"/>
      <point x="100.15789473684211" y="43.810526315789474" type="line"/>
      <point x="109.67368421052632" y="32.863157894736844" type="line"/>
      <point x="227.6421052631579" y="136.73684210526315" type="line"/>
      <point x="386.1894736842105" y="276.6"/>
      <point x="472.82105263157894" y="389.0"/>
      <point x="472.82105263157894" y="506.3157894736842" type="curve" smooth="yes"/>
      <point x="472.82105263157894" y="623.1684210526316"/>
      <point x="398.38947368421054" y="696.8421052631579"/>
      <point x="267.93684210526317" y="696.8421052631579" type="curve" smooth="yes"/>
      <point x="200.92631578947368" y="696.8421052631579"/>
      <point x="102.41052631578947" y="658.6842105263157"/>
      <point x="48.56842105263158" y="637.021052631579" type="curve"/>
      <point x="55.578947368421055" y="584.7789473684211" type="line"/>
      <point x="144.7263157894737" y="631.2736842105263"/>
      <point x="229.7263157894737" y="651.5368421052632"/>
      <point x="263.7263157894737" y="651.5368421052632" type="curve"/>
      <point x="371.1684210526316" y="650.3684210526316"/>
      <point x="424.4736842105263" y="601.3157894736842"/>
      <point x="424.4736842105263" y="502.70526315789476" type="curve" smooth="yes"/>
      <point x="424.4736842105263" y="392.2421052631579"/>
      <point x="334.2421052631579" y="287.6947368421052"/>
      <point x="181.45263157894738" y="151.98947368421054" type="curve"/>
      <point x="138.46315789473684" y="114.08421052631579"/>
      <point x="94.6421052631579" y="76.76842105263158"/>
      <point x="51.65263157894737" y="41.452631578947376" type="curve"/>
    </contour>
  </outline>
</glyph>
<glyph name="three" format="2">
  <advance width="563.9425287356322"/>
  <unicode hex="0033"/>
  <outline>
    <contour>
      <point x="274.735632183908" y="-9.551724137931034" type="curve" smooth="yes"/>
      <point x="429.7816091954023" y="-9.551724137931034"/>
      <point x="506.7011494252874" y="74.63218390804597"/>
      <point x="506.7011494252874" y="180.28735632183907" type="curve" smooth="yes"/>
      <point x="506.7011494252874" y="292.55172413793105"/>
      <point x="419.7241379310345" y="348.81609195402297"/>
      <point x="346.9080459770115" y="361.0" type="curve"/>
      <point x="346.9080459770115" y="367.735632183908" type="line"/>
      <point x="419.54022988505744" y="385.367816091954"/>
      <point x="481.62068965517244" y="447.71264367816093"/>
      <point x="481.62068965517244" y="533.7126436781609" type="curve" smooth="yes"/>
      <point x="481.62068965517244" y="634.816091954023"/>
      <point x="395.4367816091954" y="696.919540229885"/>
      <point x="279.735632183908" y="696.919540229885" type="curve" smooth="yes"/>
      <point x="213.816091954023" y="696.919540229885"/>
      <point x="117.3448275862069" y="655.0229885057471"/>
      <point x="64.60919540229885" y="631.5747126436781" type="curve"/>
      <point x="71.71264367816092" y="580.2298850574713" type="line"/>
      <point x="159.8735632183908" y="629.9425287356322"/>
      <point x="244.05747126436782" y="651.4942528735633"/>
      <point x="277.0574712643678" y="651.4942528735633" type="curve"/>
      <point x="366.01149425287355" y="650.3103448275863"/>
      <point x="433.3333333333333" y="613.5172413793103"/>
      <point x="433.3333333333333" y="529.4827586206897" type="curve" smooth="yes"/>
      <point x="433.3333333333333" y="447.44827586206895"/>
      <point x="371.8275862068965" y="382.78160919540227"/>
      <point x="225.6551724137931" y="382.41379310344826" type="curve"/>
      <point x="208.367816091954" y="382.41379310344826"/>
      <point x="191.08045977011494" y="382.5977011494253"/>
      <point x="173.97701149425288" y="384.1494252873563" type="curve"/>
      <point x="173.97701149425288" y="338.35632183908046" type="line"/>
      <point x="191.632183908046" y="339.7241379310345"/>
      <point x="209.10344827586206" y="339.9080459770115"/>
      <point x="226.94252873563218" y="339.9080459770115" type="curve"/>
      <point x="372.11494252873564" y="339.5402298850575"/>
      <point x="458.41379310344826" y="283.95402298850576"/>
      <point x="458.41379310344826" y="181.94252873563218" type="curve" smooth="yes"/>
      <point x="458.41379310344826" y="97.45977011494253"/>
      <point x="402.7241379310345" y="36.87356321839081"/>
      <point x="271.71264367816093" y="35.689655172413794" type="curve"/>
      <point x="207.44827586206898" y="35.689655172413794"/>
      <point x="131.16091954022988" y="60.05747126436782"/>
      <point x="55.08045977011494" y="97.50574712643679" type="curve"/>
      <point x="48.160919540229884" y="46.793103448275865" type="line"/>
      <point x="101.16091954022988" y="25.71264367816092"/>
      <point x="181.5287356321839" y="-9.551724137931034"/>
    </contour>
  </outline>
</glyph>
<glyph name="four" format="2">
  <advance width="592.3103448275862"/>
  <unicode hex="0034"/>
  <outline>
    <contour>
      <point x="372.0919540229885" y="0.0" type="curve"/>
      <point x="426.5862068965517" y="0.0" type="line"/>
      <point x="422.48275862068965" y="61.735632183908045"/>
      <point x="422.2988505747126" y="109.83908045977012"/>
      <point x="422.2988505747126" y="184.57471264367817" type="curve"/>
      <point x="422.2988505747126" y="443.55172413793105" type="line"/>
      <point x="422.2988505747126" y="522.551724137931"/>
      <point x="422.48275862068965" y="601.551724137931"/>
      <point x="426.5862068965517" y="684.551724137931" type="curve"/>
      <point x="371.01149425287355" y="684.551724137931" type="line"/>
      <point x="342.2988505747126" y="639.1034482758621"/>
      <point x="308.85057471264366" y="590.8390804597701"/>
      <point x="276.2183908045977" y="544.5747126436781" type="curve"/>
      <point x="185.50574712643677" y="416.2298850574713" type="line"/>
      <point x="139.05747126436782" y="351.14942528735634"/>
      <point x="76.97701149425288" y="262.62068965517244"/>
      <point x="33.52873563218391" y="205.45977011494253" type="curve"/>
      <point x="33.52873563218391" y="165.68965517241378" type="line"/>
      <point x="401.97701149425285" y="165.68965517241378" type="line"/>
      <point x="450.632183908046" y="165.68965517241378"/>
      <point x="521.8390804597701" y="165.50574712643677"/>
      <point x="566.3103448275862" y="162.95402298850573" type="curve"/>
      <point x="566.3103448275862" y="212.4022988505747" type="line"/>
      <point x="521.8390804597701" y="209.66666666666666"/>
      <point x="450.632183908046" y="209.48275862068965"/>
      <point x="401.97701149425285" y="209.48275862068965" type="curve"/>
      <point x="388.60919540229884" y="209.48275862068965" type="line"/>
      <point x="74.2183908045977" y="209.48275862068965" type="line"/>
      <point x="80.13793103448276" y="190.33333333333334" type="line"/>
      <point x="111.0344827586207" y="237.41379310344828"/>
      <point x="142.29885057471265" y="283.67816091954023"/>
      <point x="175.7471264367816" y="330.7586206896552" type="curve"/>
      <point x="300.54022988505744" y="507.632183908046" type="line"/>
      <point x="338.8045977011494" y="561.7126436781609"/>
      <point x="377.0689655172414" y="615.2413793103449"/>
      <point x="415.51724137931035" y="666.4022988505748" type="curve"/>
      <point x="374.01149425287355" y="656.4827586206897" type="line"/>
      <point x="376.1149425287356" y="584.0344827586207"/>
      <point x="376.2988505747126" y="511.7701149425287"/>
      <point x="376.2988505747126" y="439.32183908045977" type="curve"/>
      <point x="376.2988505747126" y="197.04597701149424" type="line"/>
      <point x="375.5632183908046" y="184.57471264367817" type="line"/>
      <point x="375.5632183908046" y="109.83908045977012"/>
      <point x="375.37931034482756" y="61.735632183908045"/>
    </contour>
  </outline>
</glyph>
<glyph name="five" format="2">
  <advance width="570.0229885057471"/>
  <unicode hex="0035"/>
  <outline>
    <contour>
      <point x="272.55172413793105" y="-9.551724137931034" type="curve" smooth="yes"/>
      <point x="426.7816091954023" y="-9.551724137931034"/>
      <point x="512.7816091954023" y="81.73563218390805"/>
      <point x="512.7816091954023" y="219.02298850574712" type="curve" smooth="yes"/>
      <point x="512.7816091954023" y="367.2068965517241"/>
      <point x="412.2528735632184" y="435.7586206896552"/>
      <point x="292.17241379310343" y="435.7586206896552" type="curve" smooth="yes"/>
      <point x="236.03448275862067" y="435.7586206896552"/>
      <point x="183.05747126436782" y="417.2298850574713"/>
      <point x="145.79310344827587" y="396.51724137931035" type="curve"/>
      <point x="139.05747126436782" y="396.51724137931035" type="line"/>
      <point x="139.05747126436782" y="449.39080459770116" type="line"/>
      <point x="139.24137931034483" y="518.7126436781609"/>
      <point x="140.60919540229884" y="589.0344827586207"/>
      <point x="141.5287356321839" y="659.3563218390805" type="curve"/>
      <point x="121.0919540229885" y="640.7586206896551" type="line"/>
      <point x="224.35632183908046" y="640.7586206896551" type="line"/>
      <point x="304.98850574712645" y="640.7586206896551"/>
      <point x="387.62068965517244" y="640.5747126436781"/>
      <point x="469.0689655172414" y="636.103448275862" type="curve"/>
      <point x="469.0689655172414" y="684.551724137931" type="line"/>
      <point x="89.13793103448276" y="684.551724137931" type="line"/>
      <point x="92.24137931034483" y="611.080459770115"/>
      <point x="93.24137931034483" y="529.6091954022988"/>
      <point x="93.24137931034483" y="442.95402298850576" type="curve"/>
      <point x="93.24137931034483" y="340.11494252873564" type="line"/>
      <point x="116.04597701149426" y="337.7471264367816" type="line"/>
      <point x="174.91954022988506" y="378.98850574712645"/>
      <point x="236.52873563218392" y="391.4367816091954"/>
      <point x="281.8735632183908" y="391.4367816091954" type="curve"/>
      <point x="381.64367816091954" y="390.2528735632184"/>
      <point x="464.4942528735632" y="345.64367816091954"/>
      <point x="464.4942528735632" y="218.10344827586206" type="curve" smooth="yes"/>
      <point x="464.4942528735632" y="103.27586206896552"/>
      <point x="399.54022988505744" y="36.87356321839081"/>
      <point x="270.5287356321839" y="35.689655172413794" type="curve"/>
      <point x="206.44827586206898" y="35.689655172413794"/>
      <point x="131.16091954022988" y="60.05747126436782"/>
      <point x="55.08045977011494" y="97.50574712643679" type="curve"/>
      <point x="48.160919540229884" y="46.793103448275865" type="line"/>
      <point x="101.16091954022988" y="25.71264367816092"/>
      <point x="180.5287356321839" y="-9.551724137931034"/>
    </contour>
  </outline>
</glyph>
<glyph name="seven" format="2">
  <advance width="516.2210526315789"/>
  <unicode hex="0037"/>
  <outline>
    <contour>
      <point x="117.94736842105263" y="0.0" type="curve"/>
      <point x="178.32631578947368" y="0.0" type="line"/>
      <point x="213.22105263157894" y="84.73684210526316"/>
      <point x="251.70526315789473" y="170.13684210526316"/>
      <point x="289.94736842105266" y="253.0421052631579" type="curve"/>
      <point x="356.5157894736842" y="396.93684210526317" type="line"/>
      <point x="396.58947368421053" y="484.42105263157896"/>
      <point x="433.7473684210526" y="564.7368421052631"/>
      <point x="472.90526315789475" y="646.2105263157895" type="curve"/>
      <point x="472.90526315789475" y="684.5052631578948" type="line"/>
      <point x="25.0" y="684.5052631578948" type="line"/>
      <point x="25.0" y="635.8421052631579" type="line"/>
      <point x="112.4" y="640.1894736842105"/>
      <point x="199.7157894736842" y="640.6947368421053"/>
      <point x="286.11578947368423" y="640.6947368421053" type="curve"/>
      <point x="432.42105263157896" y="640.6947368421053" type="line"/>
      <point x="420.0421052631579" y="653.4736842105264" type="line"/>
      <point x="397.4736842105263" y="600.4"/>
      <point x="374.14736842105265" y="548.1578947368421"/>
      <point x="349.65263157894736" y="495.0842105263158" type="curve"/>
      <point x="249.67368421052632" y="279.53684210526313" type="line"/>
      <point x="207.5157894736842" y="187.96842105263158"/>
      <point x="163.2736842105263" y="93.4"/>
    </contour>
  </outline>
</glyph>
<glyph name="eight" format="2">
  <advance width="600.7586206896551"/>
  <unicode hex="0038"/>
  <outline>
    <contour>
      <point x="300.4712643678161" y="-9.551724137931034" type="curve" smooth="yes"/>
      <point x="464.5977011494253" y="-9.551724137931034"/>
      <point x="543.5172413793103" y="80.08045977011494"/>
      <point x="543.5172413793103" y="191.367816091954" type="curve" smooth="yes"/>
      <point x="543.5172413793103" y="305.44827586206895"/>
      <point x="458.35632183908046" y="358.08045977011494"/>
      <point x="399.4367816091954" y="370.44827586206895" type="curve"/>
      <point x="399.4367816091954" y="377.18390804597703" type="line"/>
      <point x="459.17241379310343" y="394.0"/>
      <point x="518.4367816091954" y="448.264367816092"/>
      <point x="518.4367816091954" y="530.080459770115" type="curve" smooth="yes"/>
      <point x="518.4367816091954" y="630.183908045977"/>
      <point x="431.51724137931035" y="696.919540229885"/>
      <point x="300.4712643678161" y="696.919540229885" type="curve" smooth="yes"/>
      <point x="169.24137931034483" y="696.919540229885"/>
      <point x="82.32183908045977" y="630.183908045977"/>
      <point x="82.32183908045977" y="530.080459770115" type="curve" smooth="yes"/>
      <point x="82.32183908045977" y="448.264367816092"/>
      <point x="141.58620689655172" y="394.0"/>
      <point x="200.50574712643677" y="377.18390804597703" type="curve"/>
      <point x="200.50574712643677" y="370.44827586206895" type="line"/>
      <point x="142.4022988505747" y="358.08045977011494"/>
      <point x="57.241379310344826" y="305.632183908046"/>
      <point x="57.241379310344826" y="191.367816091954" type="curve" smooth="yes"/>
      <point x="57.241379310344826" y="80.08045977011494"/>
      <point x="136.16091954022988" y="-9.551724137931034"/>
    </contour>
    <contour>
      <point x="300.4712643678161" y="35.87356321839081" type="curve"/>
      <point x="162.29885057471265" y="37.24137931034483"/>
      <point x="104.79310344827586" y="103.45977011494253"/>
      <point x="104.79310344827586" y="193.57471264367817" type="curve" smooth="yes"/>
      <point x="104.79310344827586" y="300.2183908045977"/>
      <point x="190.90804597701148" y="348.9080459770115"/>
      <point x="300.28735632183907" y="350.45977011494256" type="curve"/>
      <point x="409.85057471264366" y="348.9080459770115"/>
      <point x="495.9655172413793" y="300.2183908045977"/>
      <point x="495.9655172413793" y="193.57471264367817" type="curve" smooth="yes"/>
      <point x="495.9655172413793" y="103.45977011494253"/>
      <point x="438.45977011494256" y="37.24137931034483"/>
    </contour>
    <contour>
      <point x="300.4712643678161" y="392.2298850574713" type="curve"/>
      <point x="190.64367816091954" y="393.7816091954023"/>
      <point x="129.50574712643677" y="448.55172413793105"/>
      <point x="129.50574712643677" y="527.5862068965517" type="curve" smooth="yes"/>
      <point x="129.50574712643677" y="607.8045977011494"/>
      <point x="196.27586206896552" y="650.6781609195402"/>
      <point x="300.4712643678161" y="652.0459770114943" type="curve"/>
      <point x="403.6666666666667" y="650.6781609195402"/>
      <point x="471.4367816091954" y="607.8045977011494"/>
      <point x="471.4367816091954" y="527.5862068965517" type="curve" smooth="yes"/>
      <point x="471.4367816091954" y="448.55172413793105"/>
      <point x="409.2988505747126" y="393.7816091954023"/>
    </contour>
  </outline>
</glyph>
<glyph name="less" format="2">
  <advance width="562.5263157894736"/>
  <unicode hex="003C"/>
  <outline>
    <contour>
      <point x="495.05263157894734" y="80.69473684210526" type="curve"/>
      <point x="495.05263157894734" y="134.85263157894738" type="line"/>
      <point x="417.8315789473684" y="164.66315789473686"/>
      <point x="336.0315789473684" y="200.7263157894737"/>
      <point x="256.9789473684211" y="235.8736842105263" type="curve"/>
      <point x="130.77894736842106" y="291.8421052631579" type="line"/>
      <point x="130.77894736842106" y="298.6842105263158" type="line"/>
      <point x="256.9789473684211" y="354.65263157894736" type="line"/>
      <point x="336.0315789473684" y="389.8"/>
      <point x="417.8315789473684" y="425.86315789473684"/>
      <point x="495.05263157894734" y="455.6736842105263" type="curve"/>
      <point x="495.05263157894734" y="509.83157894736837" type="line"/>
      <point x="436.53684210526313" y="482.07368421052627"/>
      <point x="379.2736842105263" y="456.0736842105263"/>
      <point x="330.09473684210525" y="434.0736842105263" type="curve"/>
      <point x="230.6" y="390.0842105263158" type="line"/>
      <point x="183.25263157894736" y="369.0"/>
      <point x="125.98947368421052" y="344.0"/>
      <point x="67.47368421052632" y="320.5894736842105" type="curve"/>
      <point x="67.47368421052632" y="269.93684210526317" type="line"/>
      <point x="125.98947368421052" y="246.5263157894737"/>
      <point x="183.25263157894736" y="221.52631578947367"/>
      <point x="230.6" y="200.44210526315788" type="curve"/>
      <point x="330.09473684210525" y="156.45263157894738" type="line"/>
      <point x="379.2736842105263" y="134.45263157894738"/>
      <point x="436.53684210526313" y="108.45263157894736"/>
    </contour>
  </outline>
</glyph>
<glyph name="equal" format="2">
  <advance width="562.5263157894736"/>
  <unicode hex="003D"/>
  <outline>
    <contour>
      <point x="68.3157894736842" y="164.8315789473684" type="line"/>
      <point x="127.74736842105263" y="167.25263157894736"/>
      <point x="184.09473684210528" y="167.33684210526314"/>
      <point x="232.3578947368421" y="167.33684210526314" type="curve"/>
      <point x="330.1684210526316" y="167.33684210526314" type="line"/>
      <point x="378.4315789473684" y="167.33684210526314"/>
      <point x="434.77894736842103" y="167.25263157894736"/>
      <point x="494.2105263157895" y="164.8315789473684" type="curve"/>
      <point x="494.2105263157895" y="213.31578947368422" type="line"/>
      <point x="434.77894736842103" y="210.89473684210526"/>
      <point x="378.4315789473684" y="210.81052631578947"/>
      <point x="330.1684210526316" y="210.81052631578947" type="curve"/>
      <point x="232.3578947368421" y="210.81052631578947" type="line"/>
      <point x="184.09473684210528" y="210.81052631578947"/>
      <point x="127.74736842105263" y="210.89473684210526"/>
      <point x="68.3157894736842" y="213.31578947368422" type="curve"/>
    </contour>
    <contour>
      <point x="68.3157894736842" y="379.0421052631579" type="line"/>
      <point x="127.74736842105263" y="381.4631578947368"/>
      <point x="184.09473684210528" y="381.5473684210526"/>
      <point x="232.3578947368421" y="381.5473684210526" type="curve"/>
      <point x="330.1684210526316" y="381.5473684210526" type="line"/>
      <point x="378.4315789473684" y="381.5473684210526"/>
      <point x="434.77894736842103" y="381.4631578947368"/>
      <point x="494.2105263157895" y="379.0421052631579" type="curve"/>
      <point x="494.2105263157895" y="427.52631578947364" type="line"/>
      <point x="434.77894736842103" y="425.10526315789474"/>
      <point x="378.4315789473684" y="425.0210526315789"/>
      <point x="330.1684210526316" y="425.0210526315789" type="curve"/>
      <point x="232.3578947368421" y="425.0210526315789" type="line"/>
      <point x="184.09473684210528" y="425.0210526315789"/>
      <point x="127.74736842105263" y="425.10526315789474"/>
      <point x="68.3157894736842" y="427.52631578947364" type="curve"/>
    </contour>
  </outline>
</glyph>
<glyph name="greater" format="2">
  <advance width="562.5263157894736"/>
  <unicode hex="003E"/>
  <outline>
    <contour>
      <point x="67.47368421052632" y="80.69473684210526" type="line"/>
      <point x="125.98947368421052" y="108.45263157894736"/>
      <point x="183.25263157894736" y="134.45263157894738"/>
      <point x="232.43157894736842" y="156.45263157894738" type="curve"/>
      <point x="331.9263157894737" y="200.44210526315788" type="line"/>
      <point x="379.2736842105263" y="221.52631578947367"/>
      <point x="436.53684210526313" y="246.5263157894737"/>
      <point x="495.05263157894734" y="269.93684210526317" type="curve"/>
      <point x="495.05263157894734" y="320.5894736842105" type="line"/>
      <point x="436.53684210526313" y="344.0"/>
      <point x="379.2736842105263" y="369.0"/>
      <point x="331.9263157894737" y="390.0842105263158" type="curve"/>
      <point x="232.43157894736842" y="434.0736842105263" type="line"/>
      <point x="183.25263157894736" y="456.0736842105263"/>
      <point x="125.98947368421052" y="482.07368421052627"/>
      <point x="67.47368421052632" y="509.83157894736837" type="curve"/>
      <point x="67.47368421052632" y="455.6736842105263" type="line"/>
      <point x="144.69473684210527" y="425.86315789473684"/>
      <point x="226.49473684210525" y="389.8"/>
      <point x="305.5473684210526" y="354.65263157894736" type="curve"/>
      <point x="431.7473684210526" y="298.6842105263158" type="line"/>
      <point x="431.7473684210526" y="291.8421052631579" type="line"/>
      <point x="305.5473684210526" y="235.8736842105263" type="line"/>
      <point x="226.49473684210525" y="200.7263157894737"/>
      <point x="144.69473684210527" y="164.66315789473686"/>
      <point x="67.47368421052632" y="134.85263157894738" type="curve"/>
    </contour>
  </outline>
</glyph>
<glyph name="at" format="2">
  <advance width="877.2736842105263"/>
  <unicode hex="0040"/>
  <outline>
    <contour>
      <point x="470.8421052631579" y="-124.94736842105263" type="curve" smooth="yes"/>
      <point x="555.0105263157894" y="-124.94736842105263"/>
      <point x="671.6736842105263" y="-85.8736842105263"/>
      <point x="753.0105263157894" y="-50.12631578947368" type="curve"/>
      <point x="753.0105263157894" y="-3.5368421052631582" type="line"/>
      <point x="650.9157894736843" y="-53.21052631578947"/>
      <point x="540.4947368421053" y="-83.2842105263158"/>
      <point x="470.8421052631579" y="-86.45263157894738" type="curve"/>
      <point x="186.8736842105263" y="-83.2842105263158"/>
      <point x="60.05263157894737" y="117.16842105263157"/>
      <point x="105.38947368421053" y="333.42105263157896" type="curve" smooth="yes"/>
      <point x="148.37894736842105" y="537.8631578947368"/>
      <point x="291.0" y="623.1368421052631"/>
      <point x="465.8421052631579" y="626.3052631578947" type="curve"/>
      <point x="687.9789473684211" y="623.1368421052631"/>
      <point x="814.6315789473684" y="457.3578947368421"/>
      <point x="773.8" y="251.2842105263158" type="curve" smooth="yes"/>
      <point x="758.2210526315789" y="173.30526315789473"/>
      <point x="686.2526315789473" y="101.7578947368421"/>
      <point x="637.9368421052632" y="101.42105263157895" type="curve"/>
      <point x="582.9578947368421" y="103.58947368421052"/>
      <point x="561.2210526315789" y="133.92631578947368"/>
      <point x="573.9684210526316" y="197.32631578947368" type="curve"/>
      <point x="595.1263157894737" y="299.2" type="line"/>
      <point x="608.2105263157895" y="359.4421052631579"/>
      <point x="622.4631578947369" y="418.0210526315789"/>
      <point x="641.8" y="479.0105263157895" type="curve"/>
      <point x="599.0947368421052" y="475.58947368421053" type="line"/>
      <point x="583.0105263157894" y="421.01052631578943" type="line"/>
      <point x="577.3368421052631" y="421.01052631578943" type="line"/>
      <point x="547.0947368421052" y="454.85263157894735"/>
      <point x="489.52631578947364" y="484.9263157894737"/>
      <point x="439.0421052631579" y="484.9263157894737" type="curve" smooth="yes"/>
      <point x="345.2105263157895" y="484.9263157894737"/>
      <point x="272.30526315789473" y="414.4947368421053"/>
      <point x="248.7263157894737" y="301.17894736842106" type="curve" smooth="yes"/>
      <point x="223.6421052631579" y="182.0842105263158"/>
      <point x="270.65263157894736" y="72.49473684210527"/>
      <point x="390.4736842105263" y="72.49473684210527" type="curve" smooth="yes"/>
      <point x="433.2105263157895" y="72.49473684210527"/>
      <point x="481.12631578947367" y="94.66315789473684"/>
      <point x="526.0315789473684" y="140.2421052631579" type="curve"/>
      <point x="531.6210526315789" y="140.2421052631579" type="line"/>
      <point x="539.2210526315789" y="102.73684210526316"/>
      <point x="568.421052631579" y="62.66315789473684"/>
      <point x="643.8421052631579" y="62.66315789473684" type="curve" smooth="yes"/>
      <point x="691.6842105263157" y="62.66315789473684"/>
      <point x="791.2947368421053" y="135.31578947368422"/>
      <point x="812.0526315789473" y="243.6" type="curve" smooth="yes"/>
      <point x="855.7263157894737" y="472.87368421052633"/>
      <point x="707.7052631578947" y="664.8"/>
      <point x="466.9263157894737" y="664.8" type="curve" smooth="yes"/>
      <point x="276.2526315789474" y="664.8"/>
      <point x="111.89473684210526" y="563.2947368421053"/>
      <point x="66.30526315789474" y="339.5263157894737" type="curve" smooth="yes"/>
      <point x="18.126315789473683" y="104.97894736842105"/>
      <point x="163.23157894736843" y="-124.94736842105263"/>
    </contour>
    <contour>
      <point x="398.7684210526316" y="112.6842105263158" type="curve"/>
      <point x="304.5052631578947" y="114.6842105263158"/>
      <point x="269.69473684210527" y="193.38947368421054"/>
      <point x="291.2631578947368" y="295.7368421052632" type="curve" smooth="yes"/>
      <point x="309.2526315789474" y="380.10526315789474"/>
      <point x="359.38947368421054" y="441.4842105263158"/>
      <point x="444.8315789473684" y="443.5684210526316" type="curve"/>
      <point x="492.63157894736844" y="444.3157894736842"/>
      <point x="537.1789473684211" y="418.2526315789474"/>
      <point x="570.4842105263158" y="383.86315789473684" type="curve"/>
      <point x="530.421052631579" y="197.78947368421052" type="line"/>
      <point x="486.7894736842105" y="138.0842105263158"/>
      <point x="438.3263157894737" y="114.6842105263158"/>
    </contour>
  </outline>
</glyph>
<glyph name="A" format="2">
  <advance width="675.1578947368421"/>
  <unicode hex="0041"/>
  <anchor x="337.62105263157895" y="0.0" name="bottom"/>
  <anchor x="644.9368421052632" y="0.0" name="ogonek"/>
  <anchor x="337.62105263157895" y="713.0" name="top"/>
  <outline>
    <contour>
      <point x="28.05263157894737" y="0.0" type="curve"/>
      <point x="90.6" y="0.0" type="line"/>
      <point x="120.82105263157894" y="87.97894736842105"/>
      <point x="155.29473684210527" y="183.21052631578948"/>
      <point x="187.61052631578946" y="269.3578947368421" type="curve"/>
      <point x="335.86315789473684" y="662.9368421052632" type="line"/>
      <point x="342.7052631578947" y="662.9368421052632" type="line"/>
      <point x="489.9578947368421" y="266.2736842105263" type="line"/>
      <point x="520.3578947368421" y="184.0421052631579"/>
      <point x="554.2526315789473" y="87.23157894736842"/>
      <point x="583.3894736842105" y="0.0" type="curve"/>
      <point x="646.357894736842" y="0.0" type="line"/>
      <point x="613.3578947368421" y="76.0"/>
      <point x="580.4421052631579" y="162.0"/>
      <point x="551.0315789473684" y="241.0" type="curve"/>
      <point x="458.9684210526316" y="486.9157894736842" type="line"/>
      <point x="425.7263157894737" y="574.7473684210527"/>
      <point x="401.7368421052631" y="640.6631578947369"/>
      <point x="379.16842105263163" y="713.0" type="curve"/>
      <point x="299.90526315789475" y="713.0" type="line"/>
      <point x="276.5052631578947" y="641.0"/>
      <point x="252.43157894736842" y="575.0"/>
      <point x="219.10526315789474" y="486.9157894736842" type="curve"/>
      <point x="126.12631578947368" y="241.9157894736842" type="line"/>
      <point x="96.8" y="165.0"/>
      <point x="61.22105263157895" y="76.91578947368421"/>
    </contour>
    <contour>
      <point x="144.7473684210526" y="195.67368421052632" type="line"/>
      <point x="533.6842105263158" y="195.67368421052632" type="line"/>
      <point x="531.7473684210527" y="238.30526315789473" type="line"/>
      <point x="147.10526315789474" y="238.30526315789473" type="line"/>
    </contour>
  </outline>
</glyph>
<glyph name="B" format="2">
  <advance width="637.4137931034484"/>
  <unicode hex="0042"/>
  <outline>
    <contour>
      <point x="311.8390804597701" y="-1.735632183908046" type="curve"/>
      <point x="522.2528735632184" y="-1.735632183908046"/>
      <point x="590.8045977011494" y="86.08045977011494"/>
      <point x="590.8045977011494" y="193.91954022988506" type="curve" smooth="yes"/>
      <point x="590.8045977011494" y="306.81609195402297"/>
      <point x="515.0114942528736" y="352.0"/>
      <point x="448.0689655172414" y="364.1034482758621" type="curve"/>
      <point x="448.0689655172414" y="371.02298850574715" type="line"/>
      <point x="517.8045977011494" y="395.1034482758621"/>
      <point x="570.3563218390805" y="451.91954022988506"/>
      <point x="570.3563218390805" y="542.919540229885" type="curve" smooth="yes"/>
      <point x="570.3563218390805" y="650.5517241379309"/>
      <point x="501.7241379310345" y="714.551724137931"/>
      <point x="353.28735632183907" y="714.551724137931" type="curve"/>
      <point x="262.44827586206895" y="714.551724137931"/>
      <point x="178.13793103448273" y="713.0"/>
      <point x="101.56321839080461" y="713.0" type="curve"/>
      <point x="104.48275862068967" y="632.3678160919541"/>
      <point x="105.0344827586207" y="562.551724137931"/>
      <point x="105.0344827586207" y="475.0" type="curve"/>
      <point x="105.0344827586207" y="237.26436781609195" type="line"/>
      <point x="105.0344827586207" y="149.89655172413794"/>
      <point x="104.48275862068967" y="80.44827586206897"/>
      <point x="101.56321839080461" y="0.0" type="curve"/>
      <point x="170.58620689655172" y="0.0"/>
      <point x="216.0" y="-1.735632183908046"/>
    </contour>
    <contour>
      <point x="156.6896551724138" y="44.60919540229885" type="line"/>
      <point x="154.6896551724138" y="109.11494252873564"/>
      <point x="154.50574712643677" y="169.17241379310346"/>
      <point x="154.50574712643677" y="242.41379310344828" type="curve"/>
      <point x="154.50574712643677" y="469.48275862068965" type="line"/>
      <point x="154.50574712643677" y="543.0919540229885"/>
      <point x="154.6896551724138" y="603.5172413793103"/>
      <point x="156.6896551724138" y="668.3908045977012" type="curve"/>
      <point x="349.81609195402297" y="668.3908045977012" type="line" smooth="yes"/>
      <point x="460.82758620689657" y="668.3908045977012"/>
      <point x="518.7816091954023" y="630.0459770114943"/>
      <point x="518.7816091954023" y="536.8505747126437" type="curve" smooth="yes"/>
      <point x="518.7816091954023" y="457.632183908046"/>
      <point x="466.54022988505744" y="383.88505747126436"/>
      <point x="335.55172413793105" y="383.88505747126436" type="curve" smooth="yes"/>
      <point x="144.0919540229885" y="383.88505747126436" type="line"/>
      <point x="144.0919540229885" y="340.82758620689657" type="line"/>
      <point x="332.2068965517241" y="340.82758620689657" type="line" smooth="yes"/>
      <point x="461.74712643678157" y="340.82758620689657"/>
      <point x="539.0459770114943" y="301.0344827586207"/>
      <point x="539.0459770114943" y="195.94252873563218" type="curve" smooth="yes"/>
      <point x="539.0459770114943" y="103.01149425287356"/>
      <point x="478.7241379310345" y="44.60919540229885"/>
      <point x="314.86206896551727" y="44.60919540229885" type="curve" smooth="yes"/>
    </contour>
  </outline>
</glyph>
<glyph name="C" format="2">
  <advance width="685.578947368421"/>
  <unicode hex="0043"/>
  <anchor x="400.3263157894737" y="0.0" name="bottom"/>
  <anchor x="391.1684210526316" y="713.0" name="top"/>
  <outline>
    <contour>
      <point x="416.57894736842104" y="-9.589473684210526" type="curve" smooth="yes"/>
      <point x="486.8421052631579" y="-9.589473684210526"/>
      <point x="567.3473684210527" y="10.663157894736843"/>
      <point x="626.4315789473684" y="40.14736842105263" type="curve"/>
      <point x="620.0105263157894" y="94.97894736842105" type="line"/>
      <point x="558.8421052631578" y="58.473684210526315"/>
      <point x="484.4210526315789" y="37.305263157894736"/>
      <point x="417.61052631578946" y="37.305263157894736" type="curve"/>
      <point x="214.77894736842106" y="40.38947368421052"/>
      <point x="108.74736842105263" y="180.66315789473686"/>
      <point x="108.74736842105263" y="357.7473684210526" type="curve" smooth="yes"/>
      <point x="108.74736842105263" y="552.5052631578948"/>
      <point x="231.44210526315788" y="674.7684210526315"/>
      <point x="401.66315789473686" y="677.8526315789474" type="curve"/>
      <point x="441.57894736842104" y="677.8526315789474"/>
      <point x="526.1578947368422" y="659.6842105263158"/>
      <point x="626.1684210526315" y="614.1789473684211" type="curve"/>
      <point x="632.1789473684211" y="668.1789473684211" type="line"/>
      <point x="574.0105263157894" y="691.8421052631579"/>
      <point x="479.4315789473684" y="725.3368421052631"/>
      <point x="402.7473684210526" y="725.3368421052631" type="curve" smooth="yes"/>
      <point x="202.45263157894738" y="725.3368421052631"/>
      <point x="56.96842105263158" y="575.2421052631579"/>
      <point x="56.96842105263158" y="358.57894736842104" type="curve" smooth="yes"/>
      <point x="56.96842105263158" y="150.6421052631579"/>
      <point x="193.23157894736843" y="-9.589473684210526"/>
    </contour>
  </outline>
</glyph>
<glyph name="D" format="2">
  <advance width="738.6631578947369"/>
  <unicode hex="0044"/>
  <anchor x="350.42105263157896" y="0.0" name="bottom"/>
  <anchor x="369.8315789473684" y="357.0" name="center"/>
  <anchor x="350.42105263157896" y="713.0" name="top"/>
  <outline>
    <contour>
      <point x="101.6" y="0.0" type="curve"/>
      <point x="179.02105263157895" y="0.0"/>
      <point x="233.81052631578947" y="-1.6736842105263157"/>
      <point x="315.7578947368421" y="-1.6736842105263157" type="curve"/>
      <point x="581.7789473684211" y="-1.6736842105263157"/>
      <point x="681.6947368421053" y="158.74736842105264"/>
      <point x="681.6947368421053" y="359.8315789473684" type="curve" smooth="yes"/>
      <point x="681.6947368421053" y="580.5894736842105"/>
      <point x="558.4421052631579" y="714.5052631578948"/>
      <point x="337.11578947368423" y="714.5052631578948" type="curve"/>
      <point x="259.7368421052631" y="714.5052631578948"/>
      <point x="195.58947368421053" y="713.0"/>
      <point x="101.6" y="713.0" type="curve"/>
      <point x="104.4421052631579" y="632.3368421052631"/>
      <point x="105.03157894736842" y="562.5894736842105"/>
      <point x="105.03157894736842" y="474.9157894736842" type="curve"/>
      <point x="105.03157894736842" y="237.2421052631579" type="line"/>
      <point x="105.03157894736842" y="149.90526315789472"/>
      <point x="104.4421052631579" y="80.41052631578947"/>
    </contour>
    <contour>
      <point x="157.30526315789473" y="44.642105263157895" type="line"/>
      <point x="155.22105263157894" y="109.18947368421053"/>
      <point x="155.05263157894737" y="169.41052631578947"/>
      <point x="155.05263157894737" y="242.6315789473684" type="curve"/>
      <point x="155.05263157894737" y="469.69473684210527" type="line"/>
      <point x="155.05263157894737" y="543.2526315789473"/>
      <point x="155.22105263157894" y="603.5578947368421"/>
      <point x="157.30526315789473" y="668.3578947368421" type="curve"/>
      <point x="328.91578947368424" y="668.3578947368421" type="line"/>
      <point x="542.4736842105264" y="665.1052631578948"/>
      <point x="629.9157894736842" y="547.4947368421052"/>
      <point x="629.9157894736842" y="361.0" type="curve" smooth="yes"/>
      <point x="629.9157894736842" y="180.66315789473686"/>
      <point x="553.7157894736843" y="47.97894736842105"/>
      <point x="316.58947368421053" y="44.642105263157895" type="curve"/>
    </contour>
  </outline>
</glyph>
<glyph name="E" format="2">
  <advance width="592.1034482758621"/>
  <unicode hex="0045"/>
  <anchor x="318.5287356321839" y="0.0" name="bottom"/>
  <anchor x="530.5747126436781" y="0.0" name="ogonek"/>
  <anchor x="318.5287356321839" y="713.0" name="top"/>
  <anchor x="37.0" y="713.0" name="topleft"/>
  <outline>
    <contour>
      <point x="101.56321839080461" y="0.0" type="curve"/>
      <point x="158.97701149425288" y="0.0" type="line"/>
      <point x="158.97701149425288" y="6.942528735632184" type="line"/>
      <point x="155.05747126436782" y="87.39080459770115"/>
      <point x="154.50574712643677" y="157.02298850574712"/>
      <point x="154.50574712643677" y="244.20689655172413" type="curve"/>
      <point x="154.50574712643677" y="468.8735632183908" type="line"/>
      <point x="154.50574712643677" y="556.4252873563219"/>
      <point x="155.05747126436782" y="626.2413793103449"/>
      <point x="158.97701149425288" y="706.8735632183908" type="curve"/>
      <point x="158.97701149425288" y="713.0" type="line"/>
      <point x="101.56321839080461" y="713.0" type="line"/>
      <point x="104.48275862068967" y="632.3678160919541"/>
      <point x="105.0344827586207" y="562.551724137931"/>
      <point x="105.0344827586207" y="475.0" type="curve"/>
      <point x="105.0344827586207" y="237.26436781609195" type="line"/>
      <point x="105.0344827586207" y="149.89655172413794"/>
      <point x="104.48275862068967" y="80.44827586206897"/>
    </contour>
    <contour>
      <point x="146.85057471264366" y="0.0" type="line"/>
      <point x="531.1264367816092" y="0.0" type="line"/>
      <point x="531.1264367816092" y="50.632183908045974" type="line"/>
      <point x="455.5977011494253" y="46.52873563218391"/>
      <point x="375.2528735632184" y="45.3448275862069"/>
      <point x="284.0919540229885" y="45.3448275862069" type="curve"/>
      <point x="146.85057471264366" y="45.3448275862069" type="line"/>
    </contour>
    <contour>
      <point x="144.2758620689655" y="339.82758620689657" type="line"/>
      <point x="286.4367816091954" y="339.82758620689657" type="line"/>
      <point x="379.14942528735634" y="339.82758620689657"/>
      <point x="441.41379310344826" y="339.64367816091954"/>
      <point x="509.49425287356325" y="338.09195402298855" type="curve"/>
      <point x="509.49425287356325" y="388.17241379310343" type="line"/>
      <point x="445.2298850574713" y="384.62068965517244"/>
      <point x="382.14942528735634" y="384.4367816091954"/>
      <point x="287.2528735632184" y="384.4367816091954" type="curve"/>
      <point x="144.2758620689655" y="384.4367816091954" type="line"/>
    </contour>
    <contour>
      <point x="145.56321839080462" y="667.6551724137931" type="line"/>
      <point x="278.98850574712645" y="667.6551724137931" type="line"/>
      <point x="386.9655172413793" y="667.6551724137931"/>
      <point x="461.67816091954023" y="666.2873563218391"/>
      <point x="531.3908045977012" y="662.3678160919541" type="curve"/>
      <point x="531.3908045977012" y="713.0" type="line"/>
      <point x="145.56321839080462" y="713.0" type="line"/>
    </contour>
  </outline>
</glyph>
<glyph name="F" format="2">
  <advance width="572.2631578947369"/>
  <unicode hex="0046"/>
  <outline>
    <contour>
      <point x="101.6" y="0.0" type="curve"/>
      <point x="158.89473684210526" y="0.0" type="line"/>
      <point x="155.05263157894737" y="80.41052631578947"/>
      <point x="154.54736842105265" y="149.90526315789472"/>
      <point x="154.54736842105265" y="237.2421052631579" type="curve"/>
      <point x="154.54736842105265" y="468.8" type="line"/>
      <point x="154.54736842105265" y="556.4736842105264"/>
      <point x="155.05263157894737" y="626.2210526315789"/>
      <point x="158.89473684210526" y="706.8842105263158" type="curve"/>
      <point x="158.89473684210526" y="713.0" type="line"/>
      <point x="101.6" y="713.0" type="line"/>
      <point x="104.4421052631579" y="632.3368421052631"/>
      <point x="105.03157894736842" y="562.5894736842105"/>
      <point x="105.03157894736842" y="474.9157894736842" type="curve"/>
      <point x="105.03157894736842" y="237.2421052631579" type="line"/>
      <point x="105.03157894736842" y="149.90526315789472"/>
      <point x="104.4421052631579" y="80.41052631578947"/>
    </contour>
    <contour>
      <point x="143.74736842105264" y="338.41052631578947" type="line"/>
      <point x="276.7368421052632" y="338.41052631578947" type="line"/>
      <point x="369.4736842105263" y="338.41052631578947"/>
      <point x="431.7157894736842" y="338.2421052631579"/>
      <point x="499.7894736842105" y="336.56842105263155" type="curve"/>
      <point x="499.7894736842105" y="386.81052631578945" type="line"/>
      <point x="435.63157894736844" y="383.2210526315789"/>
      <point x="372.4736842105263" y="383.05263157894734"/>
      <point x="277.65263157894736" y="383.05263157894734" type="curve"/>
      <point x="143.74736842105264" y="383.05263157894734" type="line"/>
    </contour>
    <contour>
      <point x="145.09473684210528" y="667.6" type="line"/>
      <point x="269.4947368421053" y="667.6" type="line"/>
      <point x="377.4736842105263" y="667.6"/>
      <point x="452.1263157894737" y="666.1789473684211"/>
      <point x="521.8631578947369" y="662.421052631579" type="curve"/>
      <point x="521.8631578947369" y="713.0" type="line"/>
      <point x="145.09473684210528" y="713.0" type="line"/>
    </contour>
  </outline>
</glyph>
<glyph name="G" format="2">
  <advance width="735.7368421052631"/>
  <unicode hex="0047"/>
  <anchor x="400.3263157894737" y="0.0" name="bottom"/>
  <anchor x="400.3263157894737" y="713.0" name="top"/>
  <outline>
    <contour>
      <point x="434.14736842105265" y="-9.505263157894737" type="curve" smooth="yes"/>
      <point x="524.8210526315789" y="-9.505263157894737"/>
      <point x="613.021052631579" y="14.157894736842104"/>
      <point x="662.5263157894736" y="33.14736842105263" type="curve"/>
      <point x="653.6631578947369" y="87.22105263157894" type="line"/>
      <point x="588.2421052631579" y="51.05263157894737"/>
      <point x="506.85263157894735" y="36.88421052631579"/>
      <point x="436.0842105263158" y="36.88421052631579" type="curve"/>
      <point x="208.2842105263158" y="39.96842105263158"/>
      <point x="108.57894736842105" y="177.57894736842104"/>
      <point x="108.57894736842105" y="358.57894736842104" type="curve" smooth="yes"/>
      <point x="108.57894736842105" y="554.5052631578948"/>
      <point x="231.03157894736842" y="674.8526315789474"/>
      <point x="407.15789473684214" y="677.8526315789474" type="curve"/>
      <point x="448.32631578947365" y="677.8526315789474"/>
      <point x="536.3263157894736" y="659.6842105263158"/>
      <point x="641.0105263157894" y="614.1789473684211" type="curve"/>
      <point x="647.021052631579" y="668.0947368421052" type="line"/>
      <point x="585.6" y="691.7578947368421"/>
      <point x="487.5157894736842" y="725.3368421052631"/>
      <point x="407.3263157894737" y="725.3368421052631" type="curve" smooth="yes"/>
      <point x="198.6315789473684" y="725.3368421052631"/>
      <point x="56.96842105263158" y="572.3368421052631"/>
      <point x="56.96842105263158" y="358.66315789473686" type="curve" smooth="yes"/>
      <point x="56.96842105263158" y="151.4842105263158"/>
      <point x="185.65263157894736" y="-9.505263157894737"/>
    </contour>
    <contour>
      <point x="608.5894736842106" y="33.14736842105263" type="curve"/>
      <point x="662.5263157894736" y="33.14736842105263" type="line"/>
      <point x="659.9368421052632" y="101.07368421052632"/>
      <point x="659.7684210526315" y="149.74736842105264"/>
      <point x="659.7684210526315" y="200.58947368421053" type="curve"/>
      <point x="659.7684210526315" y="261.34736842105264"/>
      <point x="660.2736842105263" y="303.93684210526317"/>
      <point x="663.1999999999999" y="351.69473684210527" type="curve"/>
      <point x="606.8315789473685" y="351.69473684210527" type="line"/>
      <point x="609.6736842105263" y="303.93684210526317"/>
      <point x="611.1789473684211" y="261.34736842105264"/>
      <point x="611.1789473684211" y="200.58947368421053" type="curve"/>
      <point x="611.1789473684211" y="149.74736842105264"/>
      <point x="610.9263157894737" y="101.07368421052632"/>
    </contour>
  </outline>
</glyph>
<glyph name="I" format="2">
  <advance width="262.2631578947368"/>
  <unicode hex="0049"/>
  <anchor x="130.29473684210527" y="0.0" name="bottom"/>
  <anchor x="159.82105263157894" y="0.0" name="ogonek"/>
  <anchor x="130.29473684210527" y="713.0" name="top"/>
  <anchor x="36.49473684210526" y="713.0" name="topleft"/>
  <outline>
    <contour>
      <point x="102.02105263157894" y="0.0" type="curve"/>
      <point x="160.24210526315787" y="0.0" type="line"/>
      <point x="156.39999999999998" y="80.41052631578947"/>
      <point x="155.89473684210526" y="149.90526315789472"/>
      <point x="155.89473684210526" y="237.2421052631579" type="curve"/>
      <point x="155.89473684210526" y="474.9157894736842" type="line"/>
      <point x="155.89473684210526" y="562.5894736842105"/>
      <point x="156.39999999999998" y="632.3368421052631"/>
      <point x="160.24210526315787" y="713.0" type="curve"/>
      <point x="102.02105263157894" y="713.0" type="line"/>
      <point x="104.86315789473684" y="632.3368421052631"/>
      <point x="105.45263157894736" y="562.5894736842105"/>
      <point x="105.45263157894736" y="474.9157894736842" type="curve"/>
      <point x="105.45263157894736" y="237.2421052631579" type="line"/>
      <point x="105.45263157894736" y="149.90526315789472"/>
      <point x="104.86315789473684" y="80.41052631578947"/>
    </contour>
  </outline>
</glyph>
<glyph name="J" format="2">
  <advance width="278.2421052631579"/>
  <unicode hex="004A"/>
  <anchor x="145.69473684210527" y="0.0" name="bottom"/>
  <anchor x="145.69473684210527" y="713.0" name="top"/>
  <outline>
    <contour>
      <point x="23.05263157894737" y="-159.32631578947368" type="curve"/>
      <point x="87.63157894736842" y="-159.32631578947368" type="line"/>
      <point x="123.8" y="-114.15789473684211"/>
      <point x="173.96842105263158" y="-40.32631578947368"/>
      <point x="173.96842105263158" y="57.93684210526315" type="curve" smooth="yes"/>
      <point x="173.96842105263158" y="125.12631578947368"/>
      <point x="171.8736842105263" y="198.31578947368422"/>
      <point x="171.8736842105263" y="277.2526315789474" type="curve"/>
      <point x="171.8736842105263" y="474.9157894736842" type="line"/>
      <point x="171.8736842105263" y="562.5894736842105"/>
      <point x="172.37894736842105" y="632.3368421052631"/>
      <point x="176.22105263157894" y="713.0" type="curve"/>
      <point x="118.42105263157895" y="713.0" type="line"/>
      <point x="121.26315789473685" y="632.3368421052631"/>
      <point x="121.85263157894737" y="562.5894736842105"/>
      <point x="121.85263157894737" y="474.9157894736842" type="curve"/>
      <point x="121.85263157894737" y="248.86315789473684" type="line"/>
      <point x="120.93684210526315" y="61.694736842105264" type="line"/>
      <point x="120.93684210526315" y="-33.37894736842106"/>
      <point x="79.21052631578947" y="-97.14736842105263"/>
    </contour>
  </outline>
</glyph>
<glyph name="K" format="2">
  <advance width="654.3263157894736"/>
  <unicode hex="004B"/>
  <anchor x="335.70526315789476" y="0.0" name="bottom"/>
  <anchor x="335.70526315789476" y="713.0" name="top"/>
  <outline>
    <contour>
      <point x="548.7894736842105" y="0.0" type="curve"/>
      <point x="626.7789473684211" y="0.0" type="line"/>
      <point x="560.2947368421053" y="59.589473684210525"/>
      <point x="458.41052631578947" y="154.61052631578949"/>
      <point x="383.021052631579" y="225.9578947368421" type="curve"/>
      <point x="220.57894736842107" y="380.90526315789475" type="line"/>
      <point x="221.0" y="358.9894736842105" type="line"/>
      <point x="366.11578947368423" y="494.57894736842104" type="line"/>
      <point x="443.5052631578947" y="566.0"/>
      <point x="520.8105263157895" y="637.2526315789474"/>
      <point x="605.7052631578947" y="713.0" type="curve"/>
      <point x="529.7263157894737" y="713.0" type="line"/>
      <point x="449.0421052631579" y="634.6"/>
      <point x="391.8315789473684" y="580.6105263157895"/>
      <point x="326.70526315789476" y="519.9578947368421" type="curve"/>
      <point x="188.0421052631579" y="390.0736842105263" type="line"/>
      <point x="146.29473684210527" y="390.0736842105263" type="line"/>
      <point x="146.29473684210527" y="345.7684210526316" type="line"/>
      <point x="187.46315789473687" y="345.7684210526316" type="line"/>
      <point x="349.10526315789474" y="192.6315789473684" type="line"/>
      <point x="412.06315789473683" y="133.7263157894737"/>
      <point x="474.0210526315789" y="72.90526315789474"/>
    </contour>
    <contour>
      <point x="101.6" y="0.0" type="curve"/>
      <point x="159.3157894736842" y="0.0" type="line"/>
      <point x="155.4736842105263" y="80.41052631578947"/>
      <point x="154.96842105263158" y="149.90526315789472"/>
      <point x="154.96842105263158" y="237.2421052631579" type="curve"/>
      <point x="154.96842105263158" y="474.9157894736842" type="line"/>
      <point x="154.96842105263158" y="562.5894736842105"/>
      <point x="155.4736842105263" y="632.3368421052631"/>
      <point x="159.3157894736842" y="713.0" type="curve"/>
      <point x="101.6" y="713.0" type="line"/>
      <point x="104.4421052631579" y="632.3368421052631"/>
      <point x="105.03157894736842" y="562.5894736842105"/>
      <point x="105.03157894736842" y="474.9157894736842" type="curve"/>
      <point x="105.03157894736842" y="237.2421052631579" type="line"/>
      <point x="105.03157894736842" y="149.90526315789472"/>
      <point x="104.4421052631579" y="80.41052631578947"/>
    </contour>
  </outline>
</glyph>
<glyph name="L" format="2">
  <advance width="567.0947368421052"/>
  <unicode hex="004C"/>
  <anchor x="317.2315789473684" y="0.0" name="bottom"/>
  <anchor x="415.62105263157895" y="357.2526315789474" name="center"/>
  <anchor x="188.31578947368422" y="713.0" name="top"/>
  <anchor x="272.88421052631577" y="494.6736842105263" name="topright"/>
  <outline>
    <contour>
      <point x="101.6" y="0.0" type="curve"/>
      <point x="159.39999999999998" y="0.0" type="line"/>
      <point x="159.39999999999998" y="7.031578947368422" type="line"/>
      <point x="155.5578947368421" y="87.4421052631579"/>
      <point x="155.05263157894737" y="156.93684210526317"/>
      <point x="155.05263157894737" y="244.2736842105263" type="curve"/>
      <point x="155.05263157894737" y="474.9157894736842" type="line"/>
      <point x="155.05263157894737" y="562.5894736842105"/>
      <point x="155.5578947368421" y="632.3368421052631"/>
      <point x="159.39999999999998" y="713.0" type="curve"/>
      <point x="101.6" y="713.0" type="line"/>
      <point x="104.4421052631579" y="632.3368421052631"/>
      <point x="105.03157894736842" y="562.5894736842105"/>
      <point x="105.03157894736842" y="474.9157894736842" type="curve"/>
      <point x="105.03157894736842" y="237.2421052631579" type="line"/>
      <point x="105.03157894736842" y="149.90526315789472"/>
      <point x="104.4421052631579" y="80.41052631578947"/>
    </contour>
    <contour>
      <point x="146.86315789473684" y="0.0" type="line"/>
      <point x="530.2736842105263" y="0.0" type="line"/>
      <point x="530.2736842105263" y="52.01052631578948" type="line"/>
      <point x="448.1263157894737" y="47.83157894736842"/>
      <point x="378.64210526315793" y="46.242105263157896"/>
      <point x="258.33684210526314" y="46.242105263157896" type="curve"/>
      <point x="146.86315789473684" y="46.242105263157896" type="line"/>
    </contour>
  </outline>
</glyph>
<glyph name="M" format="2">
  <advance width="951.7684210526315"/>
  <unicode hex="004D"/>
  <anchor x="475.84210526315786" y="0.0" name="bottom"/>
  <anchor x="475.84210526315786" y="713.0" name="top"/>
  <outline>
    <contour>
      <point x="70.86315789473684" y="0.0" type="curve"/>
      <point x="129.2315789473684" y="0.0" type="line"/>
      <point x="142.21052631578948" y="140.6"/>
      <point x="156.77894736842106" y="268.70526315789476"/>
      <point x="170.18947368421053" y="378.7368421052632" type="curve"/>
      <point x="198.92631578947368" y="616.0421052631579" type="line"/>
      <point x="203.02105263157895" y="616.0421052631579" type="line"/>
      <point x="310.0421052631579" y="357.9157894736842" type="line"/>
      <point x="359.34736842105264" y="238.38947368421051"/>
      <point x="414.30526315789473" y="100.12631578947368"/>
      <point x="454.27368421052637" y="0.0" type="curve"/>
      <point x="499.2526315789474" y="0.0" type="line"/>
      <point x="540.9684210526316" y="107.36842105263158"/>
      <point x="593.0105263157895" y="236.38947368421051"/>
      <point x="643.7263157894737" y="359.7473684210526" type="curve"/>
      <point x="749.821052631579" y="616.0421052631579" type="line"/>
      <point x="753.9157894736843" y="616.0421052631579" type="line"/>
      <point x="782.6526315789474" y="378.7368421052632" type="line"/>
      <point x="796.063157894737" y="268.70526315789476"/>
      <point x="809.7157894736841" y="140.5157894736842"/>
      <point x="822.778947368421" y="0.0" type="curve"/>
      <point x="880.9052631578948" y="0.0" type="line"/>
      <point x="868.1473684210526" y="80.32631578947368"/>
      <point x="858.5578947368422" y="151.1578947368421"/>
      <point x="848.4736842105264" y="237.2421052631579" type="curve"/>
      <point x="820.1368421052632" y="472.9157894736842" type="line"/>
      <point x="809.1368421052632" y="560.7473684210526"/>
      <point x="801.3894736842104" y="631.3368421052631"/>
      <point x="794.0631578947368" y="713.0" type="curve"/>
      <point x="734.7684210526315" y="713.0" type="line"/>
      <point x="693.0526315789474" y="600.4631578947368"/>
      <point x="651.0" y="496.6"/>
      <point x="607.4421052631579" y="392.4842105263158" type="curve"/>
      <point x="479.59999999999997" y="83.8" type="line"/>
      <point x="474.6736842105263" y="83.8" type="line"/>
      <point x="346.41052631578947" y="392.4842105263158" type="line"/>
      <point x="302.7684210526316" y="496.6"/>
      <point x="260.46315789473687" y="600.5473684210526"/>
      <point x="218.7473684210526" y="713.0" type="curve"/>
      <point x="158.1157894736842" y="713.0" type="line"/>
      <point x="151.78947368421052" y="630.3368421052631"/>
      <point x="144.12631578947367" y="558.9157894736842"/>
      <point x="133.12631578947367" y="472.9157894736842" type="curve"/>
      <point x="104.0421052631579" y="237.2421052631579" type="line"/>
      <point x="93.0421052631579" y="150.32631578947368"/>
      <point x="83.45263157894738" y="80.07368421052632"/>
    </contour>
  </outline>
</glyph>
<glyph name="N" format="2">
  <advance width="757.8315789473684"/>
  <unicode hex="004E"/>
  <anchor x="379.0" y="0.0" name="bottom"/>
  <anchor x="379.0" y="713.0" name="top"/>
  <outline>
    <contour>
      <point x="101.6" y="0.0" type="curve"/>
      <point x="157.96842105263156" y="0.0" type="line"/>
      <point x="154.12631578947367" y="80.41052631578947"/>
      <point x="153.62105263157895" y="149.90526315789472"/>
      <point x="153.62105263157895" y="237.2421052631579" type="curve"/>
      <point x="153.62105263157895" y="625.4421052631579" type="line"/>
      <point x="158.63157894736844" y="625.4421052631579" type="line"/>
      <point x="334.5368421052632" y="378.4842105263158" type="line"/>
      <point x="439.89473684210526" y="230.89473684210526"/>
      <point x="524.2631578947368" y="111.62105263157895"/>
      <point x="601.2947368421052" y="0.0" type="curve"/>
      <point x="656.2315789473683" y="0.0" type="line"/>
      <point x="652.3894736842105" y="80.41052631578947"/>
      <point x="651.8842105263158" y="149.90526315789472"/>
      <point x="651.8842105263158" y="237.2421052631579" type="curve"/>
      <point x="651.8842105263158" y="474.9157894736842" type="line"/>
      <point x="651.8842105263158" y="562.5894736842105"/>
      <point x="652.3894736842105" y="632.3368421052631"/>
      <point x="656.2315789473683" y="713.0" type="curve"/>
      <point x="599.8631578947369" y="713.0" type="line"/>
      <point x="602.7052631578947" y="632.3368421052631"/>
      <point x="603.2947368421053" y="562.5894736842105"/>
      <point x="603.2947368421053" y="474.9157894736842" type="curve"/>
      <point x="603.2947368421053" y="91.22105263157894" type="line"/>
      <point x="598.2" y="91.22105263157894" type="line"/>
      <point x="422.5473684210526" y="336.2631578947368" type="line"/>
      <point x="336.17894736842106" y="456.2842105263158"/>
      <point x="249.4" y="580.3894736842104"/>
      <point x="158.12631578947367" y="713.0" type="curve"/>
      <point x="101.6" y="713.0" type="line"/>
      <point x="104.4421052631579" y="632.3368421052631"/>
      <point x="105.03157894736842" y="562.5894736842105"/>
      <point x="105.03157894736842" y="474.9157894736842" type="curve"/>
      <point x="105.03157894736842" y="237.2421052631579" type="line"/>
      <point x="105.03157894736842" y="149.90526315789472"/>
      <point x="104.4421052631579" y="80.41052631578947"/>
    </contour>
  </outline>
</glyph>
<glyph name="O" format="2">
  <advance width="818.3263157894737"/>
  <unicode hex="004F"/>
  <anchor x="408.7473684210526" y="0.0" name="bottom"/>
  <anchor x="408.7473684210526" y="357.0" name="center"/>
  <anchor x="496.94736842105266" y="0.0" name="ogonek"/>
  <anchor x="408.7473684210526" y="713.0" name="top"/>
  <anchor x="26.74736842105263" y="713.0" name="topleft"/>
  <anchor x="719.8105263157895" y="713.0" name="topright"/>
  <outline>
    <contour>
      <point x="412.66315789473686" y="-9.589473684210526" type="curve" smooth="yes"/>
      <point x="628.0315789473684" y="-9.589473684210526"/>
      <point x="761.3578947368421" y="147.49473684210525"/>
      <point x="761.3578947368421" y="357.8315789473684" type="curve" smooth="yes"/>
      <point x="761.3578947368421" y="562.0"/>
      <point x="634.1157894736842" y="725.3368421052631"/>
      <point x="410.3263157894737" y="725.3368421052631" type="curve" smooth="yes"/>
      <point x="190.45263157894738" y="725.3368421052631"/>
      <point x="56.96842105263158" y="564.8315789473684"/>
      <point x="56.96842105263158" y="357.7473684210526" type="curve" smooth="yes"/>
      <point x="56.96842105263158" y="158.25263157894736"/>
      <point x="178.8736842105263" y="-9.589473684210526"/>
    </contour>
    <contour>
      <point x="410.57894736842104" y="37.305263157894736" type="curve"/>
      <point x="201.1157894736842" y="41.642105263157895"/>
      <point x="108.74736842105263" y="186.73684210526315"/>
      <point x="108.74736842105263" y="357.8315789473684" type="curve" smooth="yes"/>
      <point x="108.74736842105263" y="528.2631578947369"/>
      <point x="205.03157894736842" y="674.1052631578948"/>
      <point x="410.57894736842104" y="678.4421052631579" type="curve"/>
      <point x="609.4631578947368" y="674.1052631578948"/>
      <point x="709.578947368421" y="539.2526315789474"/>
      <point x="709.578947368421" y="357.8315789473684" type="curve" smooth="yes"/>
      <point x="709.578947368421" y="190.4"/>
      <point x="619.9578947368421" y="41.642105263157895"/>
    </contour>
  </outline>
</glyph>
<glyph name="R" format="2">
  <advance width="662.3333333333333"/>
  <unicode hex="0052"/>
  <anchor x="331.7586206896552" y="0.0" name="bottom"/>
  <anchor x="316.2528735632184" y="713.0" name="top"/>
  <outline>
    <contour>
      <point x="556.3103448275863" y="0.0" type="curve"/>
      <point x="628.3793103448276" y="0.0" type="line"/>
      <point x="576.4827586206897" y="54.81609195402299"/>
      <point x="503.95402298850576" y="137.55172413793105"/>
      <point x="448.60919540229884" y="201.91954022988506" type="curve"/>
      <point x="327.4712643678161" y="342.28735632183907" type="line"/>
      <point x="318.01149425287355" y="317.6666666666667" type="line"/>
      <point x="502.17241379310343" y="318.6666666666667"/>
      <point x="559.0114942528736" y="414.2183908045977"/>
      <point x="559.0114942528736" y="526.8735632183908" type="curve" smooth="yes"/>
      <point x="559.0114942528736" y="657.735632183908"/>
      <point x="485.7011494252874" y="714.551724137931"/>
      <point x="328.9425287356322" y="714.551724137931" type="curve"/>
      <point x="231.02298850574712" y="714.551724137931"/>
      <point x="158.68965517241378" y="713.0"/>
      <point x="101.56321839080461" y="713.0" type="curve"/>
      <point x="137.98850574712642" y="668.3908045977012" type="line"/>
      <point x="326.39080459770116" y="668.3908045977012" type="line" smooth="yes"/>
      <point x="403.34482758620686" y="668.3908045977012"/>
      <point x="507.62068965517244" y="665.3678160919541"/>
      <point x="507.62068965517244" y="524.1149425287356" type="curve" smooth="yes"/>
      <point x="507.62068965517244" y="403.367816091954"/>
      <point x="440.2988505747126" y="355.04597701149424"/>
      <point x="290.3333333333333" y="355.04597701149424" type="curve" smooth="yes"/>
      <point x="146.19540229885055" y="355.04597701149424" type="line"/>
      <point x="146.19540229885055" y="311.2528735632184" type="line"/>
      <point x="308.74712643678157" y="311.2528735632184" type="line"/>
      <point x="276.44827586206895" y="331.91954022988506" type="line"/>
      <point x="409.42528735632186" y="176.68965517241378" type="line"/>
      <point x="458.48275862068965" y="119.97701149425288"/>
      <point x="505.9885057471264" y="62.44827586206897"/>
    </contour>
    <contour>
      <point x="101.56321839080461" y="0.0" type="curve"/>
      <point x="158.97701149425288" y="0.0" type="line"/>
      <point x="155.05747126436782" y="80.44827586206897"/>
      <point x="154.6896551724138" y="149.89655172413794"/>
      <point x="154.6896551724138" y="237.26436781609195" type="curve"/>
      <point x="154.6896551724138" y="468.8735632183908" type="line"/>
      <point x="154.6896551724138" y="556.4252873563219"/>
      <point x="155.05747126436782" y="626.2413793103448"/>
      <point x="158.97701149425288" y="706.8735632183908" type="curve"/>
      <point x="101.56321839080461" y="713.0" type="line"/>
      <point x="104.48275862068967" y="632.3678160919541"/>
      <point x="105.0344827586207" y="562.551724137931"/>
      <point x="105.0344827586207" y="475.0" type="curve"/>
      <point x="105.0344827586207" y="237.26436781609195" type="line"/>
      <point x="105.0344827586207" y="149.89655172413794"/>
      <point x="104.48275862068967" y="80.44827586206897"/>
    </contour>
  </outline>
</glyph>
<glyph name="S" format="2">
  <advance width="578.4942528735633"/>
  <unicode hex="0053"/>
  <anchor x="294.28735632183907" y="0.0" name="bottom"/>
  <anchor x="294.28735632183907" y="713.0" name="top"/>
  <outline>
    <contour>
      <point x="301.264367816092" y="-9.551724137931034" type="curve" smooth="yes"/>
      <point x="462.04597701149424" y="-9.551724137931034"/>
      <point x="532.8850574712644" y="79.08045977011494"/>
      <point x="532.8850574712644" y="187.57471264367817" type="curve" smooth="yes"/>
      <point x="532.8850574712644" y="284.62068965517244"/>
      <point x="478.7011494252874" y="332.62068965517244"/>
      <point x="306.88505747126436" y="388.88505747126436" type="curve" smooth="yes"/>
      <point x="171.8735632183908" y="433.1264367816092"/>
      <point x="114.63218390804597" y="463.8390804597701"/>
      <point x="114.63218390804597" y="542.0574712643678" type="curve" smooth="yes"/>
      <point x="114.63218390804597" y="637.7816091954023"/>
      <point x="194.93103448275863" y="676.3908045977012"/>
      <point x="286.04597701149424" y="678.3908045977012" type="curve"/>
      <point x="323.0459770114943" y="678.3908045977012"/>
      <point x="396.9655172413793" y="661.2068965517241"/>
      <point x="481.51724137931035" y="620.5747126436781" type="curve"/>
      <point x="488.4367816091954" y="675.0229885057471" type="line"/>
      <point x="436.0689655172414" y="694.919540229885"/>
      <point x="353.7586206896552" y="725.3678160919541"/>
      <point x="285.91954022988506" y="725.3678160919541" type="curve" smooth="yes"/>
      <point x="141.05747126436782" y="725.3678160919541"/>
      <point x="62.50574712643678" y="644.448275862069"/>
      <point x="62.50574712643678" y="540.9540229885057" type="curve" smooth="yes"/>
      <point x="62.50574712643678" y="436.0919540229885"/>
      <point x="141.95402298850576" y="391.54022988505744"/>
      <point x="281.48275862068965" y="346.64367816091954" type="curve" smooth="yes"/>
      <point x="409.14942528735634" y="305.85057471264366"/>
      <point x="480.9425287356322" y="272.32183908045977"/>
      <point x="480.9425287356322" y="186.10344827586206" type="curve" smooth="yes"/>
      <point x="480.9425287356322" y="76.85057471264368"/>
      <point x="400.4597701149425" y="37.60919540229885"/>
      <point x="301.08045977011494" y="37.241379310344826" type="curve"/>
      <point x="234.632183908046" y="37.241379310344826"/>
      <point x="156.42528735632183" y="58.60919540229885"/>
      <point x="77.79310344827586" y="92.60919540229885" type="curve"/>
      <point x="71.05747126436782" y="39.60919540229885" type="line"/>
      <point x="125.05747126436782" y="21.52873563218391"/>
      <point x="207.0574712643678" y="-9.551724137931034"/>
    </contour>
  </outline>
</glyph>
<glyph name="T" format="2">
  <advance width="638.1789473684211"/>
  <unicode hex="0054"/>
  <anchor x="319.58947368421053" y="0.0" name="bottom"/>
  <anchor x="319.58947368421053" y="352.11578947368423" name="center"/>
  <anchor x="319.58947368421053" y="713.0" name="top"/>
  <outline>
    <contour>
      <point x="291.14736842105265" y="0.0" type="curve"/>
      <point x="348.86315789473684" y="0.0" type="line"/>
      <point x="345.0210526315789" y="80.41052631578947"/>
      <point x="344.5157894736842" y="149.90526315789472"/>
      <point x="344.5157894736842" y="237.2421052631579" type="curve"/>
      <point x="344.5157894736842" y="468.8" type="line"/>
      <point x="344.5157894736842" y="556.4736842105264"/>
      <point x="345.93684210526317" y="626.2210526315789"/>
      <point x="348.86315789473684" y="706.8842105263158" type="curve"/>
      <point x="348.86315789473684" y="713.0" type="line"/>
      <point x="290.2315789473684" y="713.0" type="line"/>
      <point x="290.2315789473684" y="706.8842105263158" type="line"/>
      <point x="293.1578947368421" y="626.2210526315789"/>
      <point x="294.57894736842104" y="556.4736842105264"/>
      <point x="294.57894736842104" y="468.8" type="curve"/>
      <point x="294.57894736842104" y="237.2421052631579" type="line"/>
      <point x="294.57894736842104" y="149.90526315789472"/>
      <point x="294.0736842105263" y="80.41052631578947"/>
    </contour>
    <contour>
      <point x="33.73684210526316" y="660.9894736842106" type="line"/>
      <point x="91.81052631578947" y="664.2526315789473"/>
      <point x="152.8842105263158" y="666.7578947368421"/>
      <point x="236.62105263157895" y="666.7578947368421" type="curve"/>
      <point x="302.61052631578946" y="666.7578947368421" type="line"/>
      <point x="302.61052631578946" y="713.0" type="line"/>
      <point x="33.73684210526316" y="713.0" type="line"/>
    </contour>
    <contour>
      <point x="335.5684210526316" y="666.7578947368421" type="line"/>
      <point x="401.5578947368421" y="666.7578947368421" type="line"/>
      <point x="485.29473684210524" y="666.7578947368421"/>
      <point x="547.2842105263157" y="665.1684210526316"/>
      <point x="604.4421052631579" y="660.9894736842106" type="curve"/>
      <point x="604.4421052631579" y="713.0" type="line"/>
      <point x="335.5684210526316" y="713.0" type="line"/>
    </contour>
  </outline>
</glyph>
<glyph name="V" format="2">
  <advance width="674.0631578947368"/>
  <unicode hex="0056"/>
  <anchor x="337.94736842105266" y="0.0" name="bottom"/>
  <anchor x="337.94736842105266" y="713.0" name="top"/>
  <outline>
    <contour>
      <point x="299.7263157894737" y="0.0" type="curve"/>
      <point x="377.57894736842104" y="0.0" type="line"/>
      <point x="402.3157894736842" y="72.9157894736842"/>
      <point x="432.8" y="156.0842105263158"/>
      <point x="459.12631578947367" y="225.0842105263158" type="curve"/>
      <point x="543.8526315789475" y="450.0" type="line"/>
      <point x="573.0947368421054" y="527.0842105263158"/>
      <point x="612.7578947368421" y="628.5052631578947"/>
      <point x="648.0105263157895" y="713.0" type="curve"/>
      <point x="584.3578947368421" y="713.0" type="line"/>
      <point x="544.9789473684211" y="602.0315789473684"/>
      <point x="500.2631578947368" y="477.06315789473683"/>
      <point x="459.7894736842105" y="366.34736842105264" type="curve"/>
      <point x="342.11578947368423" y="53.76842105263158" type="line"/>
      <point x="335.2736842105263" y="53.76842105263158" type="line"/>
      <point x="217.18947368421053" y="365.34736842105264" type="line"/>
      <point x="175.96842105263158" y="473.4"/>
      <point x="127.50526315789473" y="603.8631578947368"/>
      <point x="89.9578947368421" y="713.0" type="curve"/>
      <point x="25.05263157894737" y="713.0" type="line"/>
      <point x="62.22105263157895" y="627.5052631578948"/>
      <point x="101.8" y="526.1684210526316"/>
      <point x="130.9578947368421" y="450.0" type="curve"/>
      <point x="217.34736842105264" y="226.0" type="line"/>
      <point x="243.50526315789475" y="158.0842105263158"/>
      <point x="275.0736842105263" y="71.08421052631579"/>
    </contour>
  </outline>
</glyph>
<glyph name="X" format="2">
  <advance width="667.3368421052631"/>
  <unicode hex="0058"/>
  <outline>
    <contour>
      <point x="38.463157894736845" y="0.0" type="curve"/>
      <point x="106.77894736842104" y="0.0" type="line"/>
      <point x="149.90526315789475" y="67.81052631578947"/>
      <point x="187.21052631578945" y="125.21052631578948"/>
      <point x="226.6" y="183.93684210526317" type="curve"/>
      <point x="320.62105263157895" y="324.22105263157897" type="line"/>
      <point x="327.4631578947368" y="324.22105263157897" type="line"/>
      <point x="428.06315789473683" y="184.85263157894738" type="line"/>
      <point x="468.4526315789474" y="128.8736842105263"/>
      <point x="511.6736842105263" y="67.81052631578947"/>
      <point x="557.6315789473684" y="0.0" type="curve"/>
      <point x="629.1263157894737" y="0.0" type="line"/>
      <point x="569.4631578947369" y="74.57894736842105"/>
      <point x="519.3052631578947" y="141.74736842105264"/>
      <point x="463.56842105263155" y="219.0842105263158" type="curve"/>
      <point x="351.4315789473684" y="374.2526315789474" type="line"/>
      <point x="351.4315789473684" y="353.63157894736844" type="line"/>
      <point x="459.82105263157894" y="513.2315789473685" type="line"/>
      <point x="498.89473684210526" y="570.821052631579"/>
      <point x="546.9684210526316" y="639.6631578947369"/>
      <point x="601.4736842105264" y="713.0" type="curve"/>
      <point x="532.2421052631579" y="713.0" type="line"/>
      <point x="488.77894736842103" y="646.5999999999999"/>
      <point x="444.9789473684211" y="578.621052631579"/>
      <point x="404.58947368421053" y="518.6421052631579" type="curve"/>
      <point x="326.4736842105263" y="403.09473684210525" type="line"/>
      <point x="319.6315789473684" y="403.09473684210525" type="line"/>
      <point x="239.5157894736842" y="517.7263157894737" type="line"/>
      <point x="198.1263157894737" y="576.7894736842105"/>
      <point x="153.2421052631579" y="643.9368421052632"/>
      <point x="108.77894736842106" y="713.0" type="curve"/>
      <point x="39.126315789473686" y="713.0" type="line"/>
      <point x="99.12631578947368" y="633.1684210526315"/>
      <point x="146.03157894736842" y="566.7473684210527"/>
      <point x="192.85263157894735" y="500.41052631578947" type="curve"/>
      <point x="295.0736842105263" y="354.1578947368421" type="line"/>
      <point x="295.0736842105263" y="374.10526315789474" type="line"/>
      <point x="178.3578947368421" y="200.26315789473685" type="line"/>
      <point x="129.62105263157892" y="127.67368421052632"/>
      <point x="84.63157894736841" y="63.421052631578945"/>
    </contour>
  </outline>
</glyph>
<glyph name="Y" format="2">
  <advance width="636.2421052631579"/>
  <unicode hex="0059"/>
  <anchor x="318.87368421052633" y="0.0" name="bottom"/>
  <anchor x="318.87368421052633" y="713.0" name="top"/>
  <anchor x="20.0" y="713.0" name="topleft"/>
  <outline>
    <contour>
      <point x="295.2" y="293.4315789473684" type="line"/>
      <point x="342.4631578947368" y="293.4315789473684" type="line"/>
      <point x="503.1894736842105" y="548.3894736842105" type="line"/>
      <point x="536.7684210526315" y="601.4000000000001"/>
      <point x="572.5157894736842" y="657.1578947368421"/>
      <point x="610.5263157894736" y="713.0" type="curve"/>
      <point x="543.7052631578948" y="713.0" type="line"/>
      <point x="485.09473684210525" y="611.0315789473684"/>
      <point x="453.4526315789473" y="559.378947368421"/>
      <point x="401.1578947368421" y="476.41052631578947" type="curve"/>
      <point x="322.37894736842105" y="350.36842105263156" type="line"/>
      <point x="315.36842105263156" y="350.36842105263156" type="line"/>
      <point x="233.92631578947368" y="481.0736842105263" type="line"/>
      <point x="184.37894736842105" y="560.2947368421053"/>
      <point x="154.56842105263158" y="610.0315789473684"/>
      <point x="95.0421052631579" y="713.0" type="curve"/>
      <point x="27.463157894736845" y="713.0" type="line"/>
      <point x="72.47368421052632" y="648.0736842105263"/>
      <point x="101.5578947368421" y="602.3157894736842"/>
      <point x="135.22105263157894" y="548.3894736842105" type="curve"/>
    </contour>
    <contour>
      <point x="290.43157894736845" y="0.0" type="curve"/>
      <point x="348.2315789473684" y="0.0" type="line"/>
      <point x="344.3894736842105" y="80.41052631578947"/>
      <point x="343.88421052631577" y="149.90526315789472"/>
      <point x="343.88421052631577" y="237.2421052631579" type="curve"/>
      <point x="343.88421052631577" y="334.6736842105263" type="line"/>
      <point x="293.86315789473684" y="334.6736842105263" type="line"/>
      <point x="293.86315789473684" y="237.2421052631579" type="line"/>
      <point x="293.86315789473684" y="149.90526315789472"/>
      <point x="293.2736842105263" y="80.41052631578947"/>
    </contour>
  </outline>
</glyph>
<glyph name="Z" format="2">
  <advance width="662.7894736842105"/>
  <unicode hex="005A"/>
  <anchor x="331.85263157894735" y="0.0" name="bottom"/>
  <anchor x="331.85263157894735" y="357.0" name="center"/>
  <anchor x="331.85263157894735" y="713.0" name="top"/>
  <outline>
    <contour>
      <point x="52.89473684210526" y="0.0" type="line"/>
      <point x="605.3157894736842" y="0.0" type="line"/>
      <point x="605.3157894736842" y="52.08421052631579" type="line"/>
      <point x="519.6736842105263" y="45.90526315789474"/>
      <point x="380.63157894736844" y="45.31578947368421"/>
      <point x="285.3263157894737" y="45.31578947368421" type="curve"/>
      <point x="86.8842105263158" y="45.31578947368421" type="line"/>
      <point x="100.71578947368421" y="15.610526315789473" type="line"/>
      <point x="407.70526315789476" y="417.30526315789473" type="line"/>
      <point x="471.7684210526316" y="501.5263157894737"/>
      <point x="535.9157894736842" y="585.6631578947369"/>
      <point x="601.978947368421" y="668.4526315789474" type="curve"/>
      <point x="601.978947368421" y="713.0" type="line"/>
      <point x="59.48421052631579" y="713.0" type="line"/>
      <point x="59.48421052631579" y="661.4947368421053" type="line"/>
      <point x="167.53684210526316" y="666.1789473684211"/>
      <point x="268.8421052631579" y="667.6842105263158"/>
      <point x="358.4" y="667.6842105263158" type="curve"/>
      <point x="575.5052631578948" y="667.6842105263158" type="line"/>
      <point x="553.0105263157894" y="690.0631578947368" type="line"/>
      <point x="265.42105263157896" y="311.6736842105263" type="line"/>
      <point x="202.02105263157895" y="228.03157894736842"/>
      <point x="112.37894736842105" y="111.48421052631579"/>
      <point x="52.89473684210526" y="38.4421052631579" type="curve"/>
    </contour>
  </outline>
</glyph>
<glyph name="bracketleft" format="2">
  <advance width="353.42105263157896"/>
  <unicode hex="005B"/>
  <outline>
    <contour>
      <point x="103.10526315789474" y="-113.51578947368421" type="curve"/>
      <point x="155.86315789473684" y="-113.51578947368421" type="line"/>
      <point x="155.86315789473684" y="-106.48421052631579" type="line"/>
      <point x="152.02105263157895" y="-26.073684210526316"/>
      <point x="151.5157894736842" y="43.421052631578945"/>
      <point x="151.5157894736842" y="130.7578947368421" type="curve"/>
      <point x="151.5157894736842" y="517.7368421052631" type="line"/>
      <point x="151.5157894736842" y="605.4105263157895"/>
      <point x="152.02105263157895" y="675.1578947368421"/>
      <point x="155.86315789473684" y="755.8210526315789" type="curve"/>
      <point x="155.86315789473684" y="761.9368421052632" type="line"/>
      <point x="103.10526315789474" y="761.9368421052632" type="line"/>
      <point x="105.69473684210526" y="681.2736842105263"/>
      <point x="106.28421052631579" y="611.5263157894736"/>
      <point x="106.28421052631579" y="523.8526315789474" type="curve"/>
      <point x="106.28421052631579" y="123.72631578947369" type="line"/>
      <point x="106.28421052631579" y="36.38947368421053"/>
      <point x="105.69473684210526" y="-33.10526315789474"/>
    </contour>
    <contour>
      <point x="143.83157894736843" y="-113.51578947368421" type="line"/>
      <point x="340.82105263157894" y="-113.51578947368421" type="line"/>
      <point x="340.82105263157894" y="-69.46315789473684" type="line"/>
      <point x="292.41052631578947" y="-71.22105263157894"/>
      <point x="240.9157894736842" y="-71.47368421052632"/>
      <point x="182.58947368421053" y="-71.47368421052632" type="curve"/>
      <point x="143.83157894736843" y="-71.47368421052632" type="line"/>
    </contour>
    <contour>
      <point x="142.4842105263158" y="719.8947368421053" type="line"/>
      <point x="178.83157894736843" y="719.8947368421053" type="line"/>
      <point x="248.1578947368421" y="719.8947368421053"/>
      <point x="295.82105263157894" y="719.3894736842105"/>
      <point x="341.3157894736842" y="717.8842105263159" type="curve"/>
      <point x="341.3157894736842" y="761.9368421052632" type="line"/>
      <point x="142.4842105263158" y="761.9368421052632" type="line"/>
    </contour>
  </outline>
</glyph>
<glyph name="backslash" format="2">
  <advance width="441.95789473684215"/>
  <unicode hex="005C"/>
  <outline>
    <contour>
      <point x="353.06315789473683" y="0.0" type="curve"/>
      <point x="407.4947368421052" y="0.0" type="line"/>
      <point x="372.98947368421057" y="74.0"/>
      <point x="343.4947368421053" y="137.0"/>
      <point x="302.3368421052632" y="228.0" type="curve"/>
      <point x="191.52631578947367" y="476.0" type="line"/>
      <point x="149.36842105263156" y="570.9157894736842"/>
      <point x="121.0421052631579" y="636.0"/>
      <point x="88.81052631578947" y="713.0" type="curve"/>
      <point x="34.463157894736845" y="713.0" type="line"/>
      <point x="71.8" y="636.0"/>
      <point x="101.29473684210527" y="571.0"/>
      <point x="144.45263157894738" y="474.0" type="curve"/>
      <point x="254.26315789473685" y="228.0" type="line"/>
      <point x="295.42105263157896" y="137.0"/>
      <point x="322.7473684210526" y="74.0"/>
    </contour>
  </outline>
</glyph>
<glyph name="asciicircum" format="2">
  <advance width="595.7263157894737"/>
  <unicode hex="005E"/>
  <outline>
    <contour>
      <point x="480.7894736842105" y="389.36842105263156" type="curve"/>
      <point x="530.5052631578947" y="390.4526315789474" type="line"/>
      <point x="462.6842105263158" y="488.13684210526316"/>
      <point x="395.94736842105266" y="586.8210526315789"/>
      <point x="334.13684210526316" y="684.5052631578948" type="curve"/>
      <point x="261.58947368421053" y="684.5052631578948" type="line"/>
      <point x="199.77894736842106" y="586.8210526315789"/>
      <point x="133.0421052631579" y="490.13684210526316"/>
      <point x="65.22105263157894" y="392.4526315789474" type="curve"/>
      <point x="115.02105263157894" y="392.4526315789474" type="line"/>
      <point x="176.66315789473686" y="475.6736842105263"/>
      <point x="235.13684210526316" y="559.8947368421053"/>
      <point x="294.4421052631579" y="643.1157894736842" type="curve"/>
      <point x="301.2842105263158" y="643.1157894736842" type="line"/>
      <point x="360.5894736842105" y="558.8105263157895"/>
      <point x="419.14736842105265" y="473.6736842105263"/>
    </contour>
  </outline>
</glyph>
<glyph name="underscore" format="2">
  <advance width="403.8315789473684"/>
  <unicode hex="005F"/>
  <outline>
    <contour>
      <point x="-10.0" y="-100.61052631578947" type="line"/>
      <point x="49.43157894736842" y="-98.52631578947368"/>
      <point x="106.2" y="-98.27368421052631"/>
      <point x="154.0421052631579" y="-98.10526315789474" type="curve"/>
      <point x="232.69473684210527" y="-98.10526315789474" type="line"/>
      <point x="280.53684210526313" y="-98.27368421052631"/>
      <point x="337.30526315789473" y="-98.52631578947368"/>
      <point x="396.7368421052632" y="-100.61052631578947" type="curve"/>
      <point x="396.7368421052632" y="-54.96842105263158" type="line"/>
      <point x="337.30526315789473" y="-57.05263157894737"/>
      <point x="280.53684210526313" y="-57.305263157894736"/>
      <point x="232.69473684210527" y="-57.473684210526315" type="curve"/>
      <point x="154.0421052631579" y="-57.473684210526315" type="line"/>
      <point x="106.2" y="-57.305263157894736"/>
      <point x="49.43157894736842" y="-57.05263157894737"/>
      <point x="-10.0" y="-54.96842105263158" type="curve"/>
    </contour>
  </outline>
</glyph>
<glyph name="a" format="2">
  <advance width="519.1264367816092"/>
  <unicode hex="0061"/>
  <anchor x="263.18390804597703" y="0.0" name="bottom"/>
  <anchor x="433.17241379310343" y="0.0" name="ogonek"/>
  <anchor x="263.18390804597703" y="494.735632183908" name="top"/>
  <outline>
    <contour>
      <point x="211.4022988505747" y="-9.367816091954023" type="curve" smooth="yes"/>
      <point x="271.58620689655174" y="-9.367816091954023"/>
      <point x="343.2988505747127" y="26.735632183908045"/>
      <point x="385.7241379310345" y="77.32183908045977" type="curve"/>
      <point x="392.45977011494256" y="77.32183908045977" type="line"/>
      <point x="414.7241379310345" y="0.0" type="line"/>
      <point x="463.5402298850575" y="0.0" type="line"/>
      <point x="445.62068965517244" y="54.28735632183908"/>
      <point x="432.35632183908046" y="99.9425287356322"/>
      <point x="432.35632183908046" y="141.41379310344828" type="curve"/>
      <point x="432.35632183908046" y="211.0" type="line" smooth="yes"/>
      <point x="432.35632183908046" y="255.89655172413794"/>
      <point x="434.5402298850575" y="305.264367816092"/>
      <point x="434.5402298850575" y="334.0" type="curve" smooth="yes"/>
      <point x="434.5402298850575" y="453.91954022988506"/>
      <point x="369.7011494252873" y="505.1034482758621"/>
      <point x="266.28735632183907" y="505.1034482758621" type="curve" smooth="yes"/>
      <point x="208.79310344827584" y="505.1034482758621"/>
      <point x="127.50574712643677" y="481.47126436781605"/>
      <point x="82.95402298850576" y="468.4712643678161" type="curve"/>
      <point x="86.32183908045977" y="418.8620689655172" type="line"/>
      <point x="160.8505747126437" y="447.49425287356325"/>
      <point x="232.5057471264368" y="460.9655172413793"/>
      <point x="260.95402298850576" y="460.9655172413793" type="curve" smooth="yes"/>
      <point x="331.8275862068965" y="460.9655172413793"/>
      <point x="392.35632183908046" y="439.14942528735634"/>
      <point x="387.7241379310345" y="313.28735632183907" type="curve"/>
      <point x="220.05747126436782" y="280.04597701149424" type="line" smooth="yes"/>
      <point x="149.0344827586207" y="266.41379310344826"/>
      <point x="60.95402298850575" y="234.31034482758622"/>
      <point x="60.95402298850575" y="129.02298850574712" type="curve" smooth="yes"/>
      <point x="60.95402298850575" y="45.264367816091955"/>
      <point x="117.60919540229885" y="-9.367816091954023"/>
    </contour>
    <contour>
      <point x="218.75862068965517" y="33.03448275862069" type="curve" smooth="yes"/>
      <point x="155.01149425287358" y="33.03448275862069"/>
      <point x="108.32183908045977" y="60.45977011494253"/>
      <point x="108.32183908045977" y="130.75862068965517" type="curve" smooth="yes"/>
      <point x="108.32183908045977" y="201.13793103448276"/>
      <point x="165.1494252873563" y="229.77011494252872"/>
      <point x="234.632183908046" y="242.66666666666666" type="curve" smooth="yes"/>
      <point x="341.7471264367816" y="262.37931034482756"/>
      <point x="369.0919540229885" y="272.2758620689655"/>
      <point x="387.17241379310343" y="281.2758620689655" type="curve"/>
      <point x="386.35632183908046" y="140.25287356321837" type="line"/>
      <point x="347.5632183908046" y="68.66666666666667"/>
      <point x="267.264367816092" y="33.03448275862069"/>
    </contour>
  </outline>
</glyph>
<glyph name="c" format="2">
  <advance width="499.6421052631579"/>
  <unicode hex="0063"/>
  <anchor x="288.65263157894736" y="0.0" name="bottom"/>
  <anchor x="280.41052631578947" y="494.6736842105263" name="top"/>
  <outline>
    <contour>
      <point x="303.0736842105263" y="-9.25263157894737" type="curve" smooth="yes"/>
      <point x="360.90526315789475" y="-9.25263157894737"/>
      <point x="413.66315789473686" y="11.905263157894737"/>
      <point x="449.1684210526316" y="25.315789473684212" type="curve"/>
      <point x="442.0842105263158" y="74.03157894736842" type="line"/>
      <point x="394.6" y="48.70526315789474"/>
      <point x="348.35789473684207" y="35.04210526315789"/>
      <point x="308.1263157894737" y="35.04210526315789" type="curve" smooth="yes"/>
      <point x="172.61052631578946" y="37.873684210526314"/>
      <point x="105.71578947368421" y="128.4"/>
      <point x="105.71578947368421" y="248.67368421052632" type="curve" smooth="yes"/>
      <point x="105.71578947368421" y="378.09473684210525"/>
      <point x="181.33684210526317" y="457.29473684210524"/>
      <point x="297.01052631578943" y="460.29473684210524" type="curve"/>
      <point x="322.6736842105263" y="460.29473684210524"/>
      <point x="376.9157894736842" y="448.29473684210524"/>
      <point x="440.8315789473684" y="419.2105263157895" type="curve"/>
      <point x="444.84210526315786" y="468.34736842105264" type="line"/>
      <point x="406.42105263157896" y="483.34736842105264"/>
      <point x="344.33684210526314" y="505.09473684210525"/>
      <point x="293.821052631579" y="505.09473684210525" type="curve" smooth="yes"/>
      <point x="146.1263157894737" y="505.09473684210525"/>
      <point x="58.294736842105266" y="393.9263157894737"/>
      <point x="58.294736842105266" y="248.0842105263158" type="curve" smooth="yes"/>
      <point x="58.294736842105266" y="103.2421052631579"/>
      <point x="146.5578947368421" y="-9.25263157894737"/>
    </contour>
  </outline>
</glyph>
<glyph name="e" format="2">
  <advance width="527.816091954023"/>
  <unicode hex="0065"/>
  <anchor x="287.71264367816093" y="0.0" name="bottom"/>
  <anchor x="375.0689655172414" y="0.0" name="ogonek"/>
  <anchor x="278.632183908046" y="494.735632183908" name="top"/>
  <outline>
    <contour>
      <point x="309.367816091954" y="-9.551724137931034" type="curve" smooth="yes"/>
      <point x="370.57471264367814" y="-9.551724137931034"/>
      <point x="427.5747126436782" y="12.080459770114944"/>
      <point x="465.9425287356322" y="24.896551724137932" type="curve"/>
      <point x="462.7586206896552" y="74.2183908045977" type="line"/>
      <point x="409.1264367816092" y="49.13793103448276"/>
      <point x="354.6551724137931" y="34.770114942528735"/>
      <point x="311.7586206896552" y="34.770114942528735" type="curve" smooth="yes"/>
      <point x="171.3793103448276" y="34.770114942528735"/>
      <point x="105.50574712643677" y="117.80459770114942"/>
      <point x="105.50574712643677" y="249.0" type="curve"/>
      <point x="105.50574712643677" y="253.20689655172413" type="line"/>
      <point x="105.50574712643677" y="374.0344827586207"/>
      <point x="169.82758620689654" y="459.06896551724134"/>
      <point x="282.264367816092" y="462.2528735632184" type="curve"/>
      <point x="371.2758620689655" y="459.2528735632184"/>
      <point x="431.41379310344826" y="408.2758620689655"/>
      <point x="431.41379310344826" y="295.551724137931" type="curve" smooth="yes"/>
      <point x="431.41379310344826" y="285.735632183908"/>
      <point x="431.41379310344826" y="275.91954022988506"/>
      <point x="430.41379310344826" y="265.28735632183907" type="curve"/>
      <point x="471.7586206896552" y="235.3448275862069" type="line"/>
      <point x="474.7586206896552" y="254.5287356321839"/>
      <point x="475.7586206896552" y="272.71264367816093"/>
      <point x="475.7586206896552" y="296.264367816092" type="curve" smooth="yes"/>
      <point x="475.7586206896552" y="428.8390804597701"/>
      <point x="400.8390804597701" y="505.1034482758621"/>
      <point x="281.264367816092" y="505.1034482758621" type="curve" smooth="yes"/>
      <point x="146.4022988505747" y="505.1034482758621"/>
      <point x="58.32183908045977" y="398.91954022988506"/>
      <point x="58.32183908045977" y="251.0" type="curve" smooth="yes"/>
      <point x="58.32183908045977" y="100.44827586206897"/>
      <point x="139.68965517241378" y="-9.551724137931034"/>
    </contour>
    <contour>
      <point x="80.02298850574712" y="235.3448275862069" type="line"/>
      <point x="471.7586206896552" y="235.3448275862069" type="line"/>
      <point x="471.7586206896552" y="270.57471264367814" type="line"/>
      <point x="440.9310344827586" y="275.64367816091954" type="line"/>
      <point x="80.02298850574712" y="274.7241379310345" type="line"/>
    </contour>
  </outline>
</glyph>
<glyph name="k" format="2">
  <advance width="524.5052631578948"/>
  <unicode hex="006B"/>
  <anchor x="271.0315789473684" y="0.0" name="bottom"/>
  <anchor x="271.0315789473684" y="723.8421052631579" name="top"/>
  <outline>
    <contour>
      <point x="428.2421052631579" y="0.0" type="curve"/>
      <point x="503.53684210526313" y="0.0" type="line"/>
      <point x="433.64210526315793" y="57.50526315789474"/>
      <point x="366.08421052631576" y="114.17894736842105"/>
      <point x="299.86315789473684" y="171.68421052631578" type="curve"/>
      <point x="192.7263157894737" y="264.22105263157897" type="line"/>
      <point x="193.65263157894736" y="238.82105263157894" type="line"/>
      <point x="287.1157894736842" y="322.4947368421053" type="line"/>
      <point x="351.6736842105263" y="379.9157894736842"/>
      <point x="415.4" y="436.3368421052632"/>
      <point x="484.37894736842105" y="494.6736842105263" type="curve"/>
      <point x="412.34736842105264" y="494.6736842105263" type="line"/>
      <point x="362.5578947368421" y="446.4315789473684"/>
      <point x="308.59999999999997" y="397.3578947368421"/>
      <point x="255.13684210526316" y="349.11578947368423" type="curve"/>
      <point x="167.86315789473684" y="270.37894736842105" type="line"/>
      <point x="137.02105263157895" y="270.37894736842105" type="line"/>
      <point x="137.02105263157895" y="232.77894736842106" type="line"/>
      <point x="161.45263157894738" y="232.77894736842106" type="line"/>
      <point x="266.9578947368421" y="143.7157894736842" type="line"/>
      <point x="322.08421052631576" y="95.81052631578947"/>
      <point x="375.95789473684215" y="47.90526315789474"/>
    </contour>
    <contour>
      <point x="95.26315789473685" y="0.0" type="curve"/>
      <point x="149.04210526315788" y="0.0" type="line"/>
      <point x="145.28421052631577" y="73.48421052631579"/>
      <point x="144.77894736842106" y="137.22105263157894"/>
      <point x="144.77894736842106" y="216.3684210526316" type="curve"/>
      <point x="144.77894736842106" y="493.9157894736842" type="line"/>
      <point x="144.77894736842106" y="579.8421052631579"/>
      <point x="145.70526315789473" y="659.4315789473685"/>
      <point x="149.7157894736842" y="741.0105263157895" type="curve"/>
      <point x="90.16842105263159" y="729.2526315789473" type="line"/>
      <point x="96.02105263157895" y="656.3263157894737"/>
      <point x="98.61052631578947" y="578.4105263157895"/>
      <point x="98.61052631578947" y="493.9157894736842" type="curve"/>
      <point x="98.61052631578947" y="220.32631578947368" type="line"/>
      <point x="98.61052631578947" y="139.07368421052632"/>
      <point x="98.02105263157895" y="74.49473684210527"/>
    </contour>
  </outline>
</glyph>
<glyph name="l" format="2">
  <advance width="243.38947368421051"/>
  <unicode hex="006C"/>
  <anchor x="121.69473684210526" y="0.0" name="bottom"/>
  <anchor x="122.1157894736842" y="409.0" name="center"/>
  <anchor x="121.69473684210526" y="723.8421052631579" name="top"/>
  <anchor x="200.90526315789475" y="494.6736842105263" name="topright"/>
  <outline>
    <contour>
      <point x="95.26315789473685" y="0.0" type="curve"/>
      <point x="149.04210526315788" y="0.0" type="line"/>
      <point x="145.28421052631577" y="74.49473684210527"/>
      <point x="144.77894736842106" y="139.07368421052632"/>
      <point x="144.77894736842106" y="220.32631578947368" type="curve"/>
      <point x="144.77894736842106" y="493.9157894736842" type="line"/>
      <point x="144.77894736842106" y="579.8421052631579"/>
      <point x="145.70526315789473" y="659.4315789473684"/>
      <point x="149.54736842105262" y="741.0105263157895" type="curve"/>
      <point x="90.16842105263159" y="729.2526315789473" type="line"/>
      <point x="96.02105263157895" y="656.3263157894737"/>
      <point x="98.61052631578947" y="578.4105263157895"/>
      <point x="98.61052631578947" y="493.9157894736842" type="curve"/>
      <point x="98.61052631578947" y="220.32631578947368" type="line"/>
      <point x="98.61052631578947" y="139.07368421052632"/>
      <point x="98.02105263157895" y="74.49473684210527"/>
    </contour>
  </outline>
</glyph>
<glyph name="m" format="2">
  <advance width="878.1789473684211"/>
  <unicode hex="006D"/>
  <anchor x="450.7473684210526" y="0.0" name="bottom"/>
  <anchor x="450.7473684210526" y="494.6736842105263" name="top"/>
  <outline>
    <contour>
      <point x="101.09473684210526" y="0.0" type="curve"/>
      <point x="154.8736842105263" y="0.0" type="line"/>
      <point x="151.1157894736842" y="74.49473684210527"/>
      <point x="150.61052631578946" y="139.07368421052632"/>
      <point x="150.61052631578946" y="219.23157894736843" type="curve"/>
      <point x="150.61052631578946" y="341.36842105263156" type="line"/>
      <point x="197.32631578947368" y="408.3157894736842"/>
      <point x="266.11578947368423" y="459.0315789473684"/>
      <point x="318.98947368421057" y="459.0315789473684" type="curve" smooth="yes"/>
      <point x="401.34736842105264" y="459.0315789473684"/>
      <point x="427.66315789473686" y="411.13684210526316"/>
      <point x="427.66315789473686" y="318.58947368421053" type="curve"/>
      <point x="427.66315789473686" y="219.23157894736843" type="line"/>
      <point x="427.66315789473686" y="139.0736842105263"/>
      <point x="427.15789473684214" y="74.49473684210527"/>
      <point x="424.5684210526316" y="0.0" type="curve"/>
      <point x="478.17894736842106" y="0.0" type="line"/>
      <point x="474.1684210526316" y="74.49473684210527"/>
      <point x="473.8315789473684" y="139.0736842105263"/>
      <point x="473.8315789473684" y="220.32631578947368" type="curve"/>
      <point x="473.8315789473684" y="247.42105263157896"/>
      <point x="475.1684210526316" y="284.34736842105264"/>
      <point x="475.1684210526316" y="327.2631578947368" type="curve" smooth="yes"/>
      <point x="475.1684210526316" y="346.85263157894735"/>
      <point x="474.0" y="365.35789473684207"/>
      <point x="470.8315789473684" y="381.6947368421052" type="curve"/>
      <point x="468.40000000000003" y="385.35789473684207" type="line"/>
      <point x="455.81052631578945" y="463.8526315789474"/>
      <point x="411.5578947368421" y="505.17894736842106"/>
      <point x="329.3263157894737" y="505.17894736842106" type="curve" smooth="yes"/>
      <point x="257.17894736842106" y="505.17894736842106"/>
      <point x="191.76842105263157" y="445.62105263157895"/>
      <point x="155.17894736842103" y="402.61052631578946" type="curve"/>
      <point x="148.25263157894736" y="402.61052631578946" type="line"/>
      <point x="139.1684210526316" y="498.2631578947368" type="line"/>
      <point x="93.33684210526316" y="494.6736842105263" type="line"/>
      <point x="101.93684210526317" y="419.9157894736842"/>
      <point x="104.4421052631579" y="342.0"/>
      <point x="104.4421052631579" y="270.3263157894737" type="curve"/>
      <point x="104.4421052631579" y="220.32631578947368" type="line"/>
      <point x="104.4421052631579" y="139.07368421052632"/>
      <point x="103.85263157894737" y="74.49473684210527"/>
    </contour>
    <contour>
      <point x="743.2105263157895" y="0.0" type="curve"/>
      <point x="796.821052631579" y="0.0" type="line"/>
      <point x="792.8105263157895" y="74.49473684210527"/>
      <point x="792.4736842105264" y="139.0736842105263"/>
      <point x="792.4736842105264" y="220.32631578947368" type="curve"/>
      <point x="792.4736842105264" y="247.42105263157896"/>
      <point x="793.8105263157895" y="284.17894736842106"/>
      <point x="793.8105263157895" y="327.2631578947368" type="curve" smooth="yes"/>
      <point x="793.8105263157895" y="441.7684210526316"/>
      <point x="750.2105263157895" y="505.17894736842106"/>
      <point x="647.9684210526316" y="505.17894736842106" type="curve" smooth="yes"/>
      <point x="575.8210526315789" y="505.17894736842106"/>
      <point x="511.9894736842105" y="447.4526315789474"/>
      <point x="470.82105263157894" y="399.86315789473684" type="curve"/>
      <point x="463.64210526315793" y="399.86315789473684" type="line"/>
      <point x="469.1684210526316" y="341.36842105263156" type="line"/>
      <point x="515.8842105263158" y="408.3157894736842"/>
      <point x="584.7578947368421" y="459.0315789473684"/>
      <point x="637.6315789473684" y="459.0315789473684" type="curve" smooth="yes"/>
      <point x="719.0736842105264" y="459.0315789473684"/>
      <point x="746.3052631578947" y="411.13684210526316"/>
      <point x="746.3052631578947" y="318.58947368421053" type="curve"/>
      <point x="746.3052631578947" y="219.23157894736843" type="line"/>
      <point x="746.3052631578947" y="139.0736842105263"/>
      <point x="745.8" y="74.49473684210527"/>
    </contour>
  </outline>
</glyph>
<glyph name="o" format="2">
  <advance width="597.0842105263158"/>
  <unicode hex="006F"/>
  <anchor x="298.0842105263158" y="0.0" name="bottom"/>
  <anchor x="298.0842105263158" y="247.33684210526314" name="center"/>
  <anchor x="366.53684210526313" y="0.0" name="ogonek"/>
  <anchor x="298.0842105263158" y="494.6736842105263" name="top"/>
  <anchor x="536.3157894736842" y="494.6736842105263" name="topright"/>
  <outline>
    <contour>
      <point x="300.1684210526316" y="-9.589473684210526" type="curve" smooth="yes"/>
      <point x="443.7894736842106" y="-9.589473684210526"/>
      <point x="538.7894736842105" y="105.2421052631579"/>
      <point x="538.7894736842105" y="251.0" type="curve" smooth="yes"/>
      <point x="538.7894736842105" y="395.42105263157896"/>
      <point x="448.12631578947367" y="505.17894736842106"/>
      <point x="299.7473684210526" y="505.17894736842106" type="curve" smooth="yes"/>
      <point x="155.45263157894738" y="505.17894736842106"/>
      <point x="58.294736842105266" y="399.1684210526316"/>
      <point x="58.294736842105266" y="251.0" type="curve" smooth="yes"/>
      <point x="58.294736842105266" y="112.83157894736843"/>
      <point x="145.78947368421052" y="-9.589473684210526"/>
    </contour>
    <contour>
      <point x="300.0842105263158" y="34.62105263157895" type="curve"/>
      <point x="167.17894736842106" y="37.705263157894734"/>
      <point x="105.71578947368421" y="139.6421052631579"/>
      <point x="105.71578947368421" y="251.0" type="curve" smooth="yes"/>
      <point x="105.71578947368421" y="368.0210526315789"/>
      <point x="170.6736842105263" y="457.8"/>
      <point x="300.0842105263158" y="460.9684210526316" type="curve"/>
      <point x="421.25263157894733" y="457.5473684210526"/>
      <point x="491.36842105263156" y="375.34736842105264"/>
      <point x="491.36842105263156" y="251.0" type="curve" smooth="yes"/>
      <point x="491.36842105263156" y="139.38947368421051"/>
      <point x="431.9894736842105" y="37.705263157894734"/>
    </contour>
  </outline>
</glyph>
<glyph name="p" format="2">
  <advance width="596.5052631578948"/>
  <unicode hex="0070"/>
  <outline>
    <contour>
      <point x="100.17894736842105" y="-194.33684210526314" type="curve"/>
      <point x="155.29473684210527" y="-192.0" type="line"/>
      <point x="151.2" y="-117.50526315789473"/>
      <point x="150.61052631578946" y="-52.92631578947368"/>
      <point x="150.61052631578946" y="27.231578947368423" type="curve"/>
      <point x="150.61052631578946" y="68.81052631578947" type="line"/>
      <point x="157.20000000000002" y="68.81052631578947" type="line"/>
      <point x="205.02105263157895" y="17.568421052631578"/>
      <point x="263.5052631578947" y="-9.589473684210526"/>
      <point x="319.82105263157894" y="-9.589473684210526" type="curve" smooth="yes"/>
      <point x="464.5578947368421" y="-9.589473684210526"/>
      <point x="538.0421052631579" y="110.16842105263157"/>
      <point x="538.0421052631579" y="249.16842105263157" type="curve" smooth="yes"/>
      <point x="538.0421052631579" y="396.33684210526314"/>
      <point x="455.978947368421" y="505.17894736842106"/>
      <point x="317.90526315789475" y="505.17894736842106" type="curve" smooth="yes"/>
      <point x="247.8421052631579" y="505.17894736842106"/>
      <point x="191.76842105263157" y="468.1894736842105"/>
      <point x="152.93684210526317" y="431.7578947368421" type="curve"/>
      <point x="146.09473684210528" y="431.7578947368421" type="line"/>
      <point x="139.92631578947368" y="498.2631578947368" type="line"/>
      <point x="93.33684210526316" y="494.6736842105263" type="line"/>
      <point x="101.93684210526317" y="419.9157894736842"/>
      <point x="104.4421052631579" y="342.0"/>
      <point x="104.4421052631579" y="270.3263157894737" type="curve"/>
      <point x="104.4421052631579" y="28.326315789473686" type="line"/>
      <point x="104.4421052631579" y="-52.92631578947368"/>
      <point x="103.85263157894737" y="-119.84210526315789"/>
    </contour>
    <contour>
      <point x="312.1578947368421" y="35.294736842105266" type="curve"/>
      <point x="251.03157894736842" y="35.54736842105263"/>
      <point x="195.1578947368421" y="68.44210526315788"/>
      <point x="150.61052631578946" y="130.14736842105262" type="curve"/>
      <point x="150.61052631578946" y="377.93684210526317" type="line"/>
      <point x="196.2421052631579" y="432.8105263157895"/>
      <point x="257.77894736842103" y="459.0421052631579"/>
      <point x="310.32631578947365" y="460.0421052631579" type="curve"/>
      <point x="433.1578947368421" y="457.0421052631579"/>
      <point x="490.53684210526313" y="365.2631578947368"/>
      <point x="490.53684210526313" y="249.0" type="curve" smooth="yes"/>
      <point x="490.53684210526313" y="137.56842105263158"/>
      <point x="437.65263157894736" y="38.294736842105266"/>
    </contour>
  </outline>
</glyph>
<glyph name="q" format="2">
  <advance width="585.4210526315788"/>
  <unicode hex="0071"/>
  <outline>
    <contour>
      <point x="441.63157894736844" y="-194.33684210526314" type="curve"/>
      <point x="496.32631578947365" y="-192.0" type="line"/>
      <point x="492.56842105263155" y="-117.50526315789473"/>
      <point x="492.06315789473683" y="-52.92631578947368"/>
      <point x="492.06315789473683" y="28.326315789473686" type="curve"/>
      <point x="492.06315789473683" y="270.3263157894737" type="line"/>
      <point x="492.06315789473683" y="343.16842105263163"/>
      <point x="494.56842105263155" y="422.33684210526314"/>
      <point x="502.32631578947365" y="498.2631578947368" type="curve"/>
      <point x="456.57894736842104" y="494.6736842105263" type="line"/>
      <point x="450.41052631578947" y="431.7578947368421" type="line"/>
      <point x="443.5684210526316" y="431.7578947368421" type="line"/>
      <point x="404.7368421052632" y="468.18947368421055"/>
      <point x="348.66315789473686" y="505.17894736842106"/>
      <point x="278.6" y="505.17894736842106" type="curve" smooth="yes"/>
      <point x="140.52631578947367" y="505.17894736842106"/>
      <point x="58.463157894736845" y="396.33684210526314"/>
      <point x="58.463157894736845" y="249.16842105263157" type="curve" smooth="yes"/>
      <point x="58.463157894736845" y="110.16842105263157"/>
      <point x="131.94736842105263" y="-9.589473684210526"/>
      <point x="276.6842105263158" y="-9.589473684210526" type="curve" smooth="yes"/>
      <point x="333.0" y="-9.589473684210526"/>
      <point x="391.4842105263158" y="17.568421052631578"/>
      <point x="439.30526315789473" y="68.81052631578947" type="curve"/>
      <point x="445.89473684210526" y="68.81052631578947" type="line"/>
      <point x="445.89473684210526" y="27.231578947368423" type="line"/>
      <point x="445.89473684210526" y="-52.92631578947368"/>
      <point x="445.30526315789473" y="-119.84210526315789"/>
    </contour>
    <contour>
      <point x="284.34736842105264" y="35.294736842105266" type="curve"/>
      <point x="158.85263157894738" y="38.294736842105266"/>
      <point x="105.96842105263158" y="137.56842105263158"/>
      <point x="105.96842105263158" y="249.0" type="curve" smooth="yes"/>
      <point x="105.96842105263158" y="365.2631578947368"/>
      <point x="163.34736842105264" y="457.0421052631579"/>
      <point x="286.17894736842106" y="460.0421052631579" type="curve"/>
      <point x="338.7263157894737" y="459.0421052631579"/>
      <point x="400.2631578947368" y="432.8105263157895"/>
      <point x="445.89473684210526" y="377.93684210526317" type="curve"/>
      <point x="445.89473684210526" y="130.14736842105262" type="line"/>
      <point x="401.34736842105264" y="68.44210526315788"/>
      <point x="345.4736842105263" y="35.54736842105263"/>
    </contour>
  </outline>
</glyph>
<glyph name="r" format="2">
  <advance width="397.7052631578947"/>
  <unicode hex="0072"/>
  <anchor x="122.18947368421053" y="0.0" name="bottom"/>
  <anchor x="232.42105263157896" y="494.6736842105263" name="top"/>
  <outline>
    <contour>
      <point x="101.09473684210526" y="0.0" type="curve"/>
      <point x="154.8736842105263" y="0.0" type="line"/>
      <point x="151.1157894736842" y="74.49473684210527"/>
      <point x="150.61052631578946" y="139.07368421052632"/>
      <point x="150.61052631578946" y="219.23157894736843" type="curve"/>
      <point x="150.61052631578946" y="314.62105263157895" type="line"/>
      <point x="206.4842105263158" y="443.09473684210525"/>
      <point x="271.2842105263158" y="457.09473684210525"/>
      <point x="308.2736842105263" y="457.09473684210525" type="curve" smooth="yes"/>
      <point x="325.2736842105263" y="457.09473684210525"/>
      <point x="346.28421052631575" y="451.7578947368421"/>
      <point x="365.0421052631579" y="444.67368421052635" type="curve"/>
      <point x="369.3894736842105" y="497.0105263157895" type="line"/>
      <point x="352.3894736842105" y="502.34736842105264"/>
      <point x="334.05263157894734" y="505.17894736842106"/>
      <point x="313.89473684210526" y="505.17894736842106" type="curve" smooth="yes"/>
      <point x="270.89473684210526" y="505.17894736842106"/>
      <point x="203.50526315789475" y="485.33684210526314"/>
      <point x="152.43157894736842" y="389.7894736842105" type="curve"/>
      <point x="146.42105263157896" y="389.7894736842105" type="line"/>
      <point x="139.1684210526316" y="498.2631578947368" type="line"/>
      <point x="93.33684210526316" y="494.6736842105263" type="line"/>
      <point x="101.93684210526317" y="419.9157894736842"/>
      <point x="104.4421052631579" y="342.0"/>
      <point x="104.4421052631579" y="270.3263157894737" type="curve"/>
      <point x="104.4421052631579" y="220.32631578947368" type="line"/>
      <point x="104.4421052631579" y="139.07368421052632"/>
      <point x="103.85263157894737" y="74.49473684210527"/>
    </contour>
  </outline>
</glyph>
<glyph name="s" format="2">
  <advance width="448.7586206896552"/>
  <unicode hex="0073"/>
  <anchor x="223.83908045977012" y="0.0" name="bottom"/>
  <anchor x="223.83908045977012" y="494.735632183908" name="top"/>
  <outline>
    <contour>
      <point x="228.816091954023" y="-9.551724137931034" type="curve" smooth="yes"/>
      <point x="345.5977011494253" y="-9.551724137931034"/>
      <point x="395.4367816091954" y="55.44827586206897"/>
      <point x="395.4367816091954" y="133.31034482758622" type="curve" smooth="yes"/>
      <point x="395.4367816091954" y="221.22988505747128"/>
      <point x="330.82758620689657" y="244.41379310344828"/>
      <point x="236.80459770114942" y="272.5977011494253" type="curve" smooth="yes"/>
      <point x="148.82758620689654" y="298.67816091954023"/>
      <point x="116.50574712643677" y="319.39080459770116"/>
      <point x="116.50574712643677" y="371.42528735632186" type="curve" smooth="yes"/>
      <point x="116.50574712643677" y="446.9655172413793"/>
      <point x="181.6206896551724" y="458.9655172413793"/>
      <point x="224.7816091954023" y="460.9655172413793" type="curve"/>
      <point x="248.9655172413793" y="460.9655172413793"/>
      <point x="300.51724137931035" y="447.96551724137936"/>
      <point x="359.8850574712644" y="418.7816091954023" type="curve"/>
      <point x="364.62068965517244" y="469.0229885057471" type="line"/>
      <point x="328.0689655172414" y="483.4712643678161"/>
      <point x="268.7586206896552" y="505.1034482758621"/>
      <point x="220.73563218390805" y="505.1034482758621" type="curve" smooth="yes"/>
      <point x="127.34482758620689" y="505.1034482758621"/>
      <point x="68.95402298850574" y="451.367816091954"/>
      <point x="68.95402298850574" y="371.13793103448273" type="curve" smooth="yes"/>
      <point x="68.95402298850574" y="287.48275862068965"/>
      <point x="132.5632183908046" y="258.5632183908046"/>
      <point x="205.95402298850576" y="236.5632183908046" type="curve" smooth="yes"/>
      <point x="312.54022988505744" y="204.58620689655172"/>
      <point x="348.0689655172414" y="187.05747126436782"/>
      <point x="348.0689655172414" y="134.6551724137931" type="curve" smooth="yes"/>
      <point x="348.0689655172414" y="54.827586206896555"/>
      <point x="292.74712643678157" y="36.58620689655172"/>
      <point x="227.3448275862069" y="34.58620689655172" type="curve"/>
      <point x="179.7126436781609" y="34.58620689655172"/>
      <point x="125.05747126436782" y="51.13793103448276"/>
      <point x="69.24137931034484" y="78.13793103448276" type="curve"/>
      <point x="63.689655172413794" y="28.344827586206897" type="line"/>
      <point x="103.05747126436782" y="14.080459770114942"/>
      <point x="161.42528735632186" y="-9.551724137931034"/>
    </contour>
  </outline>
</glyph>
<glyph name="t" format="2">
  <advance width="403.0315789473684"/>
  <unicode hex="0074"/>
  <anchor x="236.57894736842104" y="0.0" name="bottom"/>
  <anchor x="206.6" y="247.33684210526314" name="center"/>
  <anchor x="196.68421052631578" y="628.7157894736843" name="top"/>
  <anchor x="222.74736842105264" y="494.6736842105263" name="topright"/>
  <outline>
    <contour>
      <point x="273.2526315789474" y="-9.589473684210526" type="curve" smooth="yes"/>
      <point x="311.2631578947369" y="-9.589473684210526"/>
      <point x="353.0315789473684" y="4.326315789473684"/>
      <point x="371.2105263157895" y="14.242105263157896" type="curve"/>
      <point x="364.87368421052633" y="62.03157894736842" type="line"/>
      <point x="339.9578947368421" y="46.28421052631579"/>
      <point x="302.30526315789473" y="34.62105263157895"/>
      <point x="280.7263157894737" y="34.62105263157895" type="curve" smooth="yes"/>
      <point x="211.01052631578946" y="34.62105263157895"/>
      <point x="176.94736842105263" y="72.61052631578947"/>
      <point x="176.94736842105263" y="150.9157894736842" type="curve" smooth="yes"/>
      <point x="176.94736842105263" y="477.4736842105263" type="line"/>
      <point x="176.94736842105263" y="550.0"/>
      <point x="177.45263157894738" y="596.2736842105263"/>
      <point x="180.29473684210527" y="668.2" type="curve"/>
      <point x="126.76842105263158" y="654.7578947368421" type="line"/>
      <point x="130.44210526315788" y="594.0"/>
      <point x="131.03157894736842" y="541.3263157894737"/>
      <point x="131.03157894736842" y="477.4736842105263" type="curve"/>
      <point x="131.03157894736842" y="403.13684210526316"/>
      <point x="129.69473684210527" y="278.2736842105263"/>
      <point x="129.69473684210527" y="146.26315789473685" type="curve" smooth="yes"/>
      <point x="129.69473684210527" y="42.56842105263158"/>
      <point x="179.63157894736844" y="-9.589473684210526"/>
    </contour>
    <contour>
      <point x="27.568421052631578" y="451.0421052631579" type="line"/>
      <point x="141.33684210526314" y="457.4736842105263" type="line"/>
      <point x="157.25263157894736" y="457.4736842105263" type="line"/>
      <point x="223.98947368421054" y="457.30526315789473"/>
      <point x="295.8105263157895" y="455.8"/>
      <point x="364.8" y="451.0421052631579" type="curve"/>
      <point x="364.8" y="494.6736842105263" type="line"/>
      <point x="27.568421052631578" y="494.6736842105263" type="line"/>
    </contour>
  </outline>
</glyph>
<glyph name="u" format="2">
  <advance width="552.8736842105263"/>
  <unicode hex="0075"/>
  <anchor x="276.59999999999997" y="0.0" name="bottom"/>
  <anchor x="470.5052631578947" y="0.0" name="ogonek"/>
  <anchor x="276.59999999999997" y="494.6736842105263" name="top"/>
  <anchor x="522.8" y="494.6736842105263" name="topright"/>
  <outline>
    <contour>
      <point x="237.1157894736842" y="-9.589473684210526" type="curve" smooth="yes"/>
      <point x="304.4315789473684" y="-9.589473684210526"/>
      <point x="379.0" y="49.96842105263158"/>
      <point x="415.58947368421053" y="92.97894736842106" type="curve"/>
      <point x="422.5157894736842" y="92.97894736842106" type="line"/>
      <point x="426.10526315789474" y="0.0" type="line"/>
      <point x="471.01052631578943" y="0.0" type="line"/>
      <point x="467.25263157894733" y="74.49473684210527"/>
      <point x="466.7473684210526" y="139.07368421052632"/>
      <point x="466.7473684210526" y="220.32631578947368" type="curve"/>
      <point x="466.7473684210526" y="271.1684210526316" type="line"/>
      <point x="466.7473684210526" y="353.7684210526316"/>
      <point x="467.42105263157896" y="420.17894736842106"/>
      <point x="471.17894736842106" y="494.6736842105263" type="curve"/>
      <point x="416.4842105263158" y="494.6736842105263" type="line"/>
      <point x="419.9894736842105" y="420.17894736842106"/>
      <point x="420.57894736842104" y="353.7684210526316"/>
      <point x="420.57894736842104" y="273.69473684210527" type="curve"/>
      <point x="420.57894736842104" y="153.79999999999998" type="line"/>
      <point x="373.86315789473684" y="86.85263157894737"/>
      <point x="295.0" y="36.136842105263156"/>
      <point x="246.62105263157895" y="36.136842105263156" type="curve" smooth="yes"/>
      <point x="159.43157894736842" y="36.136842105263156"/>
      <point x="131.28421052631577" y="84.03157894736843"/>
      <point x="131.28421052631577" y="176.57894736842104" type="curve"/>
      <point x="131.28421052631577" y="273.69473684210527" type="line"/>
      <point x="131.28421052631577" y="353.7684210526316"/>
      <point x="131.78947368421052" y="422.5157894736842"/>
      <point x="135.37894736842105" y="497.0105263157895" type="curve"/>
      <point x="80.6842105263158" y="494.6736842105263" type="line"/>
      <point x="84.3578947368421" y="420.17894736842106"/>
      <point x="85.1157894736842" y="353.76842105263154"/>
      <point x="85.1157894736842" y="271.1684210526316" type="curve"/>
      <point x="85.1157894736842" y="241.32631578947368"/>
      <point x="83.94736842105263" y="211.41052631578947"/>
      <point x="83.94736842105263" y="168.32631578947368" type="curve" smooth="yes"/>
      <point x="83.94736842105263" y="53.82105263157895"/>
      <point x="127.37894736842105" y="-9.589473684210526"/>
    </contour>
  </outline>
</glyph>
<glyph name="v" format="2">
  <advance width="503.3263157894737"/>
  <unicode hex="0076"/>
  <outline>
    <contour>
      <point x="219.94736842105263" y="0.0" type="curve"/>
      <point x="281.63157894736844" y="0.0" type="line"/>
      <point x="303.70526315789476" y="62.084210526315786"/>
      <point x="326.4526315789474" y="123.25263157894737"/>
      <point x="350.2" y="185.33684210526314" type="curve"/>
      <point x="383.86315789473684" y="273.5052631578947" type="line"/>
      <point x="411.61052631578946" y="346.58947368421053"/>
      <point x="440.3578947368421" y="421.58947368421053"/>
      <point x="473.52631578947364" y="494.6736842105263" type="curve"/>
      <point x="416.25263157894733" y="494.6736842105263" type="line"/>
      <point x="386.0315789473684" y="405.37894736842105"/>
      <point x="353.38947368421054" y="317.41052631578947"/>
      <point x="318.8315789473684" y="225.69473684210527" type="curve"/>
      <point x="254.37894736842105" y="52.09473684210526" type="line"/>
      <point x="247.53684210526316" y="52.09473684210526" type="line"/>
      <point x="183.0842105263158" y="225.69473684210527" type="line"/>
      <point x="148.52631578947367" y="317.41052631578947"/>
      <point x="115.96842105263158" y="405.37894736842105"/>
      <point x="85.66315789473684" y="497.0105263157895" type="curve"/>
      <point x="29.8" y="494.6736842105263" type="line"/>
      <point x="59.38947368421053" y="422.5052631578947"/>
      <point x="89.05263157894736" y="347.5052631578947"/>
      <point x="116.8" y="275.33684210526314" type="curve"/>
      <point x="150.46315789473684" y="187.25263157894736" type="line"/>
      <point x="173.29473684210527" y="127.0"/>
      <point x="197.78947368421052" y="62.084210526315786"/>
    </contour>
  </outline>
</glyph>
<glyph name="w" format="2">
  <advance width="791.7368421052631"/>
  <unicode hex="0077"/>
  <anchor x="397.11578947368423" y="0.0" name="bottom"/>
  <anchor x="397.11578947368423" y="494.6736842105263" name="top"/>
  <outline>
    <contour>
      <point x="198.03157894736842" y="0.0" type="curve"/>
      <point x="259.46315789473687" y="0.0" type="line"/>
      <point x="284.18947368421055" y="85.9578947368421"/>
      <point x="313.8315789473684" y="179.57894736842104"/>
      <point x="339.9789473684211" y="262.70526315789476" type="curve"/>
      <point x="391.3578947368421" y="426.0421052631579" type="line"/>
      <point x="398.0315789473684" y="426.0421052631579" type="line"/>
      <point x="449.4947368421053" y="264.62105263157895" type="line"/>
      <point x="476.6421052631579" y="181.49473684210525"/>
      <point x="507.4526315789473" y="85.9578947368421"/>
      <point x="533.1789473684211" y="0.0" type="curve"/>
      <point x="596.4526315789474" y="0.0" type="line"/>
      <point x="614.7789473684211" y="61.0"/>
      <point x="635.3578947368421" y="125.16842105263157"/>
      <point x="656.2736842105263" y="189.25263157894736" type="curve"/>
      <point x="685.1052631578947" y="276.33684210526314" type="line"/>
      <point x="709.021052631579" y="348.5052631578947"/>
      <point x="733.8526315789474" y="421.5052631578947"/>
      <point x="762.2736842105263" y="494.6736842105263" type="curve"/>
      <point x="705.4105263157895" y="494.6736842105263" type="line"/>
      <point x="681.6" y="415.36842105263156"/>
      <point x="650.2105263157895" y="313.9894736842105"/>
      <point x="622.1473684210526" y="226.02105263157895" type="curve"/>
      <point x="566.9368421052632" y="52.084210526315786" type="line"/>
      <point x="561.0947368421052" y="52.084210526315786" type="line"/>
      <point x="505.88421052631577" y="224.93684210526317" type="line"/>
      <point x="477.82105263157894" y="313.90526315789475"/>
      <point x="448.0105263157895" y="407.70526315789476"/>
      <point x="422.2" y="494.6736842105263" type="curve"/>
      <point x="369.12631578947367" y="494.6736842105263" type="line"/>
      <point x="342.40000000000003" y="402.9578947368421"/>
      <point x="314.42105263157896" y="312.1578947368421"/>
      <point x="286.3578947368421" y="223.10526315789474" type="curve"/>
      <point x="232.97894736842105" y="52.084210526315786" type="line"/>
      <point x="227.13684210526316" y="52.084210526315786" type="line"/>
      <point x="172.7578947368421" y="218.52631578947367" type="line"/>
      <point x="143.69473684210527" y="307.4947368421053"/>
      <point x="112.05263157894736" y="408.9578947368421"/>
      <point x="85.41052631578948" y="497.0105263157895" type="curve"/>
      <point x="29.46315789473684" y="494.6736842105263" type="line"/>
      <point x="57.968421052631584" y="420.58947368421053"/>
      <point x="81.96842105263158" y="349.5052631578947"/>
      <point x="106.71578947368421" y="276.33684210526314" type="curve"/>
      <point x="136.37894736842105" y="188.25263157894736" type="line"/>
      <point x="158.1263157894737" y="124.25263157894737"/>
      <point x="178.78947368421052" y="62.084210526315786"/>
    </contour>
  </outline>
</glyph>
<glyph name="x" format="2">
  <advance width="518.6736842105263"/>
  <unicode hex="0078"/>
  <outline>
    <contour>
      <point x="32.05263157894737" y="0.0" type="curve"/>
      <point x="94.66315789473684" y="0.0" type="line"/>
      <point x="125.96842105263158" y="47.65263157894737"/>
      <point x="150.94736842105263" y="82.47368421052632"/>
      <point x="185.33684210526314" y="130.0421052631579" type="curve"/>
      <point x="250.62105263157895" y="220.26315789473685" type="line"/>
      <point x="256.2947368421053" y="220.26315789473685" type="line"/>
      <point x="328.2421052631579" y="126.0421052631579" type="line"/>
      <point x="363.6315789473684" y="79.64210526315789"/>
      <point x="389.6105263157895" y="44.65263157894737"/>
      <point x="421.91578947368424" y="0.0" type="curve"/>
      <point x="487.0421052631579" y="0.0" type="line"/>
      <point x="434.2105263157895" y="63.50526315789474"/>
      <point x="402.7157894736842" y="102.7578947368421"/>
      <point x="366.38947368421054" y="149.09473684210528" type="curve"/>
      <point x="278.90526315789475" y="262.0210526315789" type="line"/>
      <point x="280.8315789473684" y="245.57894736842104" type="line"/>
      <point x="358.5684210526316" y="351.0" type="line"/>
      <point x="394.9789473684211" y="400.2526315789474"/>
      <point x="417.6421052631579" y="430.42105263157896"/>
      <point x="469.13684210526316" y="494.6736842105263" type="curve"/>
      <point x="405.5263157894737" y="494.6736842105263" type="line"/>
      <point x="374.2210526315789" y="446.93684210526317"/>
      <point x="349.07368421052627" y="411.94736842105266"/>
      <point x="317.2631578947368" y="367.9578947368421" type="curve"/>
      <point x="255.47368421052633" y="282.4842105263158" type="line"/>
      <point x="250.54736842105262" y="282.4842105263158" type="line"/>
      <point x="188.58947368421053" y="367.2105263157895" type="line"/>
      <point x="156.69473684210527" y="411.1157894736842"/>
      <point x="131.29473684210527" y="446.61052631578946"/>
      <point x="97.2421052631579" y="497.0105263157895" type="curve"/>
      <point x="35.294736842105266" y="494.6736842105263" type="line"/>
      <point x="85.70526315789473" y="432.58947368421053"/>
      <point x="112.36842105263158" y="397.2526315789474"/>
      <point x="149.44210526315788" y="347.2526315789474" type="curve"/>
      <point x="226.7578947368421" y="241.9157894736842" type="line"/>
      <point x="225.8421052631579" y="260.18947368421055" type="line"/>
      <point x="145.94736842105263" y="150.26315789473685" type="line"/>
      <point x="109.87368421052632" y="100.84210526315789"/>
      <point x="83.46315789473684" y="65.58947368421053"/>
    </contour>
  </outline>
</glyph>
<glyph name="y" format="2">
  <advance width="506.9894736842105"/>
  <unicode hex="0079"/>
  <anchor x="362.12631578947367" y="0.0" name="bottom"/>
  <anchor x="253.70526315789473" y="494.6736842105263" name="top"/>
  <outline>
    <contour>
      <point x="143.43157894736842" y="-194.33684210526314" type="curve"/>
      <point x="201.21052631578948" y="-192.0" type="line"/>
      <point x="228.2" y="-120.0"/>
      <point x="260.11578947368423" y="-38.66315789473684"/>
      <point x="310.86315789473684" y="88.33684210526316" type="curve"/>
      <point x="366.61052631578946" y="227.50526315789475" type="line"/>
      <point x="416.3578947368421" y="352.58947368421053"/>
      <point x="441.2736842105263" y="413.6736842105263"/>
      <point x="477.18947368421055" y="494.6736842105263" type="curve"/>
      <point x="420.08421052631576" y="494.6736842105263" type="line"/>
      <point x="388.94736842105266" y="404.7894736842105"/>
      <point x="355.38947368421054" y="316.9894736842105"/>
      <point x="319.8315789473684" y="225.2736842105263" type="curve"/>
      <point x="251.54736842105262" y="51.421052631578945" type="line"/>
      <point x="244.70526315789473" y="51.421052631578945" type="line"/>
      <point x="182.0842105263158" y="224.44210526315788" type="line"/>
      <point x="148.44210526315788" y="317.2421052631579"/>
      <point x="117.63157894736842" y="404.2105263157895"/>
      <point x="85.57894736842105" y="497.0105263157895" type="curve"/>
      <point x="29.8" y="494.6736842105263" type="line"/>
      <point x="60.05263157894737" y="423.67368421052635"/>
      <point x="88.8842105263158" y="347.67368421052635"/>
      <point x="115.71578947368421" y="276.5052631578947" type="curve"/>
      <point x="149.37894736842105" y="186.50526315789475" type="line"/>
      <point x="174.21052631578948" y="120.42105263157895"/>
      <point x="200.9578947368421" y="49.421052631578945"/>
      <point x="224.94736842105263" y="-18.66315789473684" type="curve"/>
      <point x="226.70526315789473" y="-1.8947368421052633" type="line"/>
      <point x="201.53684210526316" y="-65.56842105263158"/>
      <point x="173.03157894736842" y="-130.66315789473686"/>
    </contour>
  </outline>
</glyph>
<glyph name="z" format="2">
  <advance width="486.5473684210526"/>
  <unicode hex="007A"/>
  <anchor x="241.3578947368421" y="0.0" name="bottom"/>
  <anchor x="241.3578947368421" y="247.33684210526314" name="center"/>
  <anchor x="241.3578947368421" y="494.6736842105263" name="top"/>
  <outline>
    <contour>
      <point x="42.31578947368421" y="0.0" type="line"/>
      <point x="447.89473684210526" y="0.0" type="line"/>
      <point x="447.89473684210526" y="43.96842105263158" type="line"/>
      <point x="376.0" y="40.705263157894734"/>
      <point x="278.86315789473684" y="39.11578947368421"/>
      <point x="220.54736842105262" y="39.11578947368421" type="curve"/>
      <point x="91.33684210526316" y="39.11578947368421" type="line"/>
      <point x="97.76842105263158" y="26.91578947368421" type="line"/>
      <point x="270.86315789473684" y="253.73684210526315" type="line"/>
      <point x="323.0105263157895" y="322.2105263157895"/>
      <point x="389.9052631578947" y="407.58947368421053"/>
      <point x="431.2315789473684" y="459.4842105263158" type="curve"/>
      <point x="431.2315789473684" y="494.6736842105263" type="line"/>
      <point x="42.90526315789474" y="494.6736842105263" type="line"/>
      <point x="42.90526315789474" y="450.28421052631575" type="line"/>
      <point x="120.71578947368421" y="454.7157894736842"/>
      <point x="219.02105263157895" y="455.4736842105263"/>
      <point x="276.42105263157896" y="455.4736842105263" type="curve"/>
      <point x="393.22105263157897" y="455.4736842105263" type="line"/>
      <point x="384.53684210526313" y="476.58947368421053" type="line"/>
      <point x="211.5157894736842" y="249.42105263157896" type="line"/>
      <point x="162.2842105263158" y="184.69473684210527"/>
      <point x="103.05263157894736" y="109.5578947368421"/>
      <point x="42.31578947368421" y="31.842105263157894" type="curve"/>
    </contour>
  </outline>
</glyph>
<glyph name="bar" format="2">
  <advance width="254.37894736842105"/>
  <unicode hex="007C"/>
  <outline>
    <contour>
      <point x="102.61052631578949" y="-154.8421052631579" type="curve"/>
      <point x="151.76842105263157" y="-154.8421052631579" type="line"/>
      <point x="149.01052631578946" y="-36.8421052631579"/>
      <point x="148.92631578947368" y="66.15789473684211"/>
      <point x="148.92631578947368" y="174.1578947368421" type="curve"/>
      <point x="148.92631578947368" y="456.1578947368421" type="line"/>
      <point x="148.92631578947368" y="564.1578947368421"/>
      <point x="149.01052631578946" y="667.1578947368421"/>
      <point x="151.76842105263157" y="785.1578947368421" type="curve"/>
      <point x="102.61052631578949" y="785.1578947368421" type="line"/>
      <point x="105.36842105263159" y="667.1578947368421"/>
      <point x="105.45263157894738" y="564.1578947368421"/>
      <point x="105.45263157894738" y="456.1578947368421" type="curve"/>
      <point x="105.45263157894738" y="174.1578947368421" type="line"/>
      <point x="105.45263157894738" y="66.15789473684211"/>
      <point x="105.36842105263159" y="-36.8421052631579"/>
    </contour>
  </outline>
</glyph>
<glyph name="currency" format="2">
  <advance width="607.0736842105263"/>
  <unicode hex="00A4"/>
  <outline>
    <contour>
      <point x="301.62105263157895" y="125.53684210526316" type="curve" smooth="yes"/>
      <point x="413.57894736842104" y="125.53684210526316"/>
      <point x="496.7684210526316" y="200.21052631578948"/>
      <point x="496.7684210526316" y="320.1684210526316" type="curve" smooth="yes"/>
      <point x="496.7684210526316" y="435.5263157894737"/>
      <point x="414.4947368421053" y="515.3789473684211"/>
      <point x="303.62105263157895" y="515.3789473684211" type="curve" smooth="yes"/>
      <point x="190.74736842105264" y="515.3789473684211"/>
      <point x="108.47368421052632" y="435.0315789473684"/>
      <point x="108.47368421052632" y="320.1684210526316" type="curve" smooth="yes"/>
      <point x="108.47368421052632" y="200.29473684210527"/>
      <point x="190.74736842105264" y="125.53684210526316"/>
    </contour>
    <contour>
      <point x="85.73684210526316" y="68.50526315789475" type="line"/>
      <point x="125.49473684210525" y="111.85263157894737"/>
      <point x="165.33684210526314" y="151.86315789473684"/>
      <point x="199.26315789473685" y="185.78947368421052" type="curve"/>
      <point x="168.41052631578947" y="216.6421052631579" type="line"/>
      <point x="134.4842105263158" y="182.7157894736842"/>
      <point x="94.47368421052632" y="142.8736842105263"/>
      <point x="51.126315789473686" y="103.11578947368422" type="curve"/>
    </contour>
    <contour>
      <point x="301.70526315789476" y="169.66315789473686" type="curve"/>
      <point x="219.66315789473683" y="172.0"/>
      <point x="154.1157894736842" y="217.81052631578947"/>
      <point x="154.1157894736842" y="320.0842105263158" type="curve" smooth="yes"/>
      <point x="154.1157894736842" y="416.3578947368421"/>
      <point x="220.57894736842104" y="469.0"/>
      <point x="303.53684210526313" y="471.33684210526314" type="curve"/>
      <point x="385.6631578947368" y="469.0"/>
      <point x="451.12631578947367" y="416.18947368421055"/>
      <point x="451.12631578947367" y="320.0842105263158" type="curve" smooth="yes"/>
      <point x="451.12631578947367" y="217.81052631578947"/>
      <point x="385.57894736842104" y="172.0"/>
    </contour>
    <contour>
      <point x="168.57894736842104" y="425.3578947368421" type="curve"/>
      <point x="199.09473684210525" y="455.87368421052633" type="line"/>
      <point x="165.16842105263157" y="489.8"/>
      <point x="125.32631578947368" y="529.8105263157895"/>
      <point x="85.56842105263158" y="573.1578947368421" type="curve"/>
      <point x="51.294736842105266" y="538.8842105263158" type="line"/>
      <point x="94.6421052631579" y="499.12631578947367"/>
      <point x="134.65263157894736" y="459.2842105263158"/>
    </contour>
    <contour>
      <point x="521.5052631578948" y="68.67368421052632" type="curve"/>
      <point x="555.7789473684211" y="102.94736842105263" type="line"/>
      <point x="512.4315789473684" y="142.70526315789473"/>
      <point x="472.42105263157896" y="182.54736842105262"/>
      <point x="438.4947368421053" y="216.47368421052633" type="curve"/>
      <point x="407.9789473684211" y="185.9578947368421" type="line"/>
      <point x="441.90526315789475" y="152.03157894736842"/>
      <point x="481.7473684210526" y="112.02105263157895"/>
    </contour>
    <contour>
      <point x="438.66315789473686" y="425.1894736842105" type="line"/>
      <point x="472.58947368421053" y="459.11578947368423"/>
      <point x="512.6" y="498.9578947368421"/>
      <point x="555.9473684210526" y="538.7157894736843" type="curve"/>
      <point x="521.3368421052631" y="573.3263157894737" type="line"/>
      <point x="481.57894736842104" y="529.9789473684211"/>
      <point x="441.7368421052632" y="489.9684210526316"/>
      <point x="407.81052631578945" y="456.0421052631579" type="curve"/>
    </contour>
  </outline>
</glyph>
<glyph name="section" format="2">
  <advance width="528.0919540229885"/>
  <unicode hex="00A7"/>
  <outline>
    <contour>
      <point x="244.55172413793105" y="-123.10344827586206" type="curve" smooth="yes"/>
      <point x="382.14942528735634" y="-123.10344827586206"/>
      <point x="440.98850574712645" y="-45.02298850574713"/>
      <point x="440.98850574712645" y="44.36781609195402" type="curve" smooth="yes"/>
      <point x="440.98850574712645" y="148.183908045977"/>
      <point x="364.5632183908046" y="176.6551724137931"/>
      <point x="249.54022988505747" y="211.02298850574712" type="curve" smooth="yes"/>
      <point x="147.85057471264366" y="241.73563218390805"/>
      <point x="103.24137931034483" y="268.18390804597703"/>
      <point x="103.24137931034483" y="335.5057471264368" type="curve" smooth="yes"/>
      <point x="103.24137931034483" y="409.4367816091954"/>
      <point x="152.2183908045977" y="436.9080459770115"/>
      <point x="198.19540229885058" y="445.17241379310343" type="curve"/>
      <point x="157.7816091954023" y="478.81609195402297" type="line"/>
      <point x="92.44827586206895" y="455.632183908046"/>
      <point x="54.87356321839081" y="401.50574712643675"/>
      <point x="54.87356321839081" y="334.6666666666667" type="curve" smooth="yes"/>
      <point x="54.87356321839081" y="238.05747126436782"/>
      <point x="131.45977011494253" y="202.48275862068965"/>
      <point x="219.68965517241378" y="175.19540229885058" type="curve" smooth="yes"/>
      <point x="347.0114942528736" y="135.48275862068965"/>
      <point x="392.8045977011494" y="114.95402298850574"/>
      <point x="392.8045977011494" y="48.0" type="curve" smooth="yes"/>
      <point x="392.8045977011494" y="-50.724137931034484"/>
      <point x="324.6666666666667" y="-76.70114942528735"/>
      <point x="244.08045977011494" y="-78.70114942528735" type="curve"/>
      <point x="186.44827586206895" y="-78.70114942528735"/>
      <point x="121.79310344827587" y="-58.333333333333336"/>
      <point x="54.97701149425287" y="-26.333333333333336" type="curve"/>
      <point x="48.42528735632184" y="-76.20689655172414" type="line"/>
      <point x="96.42528735632185" y="-94.47126436781609"/>
      <point x="165.16091954022988" y="-123.10344827586206"/>
    </contour>
    <contour>
      <point x="391.2068965517241" y="130.08045977011494" type="line"/>
      <point x="455.9080459770115" y="160.26436781609195"/>
      <point x="485.2988505747126" y="216.55172413793105"/>
      <point x="485.2988505747126" y="279.4942528735632" type="curve" smooth="yes"/>
      <point x="485.2988505747126" y="380.91954022988506"/>
      <point x="408.8735632183908" y="410.67816091954023"/>
      <point x="293.85057471264366" y="445.04597701149424" type="curve" smooth="yes"/>
      <point x="192.16091954022988" y="475.7586206896552"/>
      <point x="147.55172413793105" y="502.2068965517241"/>
      <point x="147.55172413793105" y="567.8735632183908" type="curve" smooth="yes"/>
      <point x="147.55172413793105" y="665.1494252873563"/>
      <point x="232.2183908045977" y="678.9655172413793"/>
      <point x="281.82758620689657" y="680.9655172413793" type="curve"/>
      <point x="308.82758620689657" y="680.9655172413793"/>
      <point x="371.5632183908046" y="665.7816091954022"/>
      <point x="442.9310344827586" y="630.7816091954023" type="curve"/>
      <point x="448.48275862068965" y="682.2873563218391" type="line"/>
      <point x="402.11494252873564" y="700.551724137931"/>
      <point x="333.8045977011494" y="725.3678160919541"/>
      <point x="278.7816091954023" y="725.3678160919541" type="curve" smooth="yes"/>
      <point x="168.28735632183907" y="725.3678160919541"/>
      <point x="99.0" y="661.448275862069"/>
      <point x="99.0" y="569.0574712643678" type="curve" smooth="yes"/>
      <point x="99.0" y="470.7931034482759"/>
      <point x="177.42528735632183" y="435.2183908045977"/>
      <point x="264.0" y="409.0344827586207" type="curve" smooth="yes"/>
      <point x="391.13793103448273" y="370.0574712643678"/>
      <point x="437.11494252873564" y="347.87356321839076"/>
      <point x="437.11494252873564" y="280.18390804597703" type="curve" smooth="yes"/>
      <point x="437.11494252873564" y="210.06896551724137"/>
      <point x="402.85057471264366" y="174.70114942528735"/>
      <point x="352.32183908045977" y="160.6206896551724" type="curve"/>
    </contour>
  </outline>
</glyph>
<glyph name="copyright" format="2">
  <advance width="825.4631578947368"/>
  <unicode hex="00A9"/>
  <outline>
    <contour>
      <point x="416.2315789473684" y="-9.589473684210526" type="curve" smooth="yes"/>
      <point x="633.421052631579" y="-9.589473684210526"/>
      <point x="768.4947368421052" y="141.57894736842104"/>
      <point x="768.4947368421052" y="344.0842105263158" type="curve" smooth="yes"/>
      <point x="768.4947368421052" y="540.3368421052631"/>
      <point x="639.5052631578948" y="696.8421052631579"/>
      <point x="413.89473684210526" y="696.8421052631579" type="curve" smooth="yes"/>
      <point x="192.2" y="696.8421052631579"/>
      <point x="56.96842105263158" y="543.1684210526316"/>
      <point x="56.96842105263158" y="344.0" type="curve" smooth="yes"/>
      <point x="56.96842105263158" y="151.42105263157896"/>
      <point x="180.62105263157895" y="-9.589473684210526"/>
    </contour>
    <contour>
      <point x="423.4842105263158" y="155.9157894736842" type="curve" smooth="yes"/>
      <point x="466.2315789473684" y="155.9157894736842"/>
      <point x="504.7368421052632" y="171.32631578947368"/>
      <point x="530.9894736842105" y="180.90526315789472" type="curve"/>
      <point x="524.9894736842105" y="224.1578947368421" type="line"/>
      <point x="490.16842105263163" y="205.66315789473686"/>
      <point x="456.7578947368421" y="195.0"/>
      <point x="427.10526315789474" y="195.0" type="curve"/>
      <point x="335.23157894736846" y="196.9157894736842"/>
      <point x="285.9157894736842" y="253.71578947368423"/>
      <point x="285.9157894736842" y="345.1684210526316" type="curve" smooth="yes"/>
      <point x="285.9157894736842" y="442.2736842105263"/>
      <point x="341.63157894736844" y="491.4947368421052"/>
      <point x="418.9157894736842" y="493.57894736842104" type="curve"/>
      <point x="437.5789473684211" y="493.57894736842104"/>
      <point x="477.90526315789475" y="484.57894736842104"/>
      <point x="524.7368421052631" y="461.7473684210526" type="curve"/>
      <point x="529.3263157894737" y="505.33684210526314" type="line"/>
      <point x="501.0736842105263" y="516.2526315789473"/>
      <point x="455.15789473684214" y="533.0"/>
      <point x="417.2315789473684" y="533.0" type="curve" smooth="yes"/>
      <point x="308.63157894736844" y="533.0"/>
      <point x="243.96842105263158" y="451.0842105263158"/>
      <point x="243.96842105263158" y="344.7473684210526" type="curve" smooth="yes"/>
      <point x="243.96842105263158" y="238.41052631578947"/>
      <point x="308.6421052631579" y="155.9157894736842"/>
    </contour>
    <contour>
      <point x="416.14736842105265" y="29.23157894736842" type="curve"/>
      <point x="219.41052631578947" y="33.56842105263158"/>
      <point x="96.46315789473684" y="147.7263157894737"/>
      <point x="96.46315789473684" y="344.0" type="curve" smooth="yes"/>
      <point x="96.46315789473684" y="536.5368421052632"/>
      <point x="223.49473684210525" y="653.6842105263158"/>
      <point x="413.9789473684211" y="658.021052631579" type="curve"/>
      <point x="605.5473684210526" y="653.6842105263158"/>
      <point x="729.0" y="538.2842105263157"/>
      <point x="729.0" y="344.0842105263158" type="curve" smooth="yes"/>
      <point x="729.0" y="148.54736842105265"/>
      <point x="604.2105263157895" y="33.56842105263158"/>
    </contour>
  </outline>
</glyph>
<glyph name="ordfeminine" format="2">
  <advance width="390.2068965517241"/>
  <unicode hex="00AA"/>
  <outline>
    <contour>
      <point x="156.24137931034483" y="334.264367816092" type="curve" smooth="yes"/>
      <point x="204.8735632183908" y="334.264367816092"/>
      <point x="258.58620689655174" y="364.44827586206895"/>
      <point x="288.85057471264366" y="402.08045977011494" type="curve"/>
      <point x="294.21839080459773" y="402.08045977011494" type="line"/>
      <point x="310.8505747126437" y="341.44827586206895" type="line"/>
      <point x="352.14942528735634" y="341.44827586206895" type="line"/>
      <point x="338.5977011494253" y="383.367816091954"/>
      <point x="328.14942528735634" y="417.8390804597701"/>
      <point x="328.14942528735634" y="450.57471264367814" type="curve"/>
      <point x="328.14942528735634" y="501.632183908046" type="line" smooth="yes"/>
      <point x="328.14942528735634" y="535.7126436781609"/>
      <point x="330.14942528735634" y="573.080459770115"/>
      <point x="330.14942528735634" y="595.4482758620691" type="curve" smooth="yes"/>
      <point x="330.14942528735634" y="687.0"/>
      <point x="279.2298850574713" y="725.3678160919541"/>
      <point x="201.20689655172413" y="725.3678160919541" type="curve" smooth="yes"/>
      <point x="157.44827586206898" y="725.3678160919541"/>
      <point x="96.71264367816092" y="708.183908045977"/>
      <point x="60.3448275862069" y="697.3678160919541" type="curve"/>
      <point x="62.712643678160916" y="654.4367816091954" type="line"/>
      <point x="118.79310344827586" y="676.8045977011494"/>
      <point x="175.7126436781609" y="686.9080459770115"/>
      <point x="195.3448275862069" y="686.9080459770115" type="curve" smooth="yes"/>
      <point x="248.97701149425288" y="686.9080459770115"/>
      <point x="294.2183908045977" y="672.0919540229885"/>
      <point x="290.4022988505747" y="583.735632183908" type="curve"/>
      <point x="162.97701149425288" y="557.471264367816" type="line" smooth="yes"/>
      <point x="114.42528735632185" y="547.471264367816"/>
      <point x="43.3448275862069" y="520.367816091954"/>
      <point x="43.3448275862069" y="437.44827586206895" type="curve" smooth="yes"/>
      <point x="43.3448275862069" y="376.81609195402297"/>
      <point x="84.60919540229885" y="334.264367816092"/>
    </contour>
    <contour>
      <point x="166.1264367816092" y="371.98850574712645" type="curve" smooth="yes"/>
      <point x="117.62068965517241" y="371.98850574712645"/>
      <point x="83.45977011494253" y="391.88505747126436"/>
      <point x="83.45977011494253" y="443.39080459770116" type="curve" smooth="yes"/>
      <point x="83.45977011494253" y="498.5287356321839"/>
      <point x="130.51724137931035" y="517.6091954022988"/>
      <point x="179.20689655172413" y="527.0574712643678" type="curve" smooth="yes"/>
      <point x="256.0574712643678" y="542.3218390804598"/>
      <point x="275.7701149425287" y="549.9540229885057"/>
      <point x="290.0344827586207" y="556.1379310344828" type="curve"/>
      <point x="289.2183908045977" y="447.02298850574715" type="line"/>
      <point x="261.8735632183908" y="396.51724137931035"/>
      <point x="202.91954022988506" y="371.98850574712645"/>
    </contour>
  </outline>
</glyph>
<glyph name="logicalnot" format="2">
  <advance width="562.5263157894736"/>
  <unicode hex="00AC"/>
  <outline>
    <contour>
      <point x="448.5684210526316" y="63.23157894736842" type="curve"/>
      <point x="497.55789473684206" y="63.23157894736842" type="line"/>
      <point x="495.13684210526316" y="122.66315789473684"/>
      <point x="495.05263157894734" y="179.01052631578946"/>
      <point x="495.05263157894734" y="227.2736842105263" type="curve"/>
      <point x="495.05263157894734" y="320.4210526315789" type="line"/>
      <point x="435.62105263157895" y="318.0"/>
      <point x="379.2736842105263" y="317.9157894736842"/>
      <point x="331.0105263157895" y="317.9157894736842" type="curve"/>
      <point x="231.5157894736842" y="317.9157894736842" type="line"/>
      <point x="183.25263157894736" y="317.9157894736842"/>
      <point x="126.90526315789474" y="318.0"/>
      <point x="67.47368421052632" y="320.4210526315789" type="curve"/>
      <point x="67.47368421052632" y="271.93684210526317" type="line"/>
      <point x="126.90526315789474" y="274.35789473684207"/>
      <point x="183.25263157894736" y="274.4421052631579"/>
      <point x="231.5157894736842" y="274.4421052631579" type="curve"/>
      <point x="331.0105263157895" y="274.4421052631579" type="line"/>
      <point x="375.7684210526316" y="274.4421052631579"/>
      <point x="428.5263157894737" y="274.35789473684207"/>
      <point x="483.36842105263156" y="271.93684210526317" type="curve"/>
      <point x="451.0736842105263" y="304.2105263157895" type="line"/>
      <point x="451.0736842105263" y="227.2736842105263" type="line"/>
      <point x="451.0736842105263" y="179.01052631578946"/>
      <point x="450.9894736842105" y="122.66315789473684"/>
    </contour>
  </outline>
</glyph>
<glyph name="registered" format="2">
  <advance width="564.1894736842105"/>
  <unicode hex="00AE"/>
  <outline>
    <contour>
      <point x="284.17894736842106" y="262.5473684210526" type="curve" smooth="yes"/>
      <point x="433.70526315789476" y="262.5473684210526"/>
      <point x="525.4526315789474" y="365.38947368421054"/>
      <point x="525.4526315789474" y="503.5684210526316" type="curve" smooth="yes"/>
      <point x="525.4526315789474" y="637.4105263157895"/>
      <point x="437.9578947368421" y="744.421052631579"/>
      <point x="282.7578947368421" y="744.421052631579" type="curve" smooth="yes"/>
      <point x="128.81052631578947" y="744.421052631579"/>
      <point x="38.73684210526316" y="639.3263157894737"/>
      <point x="38.73684210526316" y="503.4842105263158" type="curve" smooth="yes"/>
      <point x="38.73684210526316" y="373.06315789473683"/>
      <point x="122.06315789473685" y="262.5473684210526"/>
    </contour>
    <contour>
      <point x="185.82105263157897" y="366.82105263157894" type="curve"/>
      <point x="223.63157894736844" y="366.82105263157894" type="line"/>
      <point x="221.29473684210527" y="398.82105263157894"/>
      <point x="221.1263157894737" y="425.82105263157894"/>
      <point x="221.1263157894737" y="460.82105263157894" type="curve"/>
      <point x="221.1263157894737" y="552.8210526315789" type="line"/>
      <point x="221.1263157894737" y="587.4842105263158"/>
      <point x="221.29473684210527" y="615.2315789473685"/>
      <point x="223.54736842105265" y="646.978947368421" type="curve"/>
      <point x="185.56842105263158" y="651.8210526315789" type="line"/>
      <point x="187.98947368421054" y="619.8210526315789"/>
      <point x="188.07368421052632" y="591.8210526315789"/>
      <point x="188.07368421052632" y="556.8210526315789" type="curve"/>
      <point x="188.07368421052632" y="460.82105263157894" type="line"/>
      <point x="188.07368421052632" y="425.82105263157894"/>
      <point x="187.98947368421054" y="398.82105263157894"/>
    </contour>
    <contour>
      <point x="284.09473684210525" y="294.9894736842105" type="curve"/>
      <point x="150.65263157894736" y="297.2421052631579"/>
      <point x="71.76842105263158" y="375.0105263157895"/>
      <point x="71.76842105263158" y="503.4842105263158" type="curve" smooth="yes"/>
      <point x="71.76842105263158" y="630.221052631579"/>
      <point x="152.90526315789472" y="709.8105263157895"/>
      <point x="282.8421052631579" y="712.0631578947368" type="curve"/>
      <point x="412.94736842105266" y="709.8105263157895"/>
      <point x="491.5052631578947" y="631.8000000000001"/>
      <point x="491.5052631578947" y="503.5684210526316" type="curve" smooth="yes"/>
      <point x="491.5052631578947" y="375.66315789473686"/>
      <point x="412.2736842105263" y="297.2421052631579"/>
    </contour>
    <contour>
      <point x="360.8842105263158" y="366.82105263157894" type="curve"/>
      <point x="408.9473684210526" y="366.82105263157894" type="line"/>
      <point x="388.2842105263158" y="388.82105263157894"/>
      <point x="362.7894736842105" y="420.90526315789475"/>
      <point x="340.29473684210524" y="448.9894736842105" type="curve"/>
      <point x="295.30526315789473" y="505.1578947368421" type="line"/>
      <point x="283.11578947368423" y="489.06315789473683" type="line"/>
      <point x="353.36842105263156" y="489.06315789473683"/>
      <point x="380.11578947368423" y="527.1473684210526"/>
      <point x="380.11578947368423" y="573.4" type="curve" smooth="yes"/>
      <point x="380.11578947368423" y="629.6526315789474"/>
      <point x="341.11578947368423" y="652.9894736842106"/>
      <point x="283.17894736842106" y="652.9894736842106" type="curve"/>
      <point x="242.25263157894736" y="652.9894736842106"/>
      <point x="209.57894736842104" y="651.8210526315789"/>
      <point x="185.56842105263158" y="651.8210526315789" type="curve"/>
      <point x="210.52631578947367" y="621.4526315789474" type="line"/>
      <point x="281.9263157894737" y="621.4526315789474" type="line" smooth="yes"/>
      <point x="305.7473684210526" y="621.4526315789474"/>
      <point x="345.81052631578945" y="619.5368421052632"/>
      <point x="345.81052631578945" y="572.3894736842105" type="curve" smooth="yes"/>
      <point x="345.81052631578945" y="528.1578947368421"/>
      <point x="315.2421052631579" y="514.6631578947369"/>
      <point x="269.5157894736842" y="514.6631578947369" type="curve" smooth="yes"/>
      <point x="215.03157894736842" y="514.6631578947369" type="line"/>
      <point x="215.03157894736842" y="486.38947368421054" type="line"/>
      <point x="280.36842105263156" y="486.38947368421054" type="line"/>
      <point x="259.42105263157896" y="500.0736842105263" type="line"/>
      <point x="309.9894736842105" y="435.90526315789475" type="line"/>
      <point x="327.4" y="413.9894736842105"/>
      <point x="343.978947368421" y="392.7368421052632"/>
    </contour>
  </outline>
</glyph>
<glyph name="plusminus" format="2">
  <advance width="562.5263157894736"/>
  <unicode hex="00B1"/>
  <outline>
    <contour>
      <point x="67.47368421052632" y="-2.5052631578947366" type="line"/>
      <point x="126.90526315789474" y="-0.08421052631578947"/>
      <point x="183.25263157894736" y="0.0"/>
      <point x="231.5157894736842" y="0.0" type="curve"/>
      <point x="331.0105263157895" y="0.0" type="line"/>
      <point x="379.2736842105263" y="0.0"/>
      <point x="435.62105263157895" y="-0.08421052631578947"/>
      <point x="495.05263157894734" y="-2.5052631578947366" type="curve"/>
      <point x="495.05263157894734" y="45.97894736842105" type="line"/>
      <point x="435.62105263157895" y="43.5578947368421"/>
      <point x="379.2736842105263" y="43.473684210526315"/>
      <point x="331.0105263157895" y="43.473684210526315" type="curve"/>
      <point x="231.5157894736842" y="43.473684210526315" type="line"/>
      <point x="183.25263157894736" y="43.473684210526315"/>
      <point x="126.90526315789474" y="43.5578947368421"/>
      <point x="67.47368421052632" y="45.97894736842105" type="curve"/>
    </contour>
    <contour>
      <point x="67.47368421052632" y="352.2631578947369" type="line"/>
      <point x="126.90526315789474" y="354.6842105263158"/>
      <point x="183.25263157894736" y="354.7684210526316"/>
      <point x="231.5157894736842" y="354.7684210526316" type="curve"/>
      <point x="331.0105263157895" y="354.7684210526316" type="line"/>
      <point x="379.2736842105263" y="354.7684210526316"/>
      <point x="435.62105263157895" y="354.6842105263158"/>
      <point x="495.05263157894734" y="352.2631578947369" type="curve"/>
      <point x="495.05263157894734" y="400.7473684210526" type="line"/>
      <point x="435.62105263157895" y="398.3263157894737"/>
      <point x="379.2736842105263" y="398.2421052631579"/>
      <point x="331.0105263157895" y="398.2421052631579" type="curve"/>
      <point x="231.5157894736842" y="398.2421052631579" type="line"/>
      <point x="183.25263157894736" y="398.2421052631579"/>
      <point x="126.90526315789474" y="398.3263157894737"/>
      <point x="67.47368421052632" y="400.7473684210526" type="curve"/>
    </contour>
    <contour>
      <point x="256.7684210526316" y="145.2421052631579" type="curve"/>
      <point x="305.7578947368421" y="145.2421052631579" type="line"/>
      <point x="303.3368421052632" y="204.67368421052632"/>
      <point x="303.2526315789474" y="261.0210526315789"/>
      <point x="303.2526315789474" y="309.2842105263158" type="curve"/>
      <point x="303.2526315789474" y="443.7263157894737" type="line"/>
      <point x="303.2526315789474" y="491.9894736842105"/>
      <point x="303.3368421052632" y="548.3368421052631"/>
      <point x="305.7578947368421" y="607.7684210526315" type="curve"/>
      <point x="256.7684210526316" y="607.7684210526315" type="line"/>
      <point x="259.1894736842105" y="548.3368421052631"/>
      <point x="259.2736842105263" y="491.9894736842105"/>
      <point x="259.2736842105263" y="443.7263157894737" type="curve"/>
      <point x="259.2736842105263" y="309.2842105263158" type="line"/>
      <point x="259.2736842105263" y="261.0210526315789"/>
      <point x="259.1894736842105" y="204.67368421052632"/>
    </contour>
  </outline>
</glyph>
<glyph name="micro" format="2">
  <advance width="552.5368421052632"/>
  <unicode hex="00B5"/>
  <outline>
    <contour>
      <point x="80.85263157894737" y="-194.33684210526314" type="curve"/>
      <point x="135.96842105263158" y="-192.0" type="line"/>
      <point x="131.8736842105263" y="-117.50526315789473"/>
      <point x="131.2842105263158" y="-52.92631578947368"/>
      <point x="131.2842105263158" y="27.231578947368423" type="curve" smooth="yes"/>
      <point x="131.2842105263158" y="46.473684210526315" type="line"/>
      <point x="119.86315789473684" y="46.473684210526315" type="line"/>
      <point x="143.4421052631579" y="9.568421052631578"/>
      <point x="181.34736842105264" y="-9.589473684210526"/>
      <point x="240.65263157894736" y="-9.589473684210526" type="curve" smooth="yes"/>
      <point x="306.7052631578947" y="-9.589473684210526"/>
      <point x="381.2631578947368" y="50.136842105263156"/>
      <point x="416.9263157894737" y="93.14736842105262" type="curve"/>
      <point x="423.85263157894735" y="93.14736842105262" type="line"/>
      <point x="449.92631578947373" y="0.0" type="line"/>
      <point x="497.8315789473684" y="0.0" type="line"/>
      <point x="479.9894736842105" y="54.34736842105263"/>
      <point x="466.7473684210526" y="100.03157894736843"/>
      <point x="466.7473684210526" y="141.46315789473684" type="curve"/>
      <point x="466.7473684210526" y="271.1684210526316" type="line"/>
      <point x="466.7473684210526" y="352.8526315789474"/>
      <point x="470.42105263157896" y="421.09473684210525"/>
      <point x="469.0" y="494.6736842105263" type="curve"/>
      <point x="416.4842105263158" y="494.6736842105263" type="line"/>
      <point x="419.9894736842105" y="420.17894736842106"/>
      <point x="420.57894736842104" y="353.7684210526316"/>
      <point x="420.57894736842104" y="273.69473684210527" type="curve"/>
      <point x="420.57894736842104" y="153.79999999999998" type="line"/>
      <point x="373.86315789473684" y="86.85263157894737"/>
      <point x="295.0" y="36.136842105263156"/>
      <point x="246.62105263157895" y="36.136842105263156" type="curve" smooth="yes"/>
      <point x="159.43157894736842" y="36.136842105263156"/>
      <point x="131.2842105263158" y="84.03157894736843"/>
      <point x="131.2842105263158" y="176.57894736842104" type="curve"/>
      <point x="131.2842105263158" y="273.69473684210527" type="line"/>
      <point x="131.2842105263158" y="353.7684210526316"/>
      <point x="134.78947368421052" y="422.5157894736842"/>
      <point x="133.70526315789473" y="497.0105263157895" type="curve"/>
      <point x="80.68421052631578" y="494.6736842105263" type="line"/>
      <point x="84.3578947368421" y="420.17894736842106"/>
      <point x="85.1157894736842" y="353.76842105263154"/>
      <point x="85.1157894736842" y="271.1684210526316" type="curve"/>
      <point x="85.1157894736842" y="28.326315789473686" type="line"/>
      <point x="85.1157894736842" y="-52.92631578947368"/>
      <point x="84.52631578947368" y="-119.84210526315789"/>
    </contour>
  </outline>
</glyph>
<glyph name="paragraph" format="2">
  <advance width="529.7473684210527"/>
  <unicode hex="00B6"/>
  <outline>
    <contour>
      <point x="223.98947368421054" y="308.87368421052633" type="curve" smooth="yes"/>
      <point x="244.07368421052632" y="308.87368421052633" type="line"/>
      <point x="244.07368421052632" y="713.0" type="line"/>
      <point x="223.98947368421054" y="713.0" type="line"/>
      <point x="113.47368421052632" y="713.0"/>
      <point x="37.89473684210526" y="630.0736842105263"/>
      <point x="37.89473684210526" y="513.978947368421" type="curve" smooth="yes"/>
      <point x="37.89473684210526" y="404.88421052631577"/>
      <point x="106.38947368421053" y="308.87368421052633"/>
    </contour>
    <contour>
      <point x="221.82105263157897" y="-174.25263157894736" type="curve"/>
      <point x="265.67368421052635" y="-174.25263157894736" type="line"/>
      <point x="263.16842105263163" y="-56.252631578947366"/>
      <point x="263.0842105263158" y="46.747368421052634"/>
      <point x="263.0842105263158" y="154.74736842105264" type="curve"/>
      <point x="263.0842105263158" y="384.0" type="line"/>
      <point x="263.0842105263158" y="492.0"/>
      <point x="263.16842105263163" y="595.0"/>
      <point x="265.92631578947373" y="713.0" type="curve"/>
      <point x="224.66315789473686" y="713.0" type="line"/>
      <point x="224.66315789473686" y="595.0"/>
      <point x="224.66315789473686" y="492.0"/>
      <point x="224.66315789473686" y="384.0" type="curve"/>
      <point x="224.66315789473686" y="154.74736842105264" type="line"/>
      <point x="224.66315789473686" y="46.747368421052634"/>
      <point x="224.57894736842107" y="-56.252631578947366"/>
    </contour>
    <contour>
      <point x="357.12631578947367" y="-174.25263157894736" type="curve"/>
      <point x="400.9789473684211" y="-174.25263157894736" type="line"/>
      <point x="398.22105263157897" y="-56.252631578947366"/>
      <point x="398.13684210526316" y="46.747368421052634"/>
      <point x="398.13684210526316" y="154.74736842105264" type="curve"/>
      <point x="398.13684210526316" y="384.0" type="line"/>
      <point x="398.13684210526316" y="492.0"/>
      <point x="398.22105263157897" y="595.0"/>
      <point x="400.9789473684211" y="713.0" type="curve"/>
      <point x="356.8736842105263" y="713.0" type="line"/>
      <point x="359.6315789473684" y="595.0"/>
      <point x="359.7157894736842" y="492.0"/>
      <point x="359.7157894736842" y="384.0" type="curve"/>
      <point x="359.7157894736842" y="154.74736842105264" type="line"/>
      <point x="359.7157894736842" y="46.747368421052634"/>
      <point x="359.6315789473684" y="-56.252631578947366"/>
    </contour>
    <contour>
      <point x="237.05263157894737" y="675.421052631579" type="line"/>
      <point x="336.5473684210526" y="675.421052631579" type="line"/>
      <point x="384.8105263157895" y="675.421052631579"/>
      <point x="441.1578947368421" y="675.3368421052631"/>
      <point x="500.58947368421053" y="672.9157894736842" type="curve"/>
      <point x="500.58947368421053" y="713.0" type="line"/>
      <point x="441.1578947368421" y="713.0"/>
      <point x="384.8105263157895" y="713.0"/>
      <point x="336.5473684210526" y="713.0" type="curve"/>
      <point x="237.05263157894737" y="713.0" type="line"/>
    </contour>
  </outline>
</glyph>
<glyph name="AE" format="2">
  <advance width="961.8850574712644"/>
  <unicode hex="00C6"/>
  <anchor x="499.4597701149425" y="0.0" name="bottom"/>
  <anchor x="499.4597701149425" y="713.0" name="top"/>
  <outline>
    <contour>
      <point x="14.344827586206897" y="0.0" type="curve"/>
      <point x="79.57471264367815" y="0.0" type="line"/>
      <point x="127.08045977011494" y="88.16091954022988"/>
      <point x="181.4022988505747" y="184.77011494252872"/>
      <point x="230.19540229885058" y="270.11494252873564" type="curve"/>
      <point x="459.1609195402299" y="668.3908045977012" type="line"/>
      <point x="475.63218390804593" y="668.3908045977012" type="line"/>
      <point x="513.4827586206898" y="668.3908045977012" type="line"/>
      <point x="515.8735632183908" y="713.0" type="line"/>
      <point x="426.1264367816092" y="713.0" type="line"/>
      <point x="389.7816091954023" y="641.448275862069"/>
      <point x="349.8045977011494" y="571.551724137931"/>
      <point x="302.54022988505744" y="489.44827586206895" type="curve"/>
      <point x="159.58620689655172" y="242.0" type="line"/>
      <point x="115.6896551724138" y="165.816091954023"/>
      <point x="62.793103448275865" y="76.0"/>
    </contour>
    <contour>
      <point x="170.17241379310346" y="195.64367816091954" type="line"/>
      <point x="498.8045977011494" y="195.64367816091954" type="line"/>
      <point x="496.78160919540227" y="238.33333333333334" type="line"/>
      <point x="172.5632183908046" y="238.33333333333334" type="line"/>
    </contour>
    <contour>
      <point x="471.1609195402299" y="0.0" type="curve"/>
      <point x="528.5747126436781" y="0.0" type="line"/>
      <point x="528.5747126436781" y="6.942528735632184" type="line"/>
      <point x="524.6551724137931" y="87.39080459770115"/>
      <point x="524.1034482758621" y="157.02298850574712"/>
      <point x="524.1034482758621" y="244.20689655172413" type="curve"/>
      <point x="524.1034482758621" y="468.8735632183908" type="line"/>
      <point x="524.1034482758621" y="556.4252873563219"/>
      <point x="524.6551724137931" y="626.2413793103449"/>
      <point x="528.5747126436781" y="706.8735632183908" type="curve"/>
      <point x="528.5747126436781" y="713.0" type="line"/>
      <point x="471.1609195402299" y="713.0" type="line"/>
      <point x="474.08045977011494" y="632.3678160919541"/>
      <point x="474.63218390804593" y="562.551724137931"/>
      <point x="474.63218390804593" y="475.0" type="curve"/>
      <point x="474.63218390804593" y="237.26436781609195" type="line"/>
      <point x="474.63218390804593" y="149.89655172413794"/>
      <point x="474.08045977011494" y="80.44827586206897"/>
    </contour>
    <contour>
      <point x="516.4482758620691" y="0.0" type="line"/>
      <point x="900.7241379310345" y="0.0" type="line"/>
      <point x="900.7241379310345" y="50.632183908045974" type="line"/>
      <point x="825.1954022988506" y="46.52873563218391"/>
      <point x="744.8505747126437" y="45.3448275862069"/>
      <point x="653.6896551724138" y="45.3448275862069" type="curve"/>
      <point x="516.4482758620691" y="45.3448275862069" type="line"/>
    </contour>
    <contour>
      <point x="513.8735632183908" y="339.82758620689657" type="line"/>
      <point x="656.0344827586207" y="339.82758620689657" type="line"/>
      <point x="748.7471264367816" y="339.82758620689657"/>
      <point x="811.0114942528736" y="339.64367816091954"/>
      <point x="879.0919540229885" y="338.09195402298855" type="curve"/>
      <point x="879.0919540229885" y="388.17241379310343" type="line"/>
      <point x="814.8275862068966" y="384.62068965517244"/>
      <point x="751.7471264367816" y="384.4367816091954"/>
      <point x="656.8505747126437" y="384.4367816091954" type="curve"/>
      <point x="513.8735632183908" y="384.4367816091954" type="line"/>
    </contour>
    <contour>
      <point x="515.1609195402299" y="667.6551724137931" type="line"/>
      <point x="648.5862068965517" y="667.6551724137931" type="line"/>
      <point x="756.5632183908046" y="667.6551724137931"/>
      <point x="831.2758620689656" y="666.2873563218391"/>
      <point x="900.9885057471265" y="662.3678160919541" type="curve"/>
      <point x="900.9885057471265" y="713.0" type="line"/>
      <point x="515.1609195402299" y="713.0" type="line"/>
    </contour>
  </outline>
</glyph>
<glyph name="multiply" format="2">
  <advance width="557.7052631578947"/>
  <unicode hex="00D7"/>
  <outline>
    <contour>
      <point x="453.64210526315793" y="87.2" type="curve"/>
      <point x="487.8315789473684" y="121.38947368421053" type="line"/>
      <point x="444.4842105263158" y="162.06315789473683"/>
      <point x="404.4736842105263" y="201.98947368421054"/>
      <point x="369.7157894736842" y="235.9157894736842" type="curve"/>
      <point x="218.58947368421053" y="387.0421052631579" type="line"/>
      <point x="184.66315789473686" y="421.8"/>
      <point x="144.73684210526315" y="461.8105263157895"/>
      <point x="104.06315789473685" y="505.1578947368421" type="curve"/>
      <point x="69.87368421052632" y="470.9684210526316" type="line"/>
      <point x="113.22105263157894" y="430.29473684210524"/>
      <point x="153.23157894736843" y="390.36842105263156"/>
      <point x="187.98947368421054" y="356.4421052631579" type="curve"/>
      <point x="339.11578947368423" y="205.31578947368422" type="line"/>
      <point x="373.0421052631579" y="170.55789473684212"/>
      <point x="412.9684210526316" y="130.54736842105262"/>
    </contour>
    <contour>
      <point x="104.06315789473685" y="87.2" type="line"/>
      <point x="144.73684210526315" y="130.54736842105262"/>
      <point x="184.66315789473686" y="170.55789473684212"/>
      <point x="218.58947368421053" y="205.31578947368422" type="curve"/>
      <point x="369.7157894736842" y="356.4421052631579" type="line"/>
      <point x="404.4736842105263" y="390.36842105263156"/>
      <point x="444.4842105263158" y="430.29473684210524"/>
      <point x="487.8315789473684" y="470.9684210526316" type="curve"/>
      <point x="453.64210526315793" y="505.1578947368421" type="line"/>
      <point x="412.9684210526316" y="461.8105263157895"/>
      <point x="373.0421052631579" y="421.8"/>
      <point x="339.11578947368423" y="387.0421052631579" type="curve"/>
      <point x="187.98947368421054" y="235.9157894736842" type="line"/>
      <point x="153.23157894736843" y="201.98947368421054"/>
      <point x="113.22105263157894" y="162.06315789473683"/>
      <point x="69.87368421052632" y="121.38947368421053" type="curve"/>
    </contour>
  </outline>
</glyph>
<glyph name="Oslash" format="2">
  <advance width="818.3263157894737"/>
  <unicode hex="00D8"/>
  <anchor x="408.7473684210526" y="0.0" name="bottom"/>
  <anchor x="408.7473684210526" y="357.0" name="center"/>
  <anchor x="497.11578947368423" y="0.0" name="ogonek"/>
  <anchor x="408.7473684210526" y="713.0" name="top"/>
  <anchor x="26.74736842105263" y="713.0" name="topleft"/>
  <anchor x="719.8105263157895" y="713.0" name="topright"/>
  <outline>
    <contour>
      <point x="412.66315789473686" y="-9.589473684210526" type="curve" smooth="yes"/>
      <point x="628.0315789473684" y="-9.589473684210526"/>
      <point x="761.3578947368421" y="147.49473684210525"/>
      <point x="761.3578947368421" y="357.8315789473684" type="curve" smooth="yes"/>
      <point x="761.3578947368421" y="562.0"/>
      <point x="634.1157894736842" y="725.3368421052631"/>
      <point x="410.3263157894737" y="725.3368421052631" type="curve" smooth="yes"/>
      <point x="190.45263157894738" y="725.3368421052631"/>
      <point x="56.96842105263158" y="564.8315789473684"/>
      <point x="56.96842105263158" y="357.7473684210526" type="curve" smooth="yes"/>
      <point x="56.96842105263158" y="158.25263157894736"/>
      <point x="178.8736842105263" y="-9.589473684210526"/>
    </contour>
    <contour>
      <point x="410.57894736842104" y="37.305263157894736" type="curve"/>
      <point x="201.1157894736842" y="41.642105263157895"/>
      <point x="108.74736842105263" y="186.73684210526315"/>
      <point x="108.74736842105263" y="357.8315789473684" type="curve" smooth="yes"/>
      <point x="108.74736842105263" y="528.2631578947369"/>
      <point x="205.03157894736842" y="674.1052631578948"/>
      <point x="410.57894736842104" y="678.4421052631579" type="curve"/>
      <point x="609.4631578947368" y="674.1052631578948"/>
      <point x="709.578947368421" y="539.2526315789474"/>
      <point x="709.578947368421" y="357.8315789473684" type="curve" smooth="yes"/>
      <point x="709.578947368421" y="190.4"/>
      <point x="619.9578947368421" y="41.642105263157895"/>
    </contour>
    <contour>
      <point x="126.62105263157895" y="-60.28421052631579" type="line"/>
      <point x="192.03157894736842" y="26.799999999999997"/>
      <point x="251.86315789473684" y="106.30526315789474"/>
      <point x="324.86315789473684" y="200.38947368421051" type="curve"/>
      <point x="522.0315789473684" y="460.4736842105263" type="line"/>
      <point x="595.0315789473684" y="555.4736842105264"/>
      <point x="655.1157894736842" y="632.3894736842104"/>
      <point x="724.7894736842105" y="719.9684210526316" type="curve"/>
      <point x="687.3684210526317" y="748.2842105263157" type="line"/>
      <point x="622.7894736842105" y="658.8631578947368"/>
      <point x="563.042105263158" y="579.8631578947368"/>
      <point x="489.0421052631579" y="482.94736842105266" type="curve"/>
      <point x="293.9578947368421" y="226.03157894736842" type="line"/>
      <point x="222.0421052631579" y="132.1157894736842"/>
      <point x="162.95789473684212" y="58.199999999999996"/>
      <point x="91.45263157894736" y="-30.463157894736838" type="curve"/>
    </contour>
  </outline>
</glyph>
